<mxfile host="Electron" agent="Mozilla/5.0 (X11; Linux x86_64) AppleWebKit/537.36 (KHTML, like Gecko) draw.io/28.2.5 Chrome/138.0.7204.251 Electron/37.6.1 Safari/537.36" version="28.2.5" pages="4">
  <diagram name="k8s" id="20qKqcyUioi3h5YeXCLD">
    <mxGraphModel dx="1843" dy="860" grid="1" gridSize="10" guides="1" tooltips="1" connect="1" arrows="1" fold="1" page="1" pageScale="1" pageWidth="850" pageHeight="1100" math="0" shadow="0">
      <root>
        <mxCell id="7s-kDECO7zZeQJ60G7X3-0" />
        <mxCell id="7s-kDECO7zZeQJ60G7X3-1" parent="7s-kDECO7zZeQJ60G7X3-0" />
        <mxCell id="7s-kDECO7zZeQJ60G7X3-2" value="" style="rounded=0;whiteSpace=wrap;html=1;fillColor=none;strokeColor=none;" parent="7s-kDECO7zZeQJ60G7X3-1" vertex="1">
          <mxGeometry x="-720" y="100" width="1070" height="260" as="geometry" />
        </mxCell>
        <mxCell id="7s-kDECO7zZeQJ60G7X3-3" value="k8s node" style="rounded=1;whiteSpace=wrap;html=1;verticalAlign=bottom;fillColor=#f5f5f5;strokeColor=#666666;arcSize=3;spacing=0;fontColor=#333333;" parent="7s-kDECO7zZeQJ60G7X3-1" vertex="1">
          <mxGeometry x="-420.34" y="249.38" width="240" height="70" as="geometry" />
        </mxCell>
        <mxCell id="7s-kDECO7zZeQJ60G7X3-4" value="" style="rounded=1;whiteSpace=wrap;html=1;arcSize=5;fillColor=#f5f5f5;strokeColor=#666666;fontColor=#333333;" parent="7s-kDECO7zZeQJ60G7X3-1" vertex="1">
          <mxGeometry x="-420.34" y="119.38" width="240" height="130" as="geometry" />
        </mxCell>
        <mxCell id="7s-kDECO7zZeQJ60G7X3-5" value="k8s control plane" style="rounded=1;whiteSpace=wrap;html=1;fillColor=#ffcd28;gradientColor=#ffa500;strokeColor=#d79b00;verticalAlign=bottom;" parent="7s-kDECO7zZeQJ60G7X3-1" vertex="1">
          <mxGeometry x="-400.34" y="179.38" width="200" height="30" as="geometry" />
        </mxCell>
        <mxCell id="7s-kDECO7zZeQJ60G7X3-6" value="pod infra" style="rounded=1;whiteSpace=wrap;html=1;fillColor=#d5e8d4;gradientColor=#97d077;strokeColor=#82b366;" parent="7s-kDECO7zZeQJ60G7X3-1" vertex="1">
          <mxGeometry x="-400.34" y="129.38" width="50" height="50" as="geometry" />
        </mxCell>
        <mxCell id="7s-kDECO7zZeQJ60G7X3-7" value="pod appli" style="rounded=1;whiteSpace=wrap;html=1;fillColor=#dae8fc;gradientColor=#7ea6e0;strokeColor=#6c8ebf;" parent="7s-kDECO7zZeQJ60G7X3-1" vertex="1">
          <mxGeometry x="-330.34" y="129.38" width="50" height="50" as="geometry" />
        </mxCell>
        <mxCell id="7s-kDECO7zZeQJ60G7X3-8" value="k8s node" style="rounded=1;whiteSpace=wrap;html=1;verticalAlign=bottom;fillColor=#f5f5f5;strokeColor=#666666;arcSize=3;spacing=0;fontColor=#333333;" parent="7s-kDECO7zZeQJ60G7X3-1" vertex="1">
          <mxGeometry x="-160.34" y="249.38" width="240" height="70" as="geometry" />
        </mxCell>
        <mxCell id="7s-kDECO7zZeQJ60G7X3-9" value="" style="rounded=1;whiteSpace=wrap;html=1;arcSize=5;fillColor=#f5f5f5;strokeColor=#666666;fontColor=#333333;" parent="7s-kDECO7zZeQJ60G7X3-1" vertex="1">
          <mxGeometry x="-160.34" y="119.38" width="240" height="130" as="geometry" />
        </mxCell>
        <mxCell id="7s-kDECO7zZeQJ60G7X3-10" value="k8s control plane" style="rounded=1;whiteSpace=wrap;html=1;fillColor=#ffcd28;gradientColor=#ffa500;strokeColor=#d79b00;verticalAlign=bottom;" parent="7s-kDECO7zZeQJ60G7X3-1" vertex="1">
          <mxGeometry x="-140.34" y="179.38" width="200" height="30" as="geometry" />
        </mxCell>
        <mxCell id="7s-kDECO7zZeQJ60G7X3-11" value="" style="endArrow=classic;startArrow=classic;html=1;rounded=0;entryX=0;entryY=0.5;entryDx=0;entryDy=0;exitX=1;exitY=0.5;exitDx=0;exitDy=0;" parent="7s-kDECO7zZeQJ60G7X3-1" source="7s-kDECO7zZeQJ60G7X3-5" target="7s-kDECO7zZeQJ60G7X3-10" edge="1">
          <mxGeometry width="50" height="50" relative="1" as="geometry">
            <mxPoint x="-240.34" y="179.38" as="sourcePoint" />
            <mxPoint x="-190.34" y="129.38" as="targetPoint" />
          </mxGeometry>
        </mxCell>
        <mxCell id="7s-kDECO7zZeQJ60G7X3-12" value="pod infra" style="rounded=1;whiteSpace=wrap;html=1;fillColor=#d5e8d4;gradientColor=#97d077;strokeColor=#82b366;" parent="7s-kDECO7zZeQJ60G7X3-1" vertex="1">
          <mxGeometry x="-390.34" y="139.38" width="50" height="50" as="geometry" />
        </mxCell>
        <mxCell id="7s-kDECO7zZeQJ60G7X3-13" value="pod appli" style="rounded=1;whiteSpace=wrap;html=1;fillColor=#dae8fc;gradientColor=#7ea6e0;strokeColor=#6c8ebf;" parent="7s-kDECO7zZeQJ60G7X3-1" vertex="1">
          <mxGeometry x="-320.34" y="139.38" width="50" height="50" as="geometry" />
        </mxCell>
        <mxCell id="7s-kDECO7zZeQJ60G7X3-14" value="pod infra" style="rounded=1;whiteSpace=wrap;html=1;fillColor=#d5e8d4;gradientColor=#97d077;strokeColor=#82b366;" parent="7s-kDECO7zZeQJ60G7X3-1" vertex="1">
          <mxGeometry x="-140.34" y="129.38" width="50" height="50" as="geometry" />
        </mxCell>
        <mxCell id="7s-kDECO7zZeQJ60G7X3-15" value="pod appli" style="rounded=1;whiteSpace=wrap;html=1;fillColor=#dae8fc;gradientColor=#7ea6e0;strokeColor=#6c8ebf;" parent="7s-kDECO7zZeQJ60G7X3-1" vertex="1">
          <mxGeometry x="-70.34" y="129.38" width="50" height="50" as="geometry" />
        </mxCell>
        <mxCell id="7s-kDECO7zZeQJ60G7X3-16" value="pod infra" style="rounded=1;whiteSpace=wrap;html=1;fillColor=#d5e8d4;gradientColor=#97d077;strokeColor=#82b366;" parent="7s-kDECO7zZeQJ60G7X3-1" vertex="1">
          <mxGeometry x="-130.34" y="139.38" width="50" height="50" as="geometry" />
        </mxCell>
        <mxCell id="7s-kDECO7zZeQJ60G7X3-17" value="pod appli" style="rounded=1;whiteSpace=wrap;html=1;fillColor=#dae8fc;gradientColor=#7ea6e0;strokeColor=#6c8ebf;" parent="7s-kDECO7zZeQJ60G7X3-1" vertex="1">
          <mxGeometry x="-60.34" y="139.38" width="50" height="50" as="geometry" />
        </mxCell>
        <mxCell id="7s-kDECO7zZeQJ60G7X3-18" value="API" style="endArrow=classic;html=1;rounded=0;entryX=0;entryY=0.5;entryDx=0;entryDy=0;startArrow=oval;startFill=1;" parent="7s-kDECO7zZeQJ60G7X3-1" target="7s-kDECO7zZeQJ60G7X3-5" edge="1">
          <mxGeometry width="50" height="50" relative="1" as="geometry">
            <mxPoint x="-450.34" y="194.38" as="sourcePoint" />
            <mxPoint x="-410.34" y="193.95999999999998" as="targetPoint" />
          </mxGeometry>
        </mxCell>
        <mxCell id="7s-kDECO7zZeQJ60G7X3-19" value="container run-time" style="rounded=1;whiteSpace=wrap;html=1;fillColor=#fff2cc;gradientColor=#ffd966;strokeColor=#d6b656;verticalAlign=bottom;" parent="7s-kDECO7zZeQJ60G7X3-1" vertex="1">
          <mxGeometry x="-400.34" y="209.38" width="200" height="30" as="geometry" />
        </mxCell>
        <mxCell id="7s-kDECO7zZeQJ60G7X3-20" value="container run-time" style="rounded=1;whiteSpace=wrap;html=1;fillColor=#fff2cc;gradientColor=#ffd966;strokeColor=#d6b656;verticalAlign=bottom;" parent="7s-kDECO7zZeQJ60G7X3-1" vertex="1">
          <mxGeometry x="-140.34" y="209.38" width="200" height="30" as="geometry" />
        </mxCell>
        <mxCell id="7s-kDECO7zZeQJ60G7X3-21" value="cluster" style="endArrow=classic;startArrow=classic;html=1;rounded=0;dashed=1;" parent="7s-kDECO7zZeQJ60G7X3-1" edge="1">
          <mxGeometry width="50" height="50" relative="1" as="geometry">
            <mxPoint x="-420.34" y="339.38" as="sourcePoint" />
            <mxPoint x="80.34965517241383" y="339.38" as="targetPoint" />
          </mxGeometry>
        </mxCell>
        <mxCell id="7s-kDECO7zZeQJ60G7X3-22" value="&lt;font style=&quot;color: rgb(102, 0, 204);&quot;&gt;&lt;b style=&quot;&quot;&gt;GPU&lt;/b&gt;&lt;/font&gt;" style="editableCssRules=.*;html=1;shape=image;verticalLabelPosition=bottom;labelBackgroundColor=none;verticalAlign=top;aspect=fixed;imageAspect=0;image=data:image/svg+xml,PHN2ZyB4bWxucz0iaHR0cDovL3d3dy53My5vcmcvMjAwMC9zdmciIHhtbG5zOnY9Imh0dHBzOi8vdmVjdGEuaW8vbmFubyIgd2lkdGg9IjIwIiBoZWlnaHQ9IjIwIiB2aWV3Qm94PSIwIDAgMjAgMjAiIHN0eWxlPSJjb2xvci1zY2hlbWU6IGxpZ2h0IGRhcms7Ij4mI3hhOwk8c3R5bGUgdHlwZT0idGV4dC9jc3MiPi5zdDAgeyBmaWxsOiBsaWdodC1kYXJrKHJnYigxNTMsIDUxLCAyNTUpLCByZ2IoNjYsIDEzMywgMjQ0KSk7IH0gPC9zdHlsZT4mI3hhOwk8cGF0aCBjbGFzcz0ic3QwIiBkPSJNMTMuMzMgMHYyLjM4aC0yLjE2VjBIOC44M3YyLjM4SDYuNjdWMEg0LjI5djIuMzhhMiAyIDAgMCAwLTEuOTEgMS45MUgwdjIuMzhoMi4zOHYyLjE0SDB2Mi4zOGgyLjM4djIuMTRIMHYyLjM4aDIuMzhhMiAyIDAgMCAwIDEuOTEgMS45MVYyMGgyLjM4di0yLjM4aDIuMTZWMjBoMi4zNHYtMi4zOGgyLjE2VjIwaDIuMzh2LTIuMzhhMiAyIDAgMCAwIDEuOTEtMS45MUgyMHYtMi4zOGgtMi4zOHYtMi4xNEgyMFY4LjgxaC0yLjM4VjYuNjdIMjBWNC4yOWgtMi4zOGEyIDIgMCAwIDAtMS45MS0xLjkxVjB6bTEuNTMgMTUuMjRINS4xNGEuMzguMzggMCAwIDEtLjM4LS4zOFY1LjE0YS4zOC4zOCAwIDAgMSAuMzgtLjM4aDkuNzJhLjM4LjM4IDAgMCAxIC4zOC4zOHY5LjcyYS4zOC4zOCAwIDAgMS0uMzguMzh6bS0yLjA3LTYuMTJsLTMuNSA0Ljg2di0zLjYzSDcuMjJsMy42MS00LjgxdjMuNTh6Ii8+JiN4YTs8L3N2Zz4=;imageBackground=none;" parent="7s-kDECO7zZeQJ60G7X3-1" vertex="1">
          <mxGeometry x="19.66" y="254.38" width="40" height="40" as="geometry" />
        </mxCell>
        <mxCell id="7s-kDECO7zZeQJ60G7X3-23" value="" style="endArrow=classic;html=1;rounded=0;entryX=0;entryY=0.25;entryDx=0;entryDy=0;exitX=0.75;exitY=1;exitDx=0;exitDy=0;dashed=1;" parent="7s-kDECO7zZeQJ60G7X3-1" source="7s-kDECO7zZeQJ60G7X3-17" target="7s-kDECO7zZeQJ60G7X3-22" edge="1">
          <mxGeometry width="50" height="50" relative="1" as="geometry">
            <mxPoint x="-280.34" y="179.38" as="sourcePoint" />
            <mxPoint x="-230.34" y="129.38" as="targetPoint" />
          </mxGeometry>
        </mxCell>
        <mxCell id="7s-kDECO7zZeQJ60G7X3-24" value="" style="sketch=0;aspect=fixed;pointerEvents=1;shadow=0;dashed=0;html=1;strokeColor=#666666;labelPosition=center;verticalLabelPosition=bottom;verticalAlign=top;align=center;fillColor=#f5f5f5;shape=mxgraph.azure.server;gradientColor=#b3b3b3;" parent="7s-kDECO7zZeQJ60G7X3-1" vertex="1">
          <mxGeometry x="-410" y="259.38" width="68.73" height="20.62" as="geometry" />
        </mxCell>
        <mxCell id="7s-kDECO7zZeQJ60G7X3-25" value="" style="sketch=0;aspect=fixed;pointerEvents=1;shadow=0;dashed=0;html=1;strokeColor=#996185;labelPosition=center;verticalLabelPosition=bottom;verticalAlign=top;align=center;fillColor=#e6d0de;shape=mxgraph.azure.server;gradientColor=#d5739d;" parent="7s-kDECO7zZeQJ60G7X3-1" vertex="1">
          <mxGeometry x="-150" y="259.38" width="68.73" height="20.62" as="geometry" />
        </mxCell>
      </root>
    </mxGraphModel>
  </diagram>
  <diagram id="bNoLIq-7oS_F8WUe3Mol" name="k8s-gpu">
    <mxGraphModel dx="1843" dy="860" grid="1" gridSize="10" guides="1" tooltips="1" connect="1" arrows="1" fold="1" page="1" pageScale="1" pageWidth="850" pageHeight="1100" math="0" shadow="0">
      <root>
        <mxCell id="0" />
        <mxCell id="1" parent="0" />
        <mxCell id="29P3Dpku9X8P1-j0GrOP-1" value="" style="rounded=0;whiteSpace=wrap;html=1;fillColor=none;strokeColor=none;" parent="1" vertex="1">
          <mxGeometry x="-740" y="110" width="1070" height="260" as="geometry" />
        </mxCell>
        <mxCell id="oPUdoOGDl2e-F4pHBTDO-2" value="k8s node" style="rounded=1;whiteSpace=wrap;html=1;verticalAlign=bottom;fillColor=#f5f5f5;strokeColor=#666666;arcSize=3;spacing=0;fontColor=#333333;" parent="1" vertex="1">
          <mxGeometry x="-435" y="270" width="460" height="70" as="geometry" />
        </mxCell>
        <mxCell id="oPUdoOGDl2e-F4pHBTDO-3" value="" style="rounded=1;whiteSpace=wrap;html=1;arcSize=5;fillColor=#f5f5f5;strokeColor=#666666;fontColor=#333333;" parent="1" vertex="1">
          <mxGeometry x="-435" y="140" width="460" height="130" as="geometry" />
        </mxCell>
        <mxCell id="oPUdoOGDl2e-F4pHBTDO-4" value="k8s control plane" style="rounded=1;whiteSpace=wrap;html=1;fillColor=#ffcd28;gradientColor=#ffa500;strokeColor=#d79b00;verticalAlign=bottom;" parent="1" vertex="1">
          <mxGeometry x="-395" y="200" width="370" height="30" as="geometry" />
        </mxCell>
        <mxCell id="oPUdoOGDl2e-F4pHBTDO-10" value="pod infra" style="rounded=1;whiteSpace=wrap;html=1;fillColor=#d5e8d4;gradientColor=#97d077;strokeColor=#82b366;" parent="1" vertex="1">
          <mxGeometry x="-385" y="150" width="50" height="50" as="geometry" />
        </mxCell>
        <mxCell id="oPUdoOGDl2e-F4pHBTDO-11" value="pod appli" style="rounded=1;whiteSpace=wrap;html=1;fillColor=#dae8fc;gradientColor=#7ea6e0;strokeColor=#6c8ebf;" parent="1" vertex="1">
          <mxGeometry x="-315" y="150" width="50" height="50" as="geometry" />
        </mxCell>
        <mxCell id="oPUdoOGDl2e-F4pHBTDO-12" value="pod infra" style="rounded=1;whiteSpace=wrap;html=1;fillColor=#d5e8d4;gradientColor=#97d077;strokeColor=#82b366;" parent="1" vertex="1">
          <mxGeometry x="-375" y="160" width="50" height="50" as="geometry" />
        </mxCell>
        <mxCell id="oPUdoOGDl2e-F4pHBTDO-13" value="pod appli" style="rounded=1;whiteSpace=wrap;html=1;fillColor=#dae8fc;gradientColor=#7ea6e0;strokeColor=#6c8ebf;" parent="1" vertex="1">
          <mxGeometry x="-305" y="160" width="50" height="50" as="geometry" />
        </mxCell>
        <mxCell id="e1NCE35Qfi6sicEvG2Lq-3" value="container run-time" style="rounded=1;whiteSpace=wrap;html=1;fillColor=#fff2cc;gradientColor=#ffd966;strokeColor=#d6b656;verticalAlign=middle;" parent="1" vertex="1">
          <mxGeometry x="-395" y="230" width="250" height="30" as="geometry" />
        </mxCell>
        <mxCell id="2Htzi-OT8x-1Yr5fYN8u-1" value="&lt;font style=&quot;color: rgb(102, 0, 204);&quot;&gt;&lt;b style=&quot;&quot;&gt;GPU&lt;/b&gt;&lt;/font&gt;" style="editableCssRules=.*;html=1;shape=image;verticalLabelPosition=bottom;labelBackgroundColor=none;verticalAlign=top;aspect=fixed;imageAspect=0;image=data:image/svg+xml,PHN2ZyB4bWxucz0iaHR0cDovL3d3dy53My5vcmcvMjAwMC9zdmciIHhtbG5zOnY9Imh0dHBzOi8vdmVjdGEuaW8vbmFubyIgd2lkdGg9IjIwIiBoZWlnaHQ9IjIwIiB2aWV3Qm94PSIwIDAgMjAgMjAiIHN0eWxlPSJjb2xvci1zY2hlbWU6IGxpZ2h0IGRhcms7Ij4mI3hhOwk8c3R5bGUgdHlwZT0idGV4dC9jc3MiPi5zdDAgeyBmaWxsOiBsaWdodC1kYXJrKHJnYigxNTMsIDUxLCAyNTUpLCByZ2IoNjYsIDEzMywgMjQ0KSk7IH0gPC9zdHlsZT4mI3hhOwk8cGF0aCBjbGFzcz0ic3QwIiBkPSJNMTMuMzMgMHYyLjM4aC0yLjE2VjBIOC44M3YyLjM4SDYuNjdWMEg0LjI5djIuMzhhMiAyIDAgMCAwLTEuOTEgMS45MUgwdjIuMzhoMi4zOHYyLjE0SDB2Mi4zOGgyLjM4djIuMTRIMHYyLjM4aDIuMzhhMiAyIDAgMCAwIDEuOTEgMS45MVYyMGgyLjM4di0yLjM4aDIuMTZWMjBoMi4zNHYtMi4zOGgyLjE2VjIwaDIuMzh2LTIuMzhhMiAyIDAgMCAwIDEuOTEtMS45MUgyMHYtMi4zOGgtMi4zOHYtMi4xNEgyMFY4LjgxaC0yLjM4VjYuNjdIMjBWNC4yOWgtMi4zOGEyIDIgMCAwIDAtMS45MS0xLjkxVjB6bTEuNTMgMTUuMjRINS4xNGEuMzguMzggMCAwIDEtLjM4LS4zOFY1LjE0YS4zOC4zOCAwIDAgMSAuMzgtLjM4aDkuNzJhLjM4LjM4IDAgMCAxIC4zOC4zOHY5LjcyYS4zOC4zOCAwIDAgMS0uMzguMzh6bS0yLjA3LTYuMTJsLTMuNSA0Ljg2di0zLjYzSDcuMjJsMy42MS00LjgxdjMuNTh6Ii8+JiN4YTs8L3N2Zz4=;imageBackground=none;" parent="1" vertex="1">
          <mxGeometry x="-160" y="275" width="40" height="40" as="geometry" />
        </mxCell>
        <mxCell id="nyAcMXQ_-7D0TzTNGrve-2" value="" style="endArrow=classic;html=1;rounded=0;entryX=0;entryY=0.25;entryDx=0;entryDy=0;exitX=0.75;exitY=1;exitDx=0;exitDy=0;dashed=1;" parent="1" source="oPUdoOGDl2e-F4pHBTDO-13" target="2Htzi-OT8x-1Yr5fYN8u-1" edge="1">
          <mxGeometry width="50" height="50" relative="1" as="geometry">
            <mxPoint x="-460" y="200" as="sourcePoint" />
            <mxPoint x="-410" y="150" as="targetPoint" />
          </mxGeometry>
        </mxCell>
        <mxCell id="nyAcMXQ_-7D0TzTNGrve-4" value="" style="sketch=0;aspect=fixed;pointerEvents=1;shadow=0;dashed=0;html=1;strokeColor=#996185;labelPosition=center;verticalLabelPosition=bottom;verticalAlign=top;align=center;fillColor=#e6d0de;shape=mxgraph.azure.server;gradientColor=#d5739d;" parent="1" vertex="1">
          <mxGeometry x="-425" y="282.5" width="83.33" height="25" as="geometry" />
        </mxCell>
        <mxCell id="5mfiykZwnjL3WqlI8Mzf-1" value="k8s-device-plugin" style="rounded=1;whiteSpace=wrap;html=1;fillColor=#e6d0de;gradientColor=#d5739d;strokeColor=#996185;" parent="1" vertex="1">
          <mxGeometry x="-155" y="155" width="55" height="55" as="geometry" />
        </mxCell>
        <mxCell id="5mfiykZwnjL3WqlI8Mzf-2" value="NVIDIA container-toolkit" style="rounded=1;whiteSpace=wrap;html=1;fillColor=#e6d0de;gradientColor=#d5739d;strokeColor=#996185;verticalAlign=middle;" parent="1" vertex="1">
          <mxGeometry x="-145" y="230" width="120" height="30" as="geometry" />
        </mxCell>
        <mxCell id="IF2I07_wyCoqRDpnZ0gW-1" value="GPU Feature Discovery" style="rounded=1;whiteSpace=wrap;html=1;fillColor=#e6d0de;gradientColor=#d5739d;strokeColor=#996185;" parent="1" vertex="1">
          <mxGeometry x="-90" y="155" width="55" height="55" as="geometry" />
        </mxCell>
      </root>
    </mxGraphModel>
  </diagram>
  <diagram name="NVIDIA-install" id="Ew4Vk-crnFhhrFT2cwgW">
    <mxGraphModel dx="2018" dy="1012" grid="1" gridSize="10" guides="1" tooltips="1" connect="1" arrows="1" fold="1" page="1" pageScale="1" pageWidth="850" pageHeight="1100" math="0" shadow="0">
      <root>
        <mxCell id="7xdFLGYp0IINMKElaSPc-0" />
        <mxCell id="7xdFLGYp0IINMKElaSPc-1" parent="7xdFLGYp0IINMKElaSPc-0" />
        <mxCell id="7xdFLGYp0IINMKElaSPc-2" value="" style="rounded=0;whiteSpace=wrap;html=1;fillColor=none;strokeColor=none;" vertex="1" parent="7xdFLGYp0IINMKElaSPc-1">
          <mxGeometry x="-745" y="120" width="1070" height="360" as="geometry" />
        </mxCell>
        <mxCell id="7xdFLGYp0IINMKElaSPc-3" value="k8s node" style="rounded=1;whiteSpace=wrap;html=1;verticalAlign=bottom;fillColor=#f5f5f5;strokeColor=#666666;arcSize=3;spacing=0;fontColor=#333333;" vertex="1" parent="7xdFLGYp0IINMKElaSPc-1">
          <mxGeometry x="-490" y="320" width="515" height="70" as="geometry" />
        </mxCell>
        <mxCell id="7xdFLGYp0IINMKElaSPc-4" value="" style="rounded=1;whiteSpace=wrap;html=1;arcSize=5;fillColor=#f5f5f5;strokeColor=#666666;fontColor=#333333;" vertex="1" parent="7xdFLGYp0IINMKElaSPc-1">
          <mxGeometry x="-490" y="130" width="515" height="140" as="geometry" />
        </mxCell>
        <mxCell id="7xdFLGYp0IINMKElaSPc-5" value="k8s control plane" style="rounded=1;whiteSpace=wrap;html=1;fillColor=#ffcd28;gradientColor=#ffa500;strokeColor=#d79b00;verticalAlign=bottom;" vertex="1" parent="7xdFLGYp0IINMKElaSPc-1">
          <mxGeometry x="-395" y="200" width="370" height="30" as="geometry" />
        </mxCell>
        <mxCell id="7xdFLGYp0IINMKElaSPc-6" value="pod infra" style="rounded=1;whiteSpace=wrap;html=1;fillColor=#d5e8d4;gradientColor=#97d077;strokeColor=#82b366;" vertex="1" parent="7xdFLGYp0IINMKElaSPc-1">
          <mxGeometry x="-385" y="150" width="50" height="50" as="geometry" />
        </mxCell>
        <mxCell id="7xdFLGYp0IINMKElaSPc-7" value="pod appli" style="rounded=1;whiteSpace=wrap;html=1;fillColor=#dae8fc;gradientColor=#7ea6e0;strokeColor=#6c8ebf;" vertex="1" parent="7xdFLGYp0IINMKElaSPc-1">
          <mxGeometry x="-315" y="150" width="50" height="50" as="geometry" />
        </mxCell>
        <mxCell id="7xdFLGYp0IINMKElaSPc-8" value="pod infra" style="rounded=1;whiteSpace=wrap;html=1;fillColor=#d5e8d4;gradientColor=#97d077;strokeColor=#82b366;" vertex="1" parent="7xdFLGYp0IINMKElaSPc-1">
          <mxGeometry x="-375" y="160" width="50" height="50" as="geometry" />
        </mxCell>
        <mxCell id="7xdFLGYp0IINMKElaSPc-9" value="pod appli" style="rounded=1;whiteSpace=wrap;html=1;fillColor=#dae8fc;gradientColor=#7ea6e0;strokeColor=#6c8ebf;" vertex="1" parent="7xdFLGYp0IINMKElaSPc-1">
          <mxGeometry x="-305" y="160" width="50" height="50" as="geometry" />
        </mxCell>
        <mxCell id="7xdFLGYp0IINMKElaSPc-10" value="container run-time" style="rounded=1;whiteSpace=wrap;html=1;fillColor=#fff2cc;gradientColor=#ffd966;strokeColor=#d6b656;verticalAlign=middle;" vertex="1" parent="7xdFLGYp0IINMKElaSPc-1">
          <mxGeometry x="-395" y="230" width="250" height="30" as="geometry" />
        </mxCell>
        <mxCell id="7xdFLGYp0IINMKElaSPc-11" value="&lt;font style=&quot;color: rgb(102, 0, 204);&quot;&gt;&lt;b style=&quot;&quot;&gt;GPU&lt;/b&gt;&lt;/font&gt;" style="editableCssRules=.*;html=1;shape=image;verticalLabelPosition=bottom;labelBackgroundColor=none;verticalAlign=top;aspect=fixed;imageAspect=0;image=data:image/svg+xml,PHN2ZyB4bWxucz0iaHR0cDovL3d3dy53My5vcmcvMjAwMC9zdmciIHhtbG5zOnY9Imh0dHBzOi8vdmVjdGEuaW8vbmFubyIgd2lkdGg9IjIwIiBoZWlnaHQ9IjIwIiB2aWV3Qm94PSIwIDAgMjAgMjAiIHN0eWxlPSJjb2xvci1zY2hlbWU6IGxpZ2h0IGRhcms7Ij4mI3hhOwk8c3R5bGUgdHlwZT0idGV4dC9jc3MiPi5zdDAgeyBmaWxsOiBsaWdodC1kYXJrKHJnYigxNTMsIDUxLCAyNTUpLCByZ2IoNjYsIDEzMywgMjQ0KSk7IH0gPC9zdHlsZT4mI3hhOwk8cGF0aCBjbGFzcz0ic3QwIiBkPSJNMTMuMzMgMHYyLjM4aC0yLjE2VjBIOC44M3YyLjM4SDYuNjdWMEg0LjI5djIuMzhhMiAyIDAgMCAwLTEuOTEgMS45MUgwdjIuMzhoMi4zOHYyLjE0SDB2Mi4zOGgyLjM4djIuMTRIMHYyLjM4aDIuMzhhMiAyIDAgMCAwIDEuOTEgMS45MVYyMGgyLjM4di0yLjM4aDIuMTZWMjBoMi4zNHYtMi4zOGgyLjE2VjIwaDIuMzh2LTIuMzhhMiAyIDAgMCAwIDEuOTEtMS45MUgyMHYtMi4zOGgtMi4zOHYtMi4xNEgyMFY4LjgxaC0yLjM4VjYuNjdIMjBWNC4yOWgtMi4zOGEyIDIgMCAwIDAtMS45MS0xLjkxVjB6bTEuNTMgMTUuMjRINS4xNGEuMzguMzggMCAwIDEtLjM4LS4zOFY1LjE0YS4zOC4zOCAwIDAgMSAuMzgtLjM4aDkuNzJhLjM4LjM4IDAgMCAxIC4zOC4zOHY5LjcyYS4zOC4zOCAwIDAgMS0uMzguMzh6bS0yLjA3LTYuMTJsLTMuNSA0Ljg2di0zLjYzSDcuMjJsMy42MS00LjgxdjMuNTh6Ii8+JiN4YTs8L3N2Zz4=;imageBackground=none;" vertex="1" parent="7xdFLGYp0IINMKElaSPc-1">
          <mxGeometry x="-160" y="325" width="40" height="40" as="geometry" />
        </mxCell>
        <mxCell id="7xdFLGYp0IINMKElaSPc-13" value="" style="sketch=0;aspect=fixed;pointerEvents=1;shadow=0;dashed=0;html=1;strokeColor=#996185;labelPosition=center;verticalLabelPosition=bottom;verticalAlign=top;align=center;fillColor=#e6d0de;shape=mxgraph.azure.server;gradientColor=#d5739d;" vertex="1" parent="7xdFLGYp0IINMKElaSPc-1">
          <mxGeometry x="-478.33" y="332.5" width="83.33" height="25" as="geometry" />
        </mxCell>
        <mxCell id="7xdFLGYp0IINMKElaSPc-14" value="k8s-device-plugin" style="rounded=1;whiteSpace=wrap;html=1;fillColor=#e6d0de;gradientColor=#d5739d;strokeColor=#996185;" vertex="1" parent="7xdFLGYp0IINMKElaSPc-1">
          <mxGeometry x="-155" y="155" width="55" height="55" as="geometry" />
        </mxCell>
        <mxCell id="7xdFLGYp0IINMKElaSPc-15" value="NVIDIA container-toolkit" style="rounded=1;whiteSpace=wrap;html=1;fillColor=#e6d0de;gradientColor=#d5739d;strokeColor=#996185;verticalAlign=middle;" vertex="1" parent="7xdFLGYp0IINMKElaSPc-1">
          <mxGeometry x="-145" y="230" width="120" height="30" as="geometry" />
        </mxCell>
        <mxCell id="7xdFLGYp0IINMKElaSPc-16" value="GPU Feature Discovery" style="rounded=1;whiteSpace=wrap;html=1;fillColor=#e6d0de;gradientColor=#d5739d;strokeColor=#996185;" vertex="1" parent="7xdFLGYp0IINMKElaSPc-1">
          <mxGeometry x="-90" y="155" width="55" height="55" as="geometry" />
        </mxCell>
        <mxCell id="Hhyt4g98-0SHfI-EtzW3-0" value="Kernel" style="rounded=1;whiteSpace=wrap;html=1;arcSize=5;fillColor=#e1d5e7;strokeColor=#9673a6;align=left;verticalAlign=top;" vertex="1" parent="7xdFLGYp0IINMKElaSPc-1">
          <mxGeometry x="-490" y="270" width="515" height="50" as="geometry" />
        </mxCell>
        <mxCell id="Hhyt4g98-0SHfI-EtzW3-1" value="NVIDIA module" style="rounded=1;whiteSpace=wrap;html=1;fillColor=#e6d0de;gradientColor=#d5739d;strokeColor=#996185;verticalAlign=middle;" vertex="1" parent="7xdFLGYp0IINMKElaSPc-1">
          <mxGeometry x="-185" y="280" width="65" height="30" as="geometry" />
        </mxCell>
        <mxCell id="Hhyt4g98-0SHfI-EtzW3-2" value="" style="endArrow=classic;html=1;rounded=0;entryX=0.75;entryY=0;entryDx=0;entryDy=0;exitX=0.25;exitY=1;exitDx=0;exitDy=0;dashed=1;" edge="1" parent="7xdFLGYp0IINMKElaSPc-1" source="7xdFLGYp0IINMKElaSPc-15" target="7xdFLGYp0IINMKElaSPc-11">
          <mxGeometry width="50" height="50" relative="1" as="geometry">
            <mxPoint x="-150" y="350" as="sourcePoint" />
            <mxPoint x="-43" y="475" as="targetPoint" />
          </mxGeometry>
        </mxCell>
        <mxCell id="7xdFLGYp0IINMKElaSPc-12" value="" style="endArrow=classic;html=1;rounded=0;entryX=0.25;entryY=0;entryDx=0;entryDy=0;exitX=0.75;exitY=1;exitDx=0;exitDy=0;dashed=1;" edge="1" parent="7xdFLGYp0IINMKElaSPc-1" source="7xdFLGYp0IINMKElaSPc-9" target="7xdFLGYp0IINMKElaSPc-11">
          <mxGeometry width="50" height="50" relative="1" as="geometry">
            <mxPoint x="-460" y="200" as="sourcePoint" />
            <mxPoint x="-410" y="150" as="targetPoint" />
          </mxGeometry>
        </mxCell>
        <mxCell id="Hhyt4g98-0SHfI-EtzW3-3" value="1&lt;div&gt;&lt;br&gt;&lt;div&gt;Installing CUDA and the kernel module&lt;/div&gt;&lt;/div&gt;" style="shape=step;perimeter=stepPerimeter;whiteSpace=wrap;html=1;fixedSize=1;fontStyle=1;fillColor=#dae8fc;strokeColor=#6c8ebf;fontColor=#000066;" vertex="1" parent="7xdFLGYp0IINMKElaSPc-1">
          <mxGeometry x="-697.5" y="410" width="260" height="60" as="geometry" />
        </mxCell>
        <mxCell id="Hhyt4g98-0SHfI-EtzW3-4" value="CUDA" style="rounded=1;whiteSpace=wrap;html=1;fillColor=#e6d0de;gradientColor=#d5739d;strokeColor=#996185;verticalAlign=middle;" vertex="1" parent="7xdFLGYp0IINMKElaSPc-1">
          <mxGeometry x="-478.33000000000004" y="230" width="65" height="30" as="geometry" />
        </mxCell>
        <mxCell id="Hhyt4g98-0SHfI-EtzW3-5" value="2&lt;div&gt;&lt;br&gt;&lt;div&gt;Installing the Container Toolkit&lt;/div&gt;&lt;/div&gt;" style="shape=step;perimeter=stepPerimeter;whiteSpace=wrap;html=1;fixedSize=1;fontStyle=1;fillColor=#dae8fc;strokeColor=#6c8ebf;fontColor=#000066;" vertex="1" parent="7xdFLGYp0IINMKElaSPc-1">
          <mxGeometry x="-437.5" y="410" width="225" height="60" as="geometry" />
        </mxCell>
        <mxCell id="Hhyt4g98-0SHfI-EtzW3-6" value="3&lt;div&gt;&lt;br&gt;&lt;/div&gt;&lt;div&gt;Installing K3s and joining a cluster&lt;/div&gt;" style="shape=step;perimeter=stepPerimeter;whiteSpace=wrap;html=1;fixedSize=1;fontStyle=1;fillColor=#dae8fc;strokeColor=#6c8ebf;fontColor=#000066;" vertex="1" parent="7xdFLGYp0IINMKElaSPc-1">
          <mxGeometry x="-212.5" y="410" width="255" height="60" as="geometry" />
        </mxCell>
        <mxCell id="Hhyt4g98-0SHfI-EtzW3-7" value="&lt;div&gt;4&lt;/div&gt;&lt;div&gt;&lt;br&gt;&lt;/div&gt;Installing the k8s-device-plugin" style="shape=step;perimeter=stepPerimeter;whiteSpace=wrap;html=1;fixedSize=1;fontStyle=1;fillColor=#dae8fc;strokeColor=#6c8ebf;fontColor=#000066;" vertex="1" parent="7xdFLGYp0IINMKElaSPc-1">
          <mxGeometry x="42.5" y="410" width="235" height="60" as="geometry" />
        </mxCell>
        <mxCell id="Hhyt4g98-0SHfI-EtzW3-9" value="&lt;font style=&quot;color: rgb(0, 0, 102);&quot;&gt;1&lt;/font&gt;" style="ellipse;whiteSpace=wrap;html=1;aspect=fixed;fontStyle=1;fillColor=#dae8fc;strokeColor=#6c8ebf;" vertex="1" parent="7xdFLGYp0IINMKElaSPc-1">
          <mxGeometry x="-480" y="220" width="20" height="20" as="geometry" />
        </mxCell>
        <mxCell id="Hhyt4g98-0SHfI-EtzW3-10" value="&lt;font style=&quot;color: rgb(0, 0, 102);&quot;&gt;1&lt;/font&gt;" style="ellipse;whiteSpace=wrap;html=1;aspect=fixed;fontStyle=1;fillColor=#dae8fc;strokeColor=#6c8ebf;" vertex="1" parent="7xdFLGYp0IINMKElaSPc-1">
          <mxGeometry x="-200" y="300" width="20" height="20" as="geometry" />
        </mxCell>
        <mxCell id="Hhyt4g98-0SHfI-EtzW3-11" value="&lt;font style=&quot;color: rgb(0, 0, 102);&quot;&gt;2&lt;/font&gt;" style="ellipse;whiteSpace=wrap;html=1;aspect=fixed;fontStyle=1;fillColor=#dae8fc;strokeColor=#6c8ebf;" vertex="1" parent="7xdFLGYp0IINMKElaSPc-1">
          <mxGeometry x="-30" y="235" width="20" height="20" as="geometry" />
        </mxCell>
        <mxCell id="Hhyt4g98-0SHfI-EtzW3-12" value="&lt;font style=&quot;color: rgb(0, 0, 102);&quot;&gt;3&lt;/font&gt;" style="ellipse;whiteSpace=wrap;html=1;aspect=fixed;fontStyle=1;fillColor=#dae8fc;strokeColor=#6c8ebf;" vertex="1" parent="7xdFLGYp0IINMKElaSPc-1">
          <mxGeometry x="-212.5" y="190" width="20" height="20" as="geometry" />
        </mxCell>
        <mxCell id="Hhyt4g98-0SHfI-EtzW3-13" value="&lt;font style=&quot;color: rgb(0, 0, 102);&quot;&gt;4&lt;/font&gt;" style="ellipse;whiteSpace=wrap;html=1;aspect=fixed;fontStyle=1;fillColor=#dae8fc;strokeColor=#6c8ebf;" vertex="1" parent="7xdFLGYp0IINMKElaSPc-1">
          <mxGeometry x="-120" y="140" width="20" height="20" as="geometry" />
        </mxCell>
        <mxCell id="Hhyt4g98-0SHfI-EtzW3-14" value="&lt;font style=&quot;color: rgb(0, 0, 102);&quot;&gt;4&lt;/font&gt;" style="ellipse;whiteSpace=wrap;html=1;aspect=fixed;fontStyle=1;fillColor=#dae8fc;strokeColor=#6c8ebf;" vertex="1" parent="7xdFLGYp0IINMKElaSPc-1">
          <mxGeometry x="-50" y="140" width="20" height="20" as="geometry" />
        </mxCell>
      </root>
    </mxGraphModel>
  </diagram>
  <diagram name="dev-env" id="tWgEsTxu2UYzUls1uLbM">
    <mxGraphModel dx="2276" dy="2081" grid="1" gridSize="10" guides="1" tooltips="1" connect="1" arrows="1" fold="1" page="1" pageScale="1" pageWidth="850" pageHeight="1100" math="0" shadow="0">
      <root>
        <mxCell id="mZ2qIeFOlVFqwqRpEA1V-0" />
        <mxCell id="mZ2qIeFOlVFqwqRpEA1V-1" parent="mZ2qIeFOlVFqwqRpEA1V-0" />
        <mxCell id="B9K2bFfrNJuEUVOPIGGN-0" value="" style="rounded=0;whiteSpace=wrap;html=1;fillColor=none;strokeColor=none;" vertex="1" parent="mZ2qIeFOlVFqwqRpEA1V-1">
          <mxGeometry x="-110" y="-1000" width="1070" height="457.5" as="geometry" />
        </mxCell>
        <mxCell id="mZ2qIeFOlVFqwqRpEA1V-30" value="&lt;div&gt;k3s node + GPU&lt;/div&gt;" style="rounded=1;whiteSpace=wrap;html=1;verticalAlign=middle;fillColor=#d5e8d4;strokeColor=#82b366;arcSize=3;spacing=0;" parent="mZ2qIeFOlVFqwqRpEA1V-1" vertex="1">
          <mxGeometry x="310" y="-640" width="272" height="60" as="geometry" />
        </mxCell>
        <mxCell id="zKR1n9wWKZ1pJaulzmO9-0" value="" style="editableCssRules=.*;html=1;shape=image;verticalLabelPosition=bottom;labelBackgroundColor=#ffffff;verticalAlign=top;aspect=fixed;imageAspect=0;image=data:image/svg+xml,PHN2ZyB4bWxucz0iaHR0cDovL3d3dy53My5vcmcvMjAwMC9zdmciIHhtbG5zOnY9Imh0dHBzOi8vdmVjdGEuaW8vbmFubyIgd2lkdGg9IjIwIiBoZWlnaHQ9IjIwIiB2aWV3Qm94PSIwIDAgMjAgMjAiIHN0eWxlPSJjb2xvci1zY2hlbWU6IGxpZ2h0IGRhcms7Ij4mI3hhOwk8c3R5bGUgdHlwZT0idGV4dC9jc3MiPi5zdDAgeyBmaWxsOiBsaWdodC1kYXJrKHJnYig3NywgMTUzLCAwKSwgcmdiKDY2LCAxMzMsIDI0NCkpOyB9IDwvc3R5bGU+JiN4YTsJPHBhdGggY2xhc3M9InN0MCIgZD0iTTEzLjMzIDB2Mi4zOGgtMi4xNlYwSDguODN2Mi4zOEg2LjY3VjBINC4yOXYyLjM4YTIgMiAwIDAgMC0xLjkxIDEuOTFIMHYyLjM4aDIuMzh2Mi4xNEgwdjIuMzhoMi4zOHYyLjE0SDB2Mi4zOGgyLjM4YTIgMiAwIDAgMCAxLjkxIDEuOTFWMjBoMi4zOHYtMi4zOGgyLjE2VjIwaDIuMzR2LTIuMzhoMi4xNlYyMGgyLjM4di0yLjM4YTIgMiAwIDAgMCAxLjkxLTEuOTFIMjB2LTIuMzhoLTIuMzh2LTIuMTRIMjBWOC44MWgtMi4zOFY2LjY3SDIwVjQuMjloLTIuMzhhMiAyIDAgMCAwLTEuOTEtMS45MVYwem0xLjUzIDE1LjI0SDUuMTRhLjM4LjM4IDAgMCAxLS4zOC0uMzhWNS4xNGEuMzguMzggMCAwIDEgLjM4LS4zOGg5LjcyYS4zOC4zOCAwIDAgMSAuMzguMzh2OS43MmEuMzguMzggMCAwIDEtLjM4LjM4em0tMi4wNy02LjEybC0zLjUgNC44NnYtMy42M0g3LjIybDMuNjEtNC44MXYzLjU4eiIvPiYjeGE7PC9zdmc+;" parent="mZ2qIeFOlVFqwqRpEA1V-1" vertex="1">
          <mxGeometry x="536" y="-630" width="40" height="40" as="geometry" />
        </mxCell>
        <mxCell id="mZ2qIeFOlVFqwqRpEA1V-2" value="" style="rounded=1;whiteSpace=wrap;html=1;" parent="mZ2qIeFOlVFqwqRpEA1V-1" vertex="1">
          <mxGeometry x="440" y="-970" width="170" height="110" as="geometry" />
        </mxCell>
        <mxCell id="mZ2qIeFOlVFqwqRpEA1V-3" value="" style="rounded=1;whiteSpace=wrap;html=1;arcSize=3;fillColor=#f5f5f5;strokeColor=#666666;fontColor=#333333;verticalAlign=bottom;" parent="mZ2qIeFOlVFqwqRpEA1V-1" vertex="1">
          <mxGeometry x="310" y="-840" width="271" height="200" as="geometry" />
        </mxCell>
        <mxCell id="mZ2qIeFOlVFqwqRpEA1V-4" value="control plane" style="rounded=1;whiteSpace=wrap;html=1;fillColor=#ffcd28;gradientColor=#ffa500;strokeColor=#d79b00;verticalAlign=middle;" parent="mZ2qIeFOlVFqwqRpEA1V-1" vertex="1">
          <mxGeometry x="320" y="-705" width="243" height="30" as="geometry" />
        </mxCell>
        <mxCell id="mZ2qIeFOlVFqwqRpEA1V-5" value="code-server pod" style="rounded=1;whiteSpace=wrap;html=1;fillColor=#dae8fc;strokeColor=#6c8ebf;verticalAlign=top;arcSize=6;align=left;" parent="mZ2qIeFOlVFqwqRpEA1V-1" vertex="1">
          <mxGeometry x="326" y="-830" width="230" height="130" as="geometry" />
        </mxCell>
        <mxCell id="mZ2qIeFOlVFqwqRpEA1V-6" value="container" style="rounded=1;whiteSpace=wrap;html=1;arcSize=4;fillColor=#dae8fc;strokeColor=#6c8ebf;gradientColor=#7ea6e0;verticalAlign=bottom;" parent="mZ2qIeFOlVFqwqRpEA1V-1" vertex="1">
          <mxGeometry x="336" y="-810" width="140" height="100" as="geometry" />
        </mxCell>
        <mxCell id="mZ2qIeFOlVFqwqRpEA1V-7" value="&lt;font style=&quot;&quot;&gt;code-server&lt;/font&gt;" style="rounded=1;whiteSpace=wrap;html=1;verticalAlign=top;fillColor=#f5f5f5;strokeColor=#666666;gradientColor=#b3b3b3;align=right;" parent="mZ2qIeFOlVFqwqRpEA1V-1" vertex="1">
          <mxGeometry x="346" y="-800" width="110.25" height="70" as="geometry" />
        </mxCell>
        <mxCell id="mZ2qIeFOlVFqwqRpEA1V-8" value="" style="shape=image;aspect=fixed;image=data:image/png,iVBORw0KGgoAAAANSUhEUgAABQAAAAMQCAYAAAB44shWAAAABGdBTUEAALGPC/xhBQAAACBjSFJNAAB6JgAAgIQAAPoAAACA6AAAdTAAAOpgAAA6mAAAF3CculE8AAAABmJLR0QA/wD/AP+gvaeTAAAAB3RJTUUH6AcEEAgHQRrE0wAAgABJREFUeNrs3XmcHHWd//H3t7pnMjkmCae3aEREY0KmqycxsmpUXAXB1V3Dugoox4JyBVQOFSUoKKwHhyKHXIIoEl0VENefyAaVxWS6ehCMeES8uK9k7r6qPr8/Mknmzhw9Pd3Vr+c+dpd09/TxqfpWV737ezgBAAAAAMqmpaXlAM/zTpL0T5IWSdoi6c+Svi3p5iAIOqgSAKCSHCUAAAAAgKlbtWpVsqur63xJZ43xsC2SLuro6Lhk8+bNeaoGAKiEBCUAAAAAgCnz9thjjx9JOnoXj5st6aCmpqb3vehFL3rssccee4jSAQCmGz0AAQAAAGCKfN8/S9KFk/jTXznnPpbJZDZSRQDAdCEABAAAAIApWLly5exCofCIpN0n+RQm6Xue553d1tb2MBUFAJSbRwkAAAAAYPKKxeK/aPLhn7StY8bqKIo2+b5/oe/7C6gqAKCcCAABAAAAYArM7DVleqombVtA5GHf989avHhxI9UFAJQDASAAAAAATIGZvajMT7m7pAubmpp+k0qlDqPCAICpIgAEAAAAgClwzk3XddX+zrnbfN+/2/f9FJUGAEwWASAAAAAAVLc3S8r4vn/rsmXLXkY5AAATRQAIAAAAANXPSVqdSCQ2+b5/4YoVK+ZTEgDAeBEAAgAAAEDtmCPprFKp9Gff99esWrUqSUkAALtCAAgAAAAAtWdPSZd0dXU9mEqlDqUcAICxEAACAAAAQO3a3zl3eyqV+llLS8sBlAMAMBICQAAAAACocc65gzzPy6ZSqRt9338BFQEADEQACAAAAAAxub5zzh0p6U++71944IEHNlMSAIBEAAgAAAAAcTNX0lm5XO6hVCp1/OrVqxOUBADqGwEgAAAAAMTTi5xzVz388MO/SafTB1MOAKhfBIAAAAAAEG+LzezOVCr1s3Q6/VrKAQD1hwAQAAAAAOqAc+4gM2tPp9NXrVix4nlUBADqBwEgAAAAANSPpJkdXyqVNqfT6bWrVq1qoiQAEH8EgAAAAABQf+aZ2bldXV1/SqVSx3NtCADxxkEeAAAAAOrXi51zV6XT6Q0tLS1vpBwAEE8EgAAAAABQ58ws7XnePb7v355KpfalIgAQLwSAAAAAAIDtDnXO/S6dTl/V0tKyF+UAgHggAAQAAAAADNRgZsd7nvcH3/fP2nfffWdREgCobQSAAAAAAICR7CbpwgULFvwxnU4fJclREgCoTQSAAAAAAICxvNTMvun7/n3pdPpAygEAtYcAEAAAAAAwHivM7Je+79/a2tq6iHIAQO0gAAQAAAAAjJeTtDqKood837902bJlCykJAFQ/AkAAAAAAwEQ1Sjo1kUj82ff9sxYvXtxISQCgehEAAgAAAAAma3dJFzY1NT3o+/5qygEA1YkAEAAAAAAwVftJutX3/bt9309RDgCoLgSAAAAAAIByebOkjO/7ty5btuxllAMAqgMBIAAAAACgnJyk1YlEYpPv+xeuWLFiPiUBgJlFAAgAAAAAmA5zJJ1VKpX+7Pv+mlWrViUpCQDMDAJAAAAAAMB02lPSJV1dXQ+mUqlDKQcAVB4BIAAAAACgEvZ3zt2eSqV+1tLScgDlAIDKIQAEAAAAAFSMc+4gz/OyqVTqRt/3X0BFAGD6EQACAAAAACp+LeqcO1LSn3zfv/DAAw9spiQAMI0HXUoAAAAAAJghcyWdlcvlHkqlUsevXr06QUkAoPwIAAEAAAAAM+1FzrmrHn744Y2pVOoNlAMAyosAEAAAAABQLVLOuXt83/+67/tzKAcAlAcBIAAAAACgmjhJH5F074oVK15MOQBg6ggAAQAAAADVaFmpVPrflpaWvSgFAEwNASAAAAAAoFrt63ne91etWpWkFAAweQSAAAAAAIBq9oaurq6zKQMATB4BIAAAAACg2p3j+/5LKQMATA4BIAAAAACg2s2S9AnKAACTQwAIAAAAAKgFRy5dunQuZQCAiSMABAAAAADUgrkNDQ2HUAYAmDgCQAAAAABArfgnSgAAE0cACAAAAACoFSlKAAATRwAIAAAAAKgVz6MEADBxBIAAAAAAgFqxkBIAwMQRAAIAAAAAakWCEgDAxBEAAgAAAAAAADFGAAgAAAAAAADEGAEgAAAAAAAAEGMEgAAAAAAAAECMEQACAAAAAAAAMUYACAAAAAAAAMQYASAAAAAAAAAQYwSAAAAAAAAAQIwRAAIAAAAAAAAxRgAIAAAAAAAAxBgBIAAAAAAAABBjBIAAAAAAAABAjBEAAgAAAAAAADFGAAgAAAAAAADEGAEgAAAAAAAAEGMEgAAAAAAAAECMEQACAAAAAAAAMUYACAAAAAAAAMQYASAAAAAAAAAQYwSAAAAAAAAAQIwRAAIAAAAAAAAxRgAIAAAAAAAAxBgBIAAAAAAAABBjBIAAAAAAAABAjBEAAgAAAAAAADFGAAgAAAAAAADEGAEgAAAAAAAAEGMEgAAAAAAAAECMEQACAAAAAAAAMUYACAAAAAAAAMQYASAAAAAAAAAQYwSAAAAAAAAAQIwRAAIAAAAAAAAxRgAIAAAAAAAAxBgBIAAAAAAAABBjBIAAAAAAAABAjBEAAgAAAAAAADFGAAgAAAAAAADEGAEgAAAAAAAAEGMEgAAAAAAAAECMEQACAAAAAAAAMUYACAAAAAAAAMQYASAAAAAAAAAQYwSAAAAAAAAAQIwRAAIAAAAAAAAxRgAIAAAAAAAAxBgBIAAAAAAAABBjBIAAAAAAAABAjBEAAgAAAAAAADFGAAgAAAAAAADEGAEgAAAAAAAAEGMEgAAAAAAAAECMEQACAAAAAAAAMUYACAAAAAAAAMQYASAAAAAAAAAQYwSAAAAAAAAAQIwRAAIAAAAAAAAxRgAIAAAAAAAAxBgBIAAAAAAAABBjBIAAAAAAAABAjBEAAgAAAAAAADFGAAgAAAAAAADEGAEgAAAAAAAAEGMEgAAAAAAAAECMEQACAAAAAAAAMUYACAAAAAAAAMQYASAAAAAAAAAQYwSAAAAAAAAAQIwRAAIAAAAAAAAxRgAIAAAAAAAAxBgBIAAAAAAAABBjBIAAAAAAAABAjBEAAgAAAAAAADFGAAgAAAAAAADEGAEgAAAAAAAAEGMEgAAAAAAAAECMEQACAAAAAAAAMUYACAAAAAAAAMQYASAAAAAAAAAQYwSAAAAAAAAAQIwRAAIAAAAAAAAxRgAIAAAAAAAAxBgBIAAAAAAAABBjBIAAAAAAAABAjBEAAgAAAAAAADFGAAgAAAAAAADEGAEgAAAAAAAAEGMEgAAAAAAAAECMEQACAAAAAAAAMUYACAAAAAAAAMQYASAAAAAAAAAQYwSAAAAAAAAAQIwRAAIAAAAAAAAxRgAIAAAAAAAAxBgBIAAAAAAAABBjBIAAAAAAAABAjBEAAgAAAAAAADFGAAgAAAAAAADEGAEgAAAAAAAAEGMEgAAAAAAAAECMEQACAAAAAAAAMUYACAAAAAAAAMQYASAAAAAAAAAQYwSAAAAAAAAAQIwRAAIAAAAAAAAxRgAIAAAAAAAAxBgBIAAAAAAAABBjBIAAAAAAAABAjBEAAgAAAAAAADFGAAgAAAAAAADEGAEgAAAAAAAAEGMEgAAAAAAAAECMEQACAAAAAAAAMUYACAAAAAAAAMQYASAAAAAAAAAQYwSAAAAAAAAAQIwRAAIAAAAAAAAxRgAIAAAAAAAAxBgBIAAAAAAAABBjBIAAAAAAAABAjCUpAUZy4IEHNhcKhVeY2QvNbK6ZPWtmTyxYsOCP69evL1EhAAAAAACA2kAAiB1SqdS+nucdYWbvzuVyr5WU2H6fc07OOXV1dfX6vv9r59ytZnZLEAQdVA4AAAAAAKB6EQBCra2ti8zsPDP7DzNL7OLhcyS9xczeIukLvu9fXCwWv/LAAw/0UEkAAAAAAKaf7/t7OueWm9kSSXuaWbNzbqukR6Mo+k0YhgHX6RjIUYL6deCBBzbncrlPSjpd0qwpPNUjZnZ2Npv9tiSjsgDqzYdvPHLv3nzvx2c1Nrwl6RIv8xLebDklSqVSrhRZZ2dP9/+FBft1omPO19etXVegYgAQuwvx6yV9iEpUxHNBEOxBGVCPVq1alezs7Hyfc+5oSW/SgFF7I+iVdIdz7opMJrOe6oEAsD55qVTqKOfc5yW9oIzP+2vn3JpMJrOREgOoBx+48r1vnTOn4evNTbP3S3jb1tUykwb+FmKSisVQ3V05RVEU9ZTyv8jlomNuP+P2v1BBAPVu2bJlL/M870DnXIukvSTNltQn6Wkzuz+RSPxfW1vbw9X+OQgAK4oAEHXJ9/3Vki6Q9MpJ/PkvnXMf51q9vhEA1pl0On2gpEvMLD1NL2GSboqi6BPt7e2PUXEAcfTvl737FfMXzv7BgjlzljjnBvV9HikAlEm9vXnl8yU5SaEi68n33Znvc/9x21m3dVFRAPVk8eLFjbNmzfqg53nHj/OcNCvpGx0dHddv3rw5X6UX5gSAlUMAiHq7hm/pv4Z/Yxmu1b8p6ZNBEDxOZesPAWCdaG1tfUkURRdJel+Ftnu3mX1h/vz5X1m/fn2OLQAgDj50/YeanOv+xm5zm9+f9BKeDTyd2v6fowSAZqaOjj6ZmVz/UbgQlkrdhdxlPzj1jo/LMYUCgPhfe/i+/x+SPi9pn0n8/T8kfToIghtVZdPOEABWFAEg6sLSpUv3bmhoOF/SsZK8Mj51l6QLOjo6LqnWH1UwTV/ClCDefN+fI+kUSedImjcDb+ER59ynMpnMTWJ+QAA17IPXvvdj8+fOPn92Y2OTJMkGJHbjCAAlKZ8vqrd32xSAbsA3cL5U3NJX6PvP75925/epNIA4SqVSvnPuEkn/VIanCySdFgTBr6ronJsAsHIIABH3a/gGSSdKOk/Sgml8qc3a1htwHVWvDwSA8T7ROsw5d5mkl1XB29kgaU0QBBvYMgBqyQevee9bZ89uvGH+nNkvHvQzxiQCQMnU2ZlTGEbbvoAHfAubTD2F3O8Lee9ffvCxH/yRygOIyYXsC5xza83sWI09Wf1EmaTvRVF0Rnt7+9+q4HMSAFYOASBiq7W19aAoii6RtLiCL3t3/1z+v2ULxBsBYDxPtFKSLlV5fmEtp8jMbm5oaDhjw4YNT7KlAFSzI298z96zrOHW3Zrnvclt765XhgCwWIrU3ZXb+SU85Js4tMh6ivk7cg3R+24/4fZetgSAGj0f3d6D5bOS5k/jS/VK+moulzt/06ZN3TP4eQkAK4cAELGzfPny/cIw/Iqkd87QWyg5564zs08FQfAMWySePEoQqxOtF6TT6askbVT1hX+S5DnnjiyVSn9Op9Nr991331lsNQBVx+Qdc8O/XbXX7AWP77Gg+U2eK+9vZcmkp8bGRP9LDZdwnpvfOPuw3aOmLf962TsvYIMAqDWpVOowSQ9JukTTG/5J0hxJZzU1NT2UTqePEh0cANSQZcuWLfR9/8IwDB/UzIV/kpQ0s+Ml/cH3/TWrV69OsHXihy/IGFi8eHFjU1PTRzT9v7CWG3MOAKgqR1777g8tnDfvsjmzGpt3fEWaRuzpN9kegCYpCk1dnX07bh4tY3Ry6i3lnukJC0f86JQf/5QtBKCa+b6/v5l9xTl38Ay+jY1mtiabzf66wp+dHoCVQw9AxIGXTqePMLMvStq7Ct/f/VEUrWlvb/8Fmyo+CABrXP88f5dIWlTDH+NubZvI+UG2KICZ8MEb3unPbmi+dcG8OduOpTbgK3IaAkCZlMsVlcsVd34Zu5G/pl3/X/UU87/tiUrvuv2U2//CFgNQTVauXLl7oVA4V9uG/Car4C2ZmX0rkUic2dbW9kQlXpAAsKIIAFHT0un0KjO7RNIBNfB27wjD8JT777//r2y52kcAWKNSqdSrPc/7ipm9IyYfqeScuy4Mw3Pa29ufZgsDqITV17x99/lN87+1e/PcdyTkucGB3vQGgDJTZ1deURRt+0J2o39Vb78vjKKoK9/3Pff8WUeuO3xdgS0IYCatWrUq2dnZeYxz7nxJe1XhW+xxzn1p3rx5F65fvz43nS9EAFhRBICoSa2trS8Jw/AC59yRNfbW+yRdNtNzrWLqCABrzIBfWE9SeVdSqxZbJF2Uy+Uu3rRpExe3AKbNB2947+f2mD/n7MZkcltvlWFB3zQHgJKKxZJ6enYe6sYaCjzwGzsflnI9ud5z/vu0H3+ZLQlgJrS0tLzV87yLJS2pgbc77dPOEABWFAEgaorv+3Occ2ea2VmSmmr4ozzqnPtkJpO5SSNPZY0qRwBYOweN7SuprZW0sA4+8h8kfSwIgh+z9QGU0wev+7f/aJ7XeMW82bMXDA70Kh8ASlJ3d06lUrTzS3mcIaAk9ZXyT/blc4f/92l3Mj8LgIpIpVL7Ouc+L2l1Db79u83s9Gw2+8A0nKsTAFYOASBqhfN9/72SviTppTH6XBskrQmCYAObuMZ2SEpQ/VpbWw+KougSSYvr7bOb2V2JROK0tra2TewJAKbiQ1f+2ytnzU+s27157gG2/SuwCgLAMIrU1Zkb/MU8xnyAQ++LzNRb6AtCVzx03Ul3PsGWBjAdli5dOrexsfEMMztb0qwa/iiRmd1sZh8r57QzBIAVRQCIqtfS0pJ2zl3qnHt9TD9iZGY3l0qljz/wwANPscVrAwFgFVu+fPl+YRh+RTO7HHg1KEq6QtJngiDoYM8AMBGH3X7YnOdtnfWt3ebPeXcykXA7A73qCABNUq6voHy+tPPLeRzzAQ4VWhT2FHpvvHXv2/9ThytkywMo1/VCOp0+0swukvT8GH2usk47QwBYUQSAqFotLS0vTCQS55rZcZK8OvjIWyVdyBReNfKFTgmqz5IlS3ZrbGw8S9LpkhqpyA7PSvrcokWLvrZu3ToubgHs0gdv+Nczd29u+mzTrFk7e6tUYQBoJnV39SmKdt7hJjAUeOCXej4q9fTl8h9dt+a2q9kDAExFOp1ebmaXSnpdjD9mWaadIQCsKAJAVJ3Fixc3NjU1fUTS5yQ112EJ/uicOz2TydzJ3lC9CACryKpVq5JdXV3HS/qsJL7URne/53mntbW13UMpAIzkiOvf844F82Z9s3lO097OhnzdVWEAKEmFfEl9fYXBX9CTDAHlpN5i/pHOYt/q20/9ya/ZIwBMhO/7L3XO/ZeZHV4v1wvOudtLpdLH7r///j9NsmbfkvQB9p6KIABEVUmn0+81sy9Kelm918LMbpP0sWw2u5k9owq/6yhBdeif5+9iSa+lGuP2vUQicebGjRv/QikASNKR3zjs5U3zGr+9W/Pc13nOSXKqlQBQZuruySvsXxBkxzuYwHyAg25ykpmpO5e7J1fSu394+g+3socAGMuAlSrPkDSnDktQkHSZpPMnOu2M7/u/knQge1FFEACiKrS0tBzged4lklZRjUHyki5pamq64N577+2iHNWDAHCG1fhKatVyonZlMpn89IYNGzopB1CfVq1dlVz0it0v323+nOMakp638+uttgLAUilST09+8Bf1FHoBbleKorC30Hftd0++7QT2FgCjnJMe5py7TPRgkSY47Yzv+y+Q9DdJDZSuIggAMaNWrly5e6FQOFfSSZISVGRUj5vZ2mw2e42kiHLMPALAGbJixYr5YRieY2ZrxDx/5fCYc+4TmUzmpiGX6ABi7oM3vOf0BfNnfX72rMamnV9stRkAmqS+3oKKxcHXm1MPAbf9R76U39pbLB7/vVNuW8eeA0CSUqmU75y7VPReG0l7FEWntbe3/2KsB/m+f7Ok91OuiiEAxIzwfb/BOXeymX1G0kIqMm4bJK0JgmADpZhZBICV56XT6aPN7AJJz6McZbex/0TtPkoBxNv7rjtkxYJ5s7+9cN6cRZIkGxj91W4AaGbq7sr1P8+AL+sJDgUe/nduxzvoK+QfzkXFd33/5Ns3sScB9am1tfX5YRhe4Jz7kOpjpcqpWBeG4Zn333//Xwfe2D/p/8WSTqREFUUAiIpLp9MHm9lXJO1PNSbFJN0o6RNBEDxOOWYGAWAFpVKpNzjnLpGUohrTfnD5djKZPHvDhg2PUA4gXo688T17NyR06+4L5rzJ89z2CCw2AaC0bUGQXK44/At7MvMBupG/9s0i6y7m/qe36+l/v+0s5mcB6sW+++47a+HChWvM7FOS5lORcStI+pGkX5pZl+d5rzGz90t6EaWpOAJAVEw6nX5Vf/B3CNUoiy5JF3R0dFyyefPmPOWoLALAClixYsWLi8Xi551zR1DziuqV9NVcLnf+pk2buikHUONM3pE3veuyPRbO+XBjMpHYGfXFLwA0ST3deUXh4OlSyjEf4MB/OElFCwu9udxXvnvKjz7BTgbEW/+ic5dJejXVQA0jAMS0W7Zs2cJEInG2pNMkzaIiZfdnbesNyLQ0FUQYNY0GrKR2pqTZVGTGPOqc+yTzAwK16wPffNcHFzTP+urc2Q3NbkdwF98AUJJKxVC9vYXhX9xlmg9w6E25YuG5nmL+2O+fcvsP2eOAeKEHC2KGABDTyUun00eY2X+JKbsq4W5JpwVB8CClmH4EgNNUV9/33yvpi5L2oRxVg/kBgRrzvu8c3NLsmr67YEHTK93AwK8OAkCZ1NubV6kUDf/iLtN8gENvMkm9+dxvLe/+5dunf/9h9kCgti1ZsmS3xsbGtdo2R12SiiAmCAAxLVpbW98URdElkpZRjYoqOeeuM7NPBUHwDOWYPgSAZdbS0pL2PO8SsZJatTIz+1YikTizra3tCcoBVKfV17x993nzZn1r4fzZ70g6zw0OrOonAAyjSD09BQ1aEUS7CAEnORR44H2hRdaV6/vh86LCf3z11J8wPwtQY1atWpXs7Ow8xjl3vqS9qAhihgAQZcWUXdXTtiV9dtGiRV9bt25dSDnKj527TFpaWl6YSCTONbPjxEpqtaDHOfelefPmXbh+/foc5QCqx5HfOvRzu82ffXZjYyI5UoBXTwGgScrnCioUhp8DTcd8gEP/rlAq9fUW8p+69ZQfXcyeCdSGVCr1lv5F55ZQDcQ1JCAARDkwZVfVekjbhgX/P0pRXgSAU7R48eLGpqamj0j6nKRmKlJz/uGcOyeTydxIKYCZdcQNh/1H8/yGK+bOaVgwVoBXbwGgWaSe7vzQToDbPsE0zQc4VF+x8GQuyv/7uhNvv4c9FahOqVRqX+fc5yWtphqIOQJATBVTdtWGOxKJxKkbN278C6Uo045PCaZ0onWYc+5SSS+nGjXvf6MoOr29vf03lAKorA9df+grvTneut0WNB3gBgR32/9/vQeAkqlYCJXLFYZ9bU9mPkA3+n+MGQJKpp58IQhnFd91y7G3PcaeC1SHpUuXzm1sbDzDzM6S1ERFUAcIADGVa3i//xqeKbtqQ5+ky3K53PmbNm3qphxTQwA4Cel0ukXSJWb2RqoRK5GZ3VwqlT7+wAMPPEU5gOl12O2Hzdm92761cEHTu5MJz8kGhHkEgIMCQEnq68mrFA7vBujc6F/xrkxDgQfWtaQw7O3ru/HxxR3Hr3/z+hJ7MjBz5/HpdPpIM7tI0vMpB+oIASAmzPf9Fzjn1jJlV8161Dn3yUwmc9OQM3JM5MSBEozf8uXL9wjD8DOSTpKUoCKxtVXShR0dHZds3ryZye+BafCBGw8+c+HC2Z9tmpWYNTBoIwAc6f1s+79hKVJvb37Er+5KzAc4qLZOypdKPb35vo/fesptV7JHA5XV2traamaXmtlKqoE6RACIcRswZddnJc2nIjVvo6RTgyDYQCkmjgBwHHzfb5B0oqTzJC2gInXjj5LOCYJgHaUAyuMD3zr4n+fOabxp3tyGvXdGdwSA2/9wrABQJuVyBRWLocY/FLj88wEODAElqTef/1uxVHjvLafclmEPB6bXAQcc8KJEIvEFVqpEnSMAxLj0T9l1iaRFVCNWIjO7uaGh4YwNGzY8STnGjxOHXWhtbT0oiqJLJb2GatQnM7vL87zTM5nMb6kGMDnvv+aQfRqbvVsWLmx8nee8HQEbAeDEAsDIpN7uXP+zzNx8gENDwMgidedy9zhXeM+3T/zxFvZ4oLxWrlw5u1AonCrpHEnzqAjqHAEgxuT7/v7OuYvN7B1UI9a2Srowl8tdvGnTpgLl2DUCwFGk0+lXmdlXJB1CNSCp5Jy7zsw+FQTBM5QDGJ9Va1cl93nV7MvnL2g6Lpn0vB3BEQGghv3pOAJAk1QolFTIFzWRocDTNR/g0PvCKCx15/JX3XLSD06RY34WoBz6e7BcJullVAOQRACIUaxcuXL3QqFwrraN3ktSkbrxR0kfDYLgx5RibASAQyxZsmS3xsbGtRw0MNoJh6TPNjc3X75+PZPfA2N5/43vOH3BbrMuaJqVmL39K4cAcOoBoMzU21tQFEWanvkAx9ezcLQQUJIKxWJnb6l44ndP+sHNtARgcnzfT0m6RNIbqAYw+HycABADrVq1KtnZ2XmMc+4CSXtSkfpkZneZ2Zr29vbfUY0xzvkx6KBxvqS9qAh24ffOuY9mMpmfUApgsPdd988r5ixo+Pb8+Y2L3KCQjQCwLAGgpFIpUq4vP+JX+UzOBzjkNEw9+fzD+WLpsHWn/ogTMWCcWHQO2CUCQOzQ0tLyVs/zLpH0WqoBSUVJVySTyU9v2LChk3KMdO7OQeOtnuddLGkJ1cAE3SHptCAI/kwpUO9WX3fwXnPnat38hY1v8jyv/0uGAHA6AkBJ6uvLKyxFI36dT8t8gGMGh27U54ucWXcu9/Puzif/9baz7u2ipQAjY9E5YNwIAKFly5a9MpFIXCBpNdXACB43s7XZbPYaSRHlGOmKgYMGMBlFSVdI+kwQBB2UA3XH5B1xyzu+tGBBwykNDYnkwK8XAsDpCwCjKFJvT6H//ukYCjy07ppwL8CBWWIxCgu9+dyXv3PiDz9JowEGY9E5YEIIAOvY4sWL582ePfvjZna2pFlUBLsQOOfWZDKZeylFnQaAHDQwTZ6V9LlFixZ9bd26dSHlQD14/81vP3Jec/Ly2XOSzSMFeASA0xcASqZ8rqRisTTqV7qrgqHAQ/+ur1h4rjefP3rdKbfdRgtCvWPROWBSCADrk5dOp48ws/+S9DzKgQkwSd+T9PEgCP5ez4WotwCQgwYqIRtF0ent7e2/oBSIq/d956CWOY2NN89bkHj1tgDOiQCw/z8rGABGkdTbm9/+oirHUODhfze1EHCkDoUmU08u/9sop3/59unff5gWhXrTv+jcWZJOl9RIRYAJIQCsM77vr5B0qaQVVANT0Ouc++K8efMuXL9+fa4eC1A3AWA6nV5lZhdLWsZ+jwq5I5FInLpx48a/UArExYmXr5rXvWfTjc27Jd+d9Dw36OuEAHDbf1YwADSTisVQhVxxwqv47nI+wAkOBd553+jzAQ59ztAi6+7r+2Fpr+T71h2+rkALQx3Y/mP0FyXtTTmASSEArBMrVqx4cbFY/Lxz7gixfgHK5x/OuXMymcyN9fbBY9+IWltbXxKG4QUcNDBD+iRd1tTUdMG99zL5PWrbB77zz5+bvzB5dkNjIjk4rOv/OiEA3PafFQ4AJamvt6Aoikb9aq+2+QCH3loslXK9hcI53znpv79MS0Nc+b7/ZkmXSFpKNYApIQCM//FyjqRTJJ0jaR4VwTS5W9sW9HywXj5wbAOxpUuXzm1sbDzDzM6S1MS+jRn2mJmdxypEqEVH3HTQO5vmN9wwZ15izx1fHQSAVRUARpGptzc/0mDdnbdU4XyAg/cLqa9YeLK3kDv81pNvYwoFxMaAH6OPpBpAWRAAxjif8H3/vZK+KGkfyoEKKDnnrjOzTwVB8EzsG1iMDxpfkvRS9mdUEzNrSyQSp7W1tf0f1UC1++ANB7/CNUffb16YPGDbF8aAcI4AsKoCQEnK54sqFsIBQV9tzAc4dIuZmXqKuSBX8g5dd9K6J2iJqFX8GA1MGwLAGEqlUr5z7hJJ/0Q1MBPHFUmfjfuCnrEKAFtbW1vDMLzEOfd69l9UMVYhQlU77HZ/zvzePa+fv5u3Opl0bmewRgBYzQGgmdTTk9v2eUdJ9MYMAcs4FHjnfeOfD3DofaUoCntyfTcW90z+57rDWVkdtXV+3f9j9JclvYRyAOW/UCcAjA/f91/gnFtrZsdKSlARzLCHzOz0bDb701ieoMThQxxwwAEvSiQSX2CeP9SYul+FCNXnA99965lzmxs+29jkzdpxMCUArIkAUJIKhVCFfHHUXoBS9c8HOPS+fKnY09vbd/otp972DVooql1ra2urmV1qZiupBjBtCABjwPf9BkknSvqspPlUBFUmlgt61nRYtnLlytmFQuFUSZ+S1Mw+ihr1iHPuU5lM5iYNvb4HKuSIb//z2xrn6Jtz5idesP3rgQCw9gJAM6mvN68osmkOAad/PsCh9/UUcn/rK5X+bd2JPwxosag2LS0tL3TOXciP0UBFEADWuFQqdZhz7mJJr6AaqGKxW9CzZk9Q+g8al0l6Gfsl4sDM7umfH/B+qoFKef/Nb9mnYXbilrkLE6/zBn0tEADWagAYhaH6+orbPmEZ5wN0o//HtM0HOPRvIjN19fXeU0wk/2XdCes6aMGYafwYDcwIAsAa5fv+/mb2FefcwVQDNeRR59wn49Bhp+YCQN/3U5IukfQG9kPEUGRmNzc0NJyxYcOGJykHpsvatWuTm1/zq8vnLUwcl2iQNzwoIwCs1QBQMuVzRZVK0YAwb/y9AMs9H2C5hgIP/GcpDEvd+dxV3z7xByfTmjFT+n+MvlTSy6kGUFEEgDVmyZIluzU2Nq7VtiG/SSqCGrXRzNZks9lf1+oHqJkA0Pf9PSV9WtJJYnJQxF+3c+7LW7du/cLmzZvzlAPl9P5b3r5m3nz7QsNsN3vg1wEBYHwCQDOprycvk2p2PkA3xtnK9n/mCoUt3WHhP2/9yA+/T8tGpaTT6RZJl5jZG6kGMCMIAGvEqlWrkp2dncc4586XtBcVQQzUdIedqg8AmRwUdW6zpE8GQbCOUmCqPvCtt7Y2NidumTPfLRrp64AAMD4BoCQVi6EK+dK2TzrhocDVPR/gwH+apJ587k9F2bu+c8L3f09Lx3RZvnz5HmEYfkb8GA3MNALAGtDS0vJWz/MulrSEaiCGtkq6sKOj45Ja6rBT1QEgk4MCO9wt6bQgCB6kFJio/7jqsD0b9sx/b+5Cvcnz3KhfBwSA8QoAZabevqIs6v+0tTAf4ASGAg++zym0yLpyfXd0ueL7bj/h9l5aPsplwI/R50laQEWAGUcAWN3X8Ps65z4vaTXVQB34o6SPBkHw41p4s1UZAPq+v79z7mIzewf7E7BDyTl3XRiG57S3tz9NObBLJu+I7/3zl+Yt0CmJBpfc1dcBAWDMAkBJpVKkfG7sBUEG3zfCflHl8wEO/RCFsFToyfVe8J0Tf/RZDgKYqtbW1oOiKLpE0mKqAVQNAsAqtHTp0rmNjY1nmNnZkmZREdTVZZfZXWa2pr29/XfV/D6rKgBcuXLl7oVC4VwxOSgwli2SLsrlchdv2rSpQDkwkvfd/LYjm3fzvtY4e7xTJxAAxjEANJPyuaLCMNr2iad1PsDx9SycrqHAQz9ErpB/pljKH3HTR370U44ImKjly5fvF4bhVyS9k2oAVYcAsMoyhXQ6faSZXSTp+ZQDdawo6QpJnwmCoKMqG2s1vAnf9xvM7Gjn3AWS9mS/AcblD5I+VivdjVEZq29927J5je7bcxa4V0/064AAMJ4BoEWmvr6dvxXEeT7A4c9p6sr1/aYn33vof5/6k0c4QmBXli1btjCRSJwt6XRJjVQEqEoEgFUinU4vN7NLJb2OagA7PCvpc4sWLfraunXrwmp6YzMeADK0ApgaM7srkUic1tbWtolq1K8TL189r2fvjhvn7O7e7XmTObYTAMY1AJSkQqGkUnHn+UfVzAc4QrfDcg0FHnhfGEVRd673ew95fz8iOCEocsTACLx0On2EmX1R0t6UA6hqBIAz7IADDnhRIpH4gnPuCNXAwqLADMk6507NZDL3VssbmrHG2j+04suSDmW/AKas6rsbY/p84Lv//Ll5u7mzkg1qmMrXAQFgfANAMynXV5DZ2AuCDL5vhH2kxuYDHHpfvlTo7c7nzrzlxB9dzpED2/m+/2ZJF0s6gGoANYEAcOaOl3MknSLpHEnzqAiwSybpe5I+HgTB32f6zVQ8AGRoBTCtqra7McrviO8c9M6meYkbZs0rx9QJBIBxDgAlqVgKVcyXdtaxQvMBzsxQYI0aAkpSTzH3eG9ffvWtp9x2L0eS+tXa2vqSMAwvcM4dSTWAmkIAOANSqdRhzrnLJL2MagAT1uuc++K8efMuXL9+fW6m3kQlA0CGVgCV85CZnZ7NZpn8PoY+eMPBr/B2C78/u9kd4Mp2FCcAjHsAaDLlciVZ/4IgUnmHAg//u6mFgG6Mf0xmPsChfxOZqauv7958Y+971h3zE1ZWryMDVqo8S1ITFQFqDgFgBfm+n5J0iaQ3UA1gyv7hnDsnk8ncOBMvXpEAsH9oxSWSlrK9gYq6w/O8NW1tbQ9Titr3oetXNVlz4zfmLHDv95Lyyv11QAAY/wAwiiLl+0qDTwIqOR/gmMFhZeYDHPqPUhSGXbnea799wg8/IqeII02sOd/33yvpS5JeSjmAmkUAWAHLly/fIwzDz0g6SVKCigBl9b+S1gRB8GBFT4Sm88lTqdS+zrnPS1rN9gVmTEHSlclk8tMbNmzopBy16ahb33HG7Pn22eSs6eqtQgBYDwGgJBXzJZVKu+4FOPi+YXvLOHsBDt12qpr5AIf+I18sdfXmcid/+6Qf3MgRJ35aWlrSzrlLnXOvpxpAzSMAnEa+7zdIOlHSeZIWUBFg2pScc9eFYXhOe3t7RUajTEsAyNAKoCo9bmZrs9nsNRK9XGrFEd/+57fNmuuua5qvF0/31wEBYH0EgBZJ+Vxh0H3xng9w/MOLnZy6830P9+QK7153yo8e5AhU+1paWl6YSCTONbPjpHL3nAYwQwgAp0lra+tBURRdJunVVAOo3DFN0mebm5svX79+fWl6r/jK/HzpdPpIM7tI0vPZjkBVCiSdFgTBryhF9TruR299Xhg2fHf2QnuTq8hkDQSA9RIAyqRSMVKxOPj8ItbzAY6zF+D2Z4wssq5c38+jfNO/3XzqzfScrkGLFy9ubGpq+oikz0lqpiJAvC6WCQDLK51Ov8rMviLpEKoBzJjfm9lp0zmPf9kuK9Pp9HIzu1TS69huQNUzSd+LouiM9vb2v1GO6rF27drkX17768tnL9BxiaRVsLcKAWA9BYCSlMsVZZENPiEYJdEbMwQs41DgnffNzHyAQ/fUQqlU7M73fO3bH/nRRzk61Y7+lSovlfRyqgHEEgFgmSxZsmS3xsbGsySdLqmRigBV4Y5EInHqxo0b/1L+K74pWrFixYuLxeLnnXNHqLKrCgOYul5JX83lcudv2rSpm3LMrKO+e/AxTfOjSxuaNK/yr04AWG8BYCmKVMyNrxfg4PuG7Tmxmw9wSL9C9RULz/UUCsfd8pH//gFHquqVSqVe7Zy7WNLbqQYQawSAU7Rq1apkZ2fnMc658yXtRUWAqtMn6bKmpqYL7r333q7yXfFNku/7cySdIukcaSYuVgGU0aPOuU9mMpmbNDRjwLT7wC3vaG2ao1uamm3RzL0LAsB6CwBNUj5fkoWDpwStp/kA3RhnRUNDQJPUne97KCzqPd86cd0fOHJVj5UrV+5eKBTOFStVAvWCAHAKUqnUW/p/LFlKNYD6uk6fTADofN9/r6QvStqH7QHEysYoik5rb2+/j1JMv//49mF7Ns0qfqdpgR3kzfglKwFgPQaAFpnyudKw84namw/QjfP5NKmhwAPvC6PIOvt6f7j7S/v+46uH/CTPkWzmDFipcq2khVQEqBsEgJOQSqX2dc59XtJqqgHU3nW6ma3JZrO/ntoV38QOGn7/nCoHUn8gtszMvpVIJM5sa2t7gnJMR4Xljvrvt39hTrM+lmhQsjreFAFgPQaAklQqllQqRsNPDkabD9CNsQ/FbCjwkJYw6L5CqVjo7Ov73C0n/vB8DmqV179S5SWSFlMNoO4QAE7A0qVL5zY2Np5hZmdJaqIiQM2KzOzmhoaGMzZs2PDk5K74xqGlpeWFiUTiXDM7TpJH3YG60OOc+9K8efMuXL9+fY5ylMcHbzn4A7PmR19vmK351fXOCADrNQCURcrlSsMGFdTqfIDjGwqsSc8HODQP7M3nn+wp5t93y0d+uJ4j3PRbvnz5fmEYflnSoVQDqFsEgOM8uUun00ea2UWSnk85gNjods59eevWrV/YvHnzhEajjBkALl68uLGpqekjkj4rVdvFKoAK+Ydz7pxMJnMjpZi899/6tmWzm5LfbmqOXl2l54gEgHUbAJpKYaRSIRy+V0x4KHB9zAc49O9Mps6+3t8UEsVDbjn2tsc44pXfsmXLFiYSibMlnSZpFhUB6hoB4C60tra2mtmlZraSagCx9Scz+2g2m71j/Fd8ox803hRF0XWSFlFXAGb2k4aGhuM3bNjwCNUYv+Nv9+cUi3t9q2mBvdvzqnmldALAeg4AJSlfKMrCEfaMMs4H6Eb/j6nNBziBocCD75v6UOCBDytGYdid6/3OQ/r7McEJQZEj4NStXr068Ze//OU4M/ucWKkSwDYEgKNfw78kiqKLJL1PqubzTgBldEcYhh+9//77/7TrK74RbvN9f622re7LcF8AA3WY2b9ns9mfUopd++C6d3yuaYGdlWxQQ/W/WwLAeg8Ao8iUzxeH9XabzFDgepsPcOjbyhVLvb2Fvo/d/OEfXMmRcPLS6fQqM7tE0gFUA8AABIBDrFy5cnahUDhD0lmS5lARoO4UnHOXJhKJ8zds2NA5+hn6kH/7vv8NScdSPwCjKEr6UBAE36YUI/u3Sw995ayF4a27vTRaVjvvmgCw3gNAk1QshArDaPjJwbTOBzi+noW1MB/g0MJ05fr+3NOZe8e6j962mSPj+C1fvvzlpVLpi865f6MaAEZAADhA/6JI35D0MqoB1L3HzeyEbDZ7+0h3Durh5/v+BSL8AzC2Bkk3tLS0vJVSDPfui9/5kdDs/t4t3rJiHyMvUFuSDSOPU7cRE9DRb9p2s41xn0ZJVXd1k439cBv2DkZ9ThvHZxh6n43xQBvhluam2a/Yc4/5f3j/1//1k+xdu7Z06dK56XT6gjAMf0f4BwC75FKp1EVRFP0/Ef4B2OYFzrnbfN+/VCOM6N1xQzqdPkTSJ6gXgHFo8DzvlqVLl+5NKXZc67v3XPrOrzjnvq7+oRcdjzGLAmrsSsI5JZPeiEHXaCGgDb9pXPcNfiob66Yh99kEm+Z47rMJ/I1N6MmTiYS3x/zmC4688l+vZw8bXSqVentDQ8PvzOyTkpqoCACMyfN9/ybn3Jlirj8Aw53q+/4tq1evTgw6cEjS4sWL55nZ1dQIwATsmUwmL6UM27znskM/L7nT5baFKE5O+W6nfBfnZKixK4pEQk5uzN5uQ43VL87G/Tc2jucb/QGj9QIc/b6hTzBGCDjuHoKjP+ecptkfeuMFbzyKPWwY5/v+F5xzP5H0UsoBALuWTqe/LOkDVALAGFb/5S9/GXS97knS7NmzT5T0IuoDYEJXbc79eyqVWlrvdXjPpe98n6SzBxdnWxDY+XiSHQU11q6lhsbkiKNtxxoKbKOGZFaGHoJDb7IJh4Dj+uc4Q0Ab40lGCwGf6HhOcnbVGy54w1L2sp27m+/71/UfP/m1BADGIZ1O/5uZnUYlAOyKmZ2USqUO3/5vb9WqVUkz+yilATCprMC5uj5+vOuSdz3PyX1ttCvXYk7qfY6hwKgtnueUSHjSBIYCj3bTjpsnOB/guIYCjzs8LNN8gKM/45hl6CvmtbWnR5KanNMNq9au4pcB7Zh7+kNUAgDGZ9myZQvN7HIqAWACF+xfW7JkyW6S5HV1db1F0vMoC4BJ+teVK1fOrtcPn3T2KcntsX190JGCwK4nvDF6RwHVKdHg9a90PO6udmMEfTa1+QBHffhYA4k1oftGe9TYweH45gN8bMuzAx/bYo2lI+t9/+pfSOpsWhoAjJ/neWu4dgcwQXvNmjVrjSR5zrmDqQeAKWjO5XKvr8cPvvqyg/eS03/uvGVbBDg0CAxLTj1P0wsQtcU5p0SDG3ko8Bh/Z2W5Z0gIOKlhwprQfICTGQo81nvZ/p9duT5153KDH+bcJ2T1O+R11apVTZ7nXSuG/QLAuC1evLjROXcqlQAwUWZ2yuLFixs9M0tTDgBTkUgk/Hr83JElDndS0/Cuf8ODwK6nEwpLXOui5tq2nHOSWVnmA7Samg9wfPeNNR9gJNPjHc+N9OZe+cYL3riyXverrq6u/5S0Dy0MAMZv1qxZb5e0O5UAMAm7z5o16589Sa+gFgCmIoqiRfX4uZ3cv2z7//1B3xhBoEKp+yl6AaLG9nEnJRoS/f+qt/kAJ7IK8siP3drTo75CYeTaJuzd9bpbSVpD6wKAiX4nu3dQBQBT8HZP0kLqAGCKJyT192ukyZlzrQMTv+35nxslCOx91lMpTy9A1JZEwsl524cClyPoG8d8gCM8+YzMB2iTnw/QzPRkx5ZRnzoytdbj/pROp1vFj88AMBk+JQAwWZ7n+Z6k2ZQCwFQ455rq7TO/72vveoHb8QPK8OU/RgwCzanriQQ7DGpOQ7J/vx1zPsCJBHC7uMfGeIUamQ/wma5OFcLS6MdN6TX1uC+Z2T/TogBgUhZRAgBTOAd7uaeJjHEBAEiS8lG4e/9F/Ah9ADX4lgE35zo8FXoZCoza4jwnL+FtP3uo+/kAR3vg9sqEUaSnuzp2Vdbd63QhkBQtCgAmZQElADAFu3liBTYAUxRFUd39kJB0DXMG/nsiQWDnY/QCRO1JJAfut3GZD3C8D7UJ/I3pyc6tKkXhLg8jKy9e2VSHuxKLfwDAxHmSGikDgCmYRQ9AAJiEyDM3Qs43riCw1OeU66QXIGrLtgVBvB3BXFnnAxyXiSzPMd7hyGMPBR780PENBS6GJT3b3ckOMzp6sAAAAMwArkABlCEYcHX5Q8KOBHASQWD344lRh0YC1SqRSMg5DQgBB5v0fIDjDg53PR/guDoiTnoo8K5DwCc6tkwo1qxD9GABAACYAQSAADAF26K9iQeBpYJT33McglF7ko3TMRR45ucDHHcmOMZ76SsU1NHby04CAACAqsMQYAAog8kEgd1PJWURtUONnTg4J89zYw4FHi0EHP+cf6M9YPCDpjwf4GgvMeZ9o/cCpPcfAAAAqvY8nhIAKAOuePtNJAiMSk49T7MgCGpPomHb74djzgc44YPF6M8y1oDiyRx8xhoKPNn5ALtyverO97FzAAAAoCoRAALANBhvENjzTFJhkcXYUWv7t9uxKvCo8wGOkaSNPv+llWHF4CG3T3AosMb7TxsYQpqe6NzKjgEAAICqxRBgAJisEYK9kR8yehCoSOp5kl6AqD2JhCc3aH+u9HyA43vOSswH2NHbo1yxwE4BAACAqkUPQADlUN8/JEwxCOzbklCpj8Mxak8iueuhwFU1H2CZDmqD+v6Z6Ul6/wEAAKDKccUJAOUyhSCwm16AqMWTCM+T85xqZj7ACQ4FHs98gM90d6oYltgZAAAAUN3n7mIIMACU1ySCwHy3p3w3v8mg9iQSO8PrepsPMIwiPdPdwU4AAACAqsfVJoApc87V6Q8JpjF/Q5lgENjzRJKdCTXY/iWXGPp7YrnmA1TF5gMc+e/Gng/wqa6tCqOInQAAAABVjx6AADBZOwK+8gSBpZynvq0MBUbtSXierL8tjDkUeMLzAdrU5gMc9eFjDSTWuO4rlEp6rqebjQ8AAICaQA9AAJiqMgaBvU8mZXQoQg22gYTndoRrow4FHuMprCz3DAkBJ/iCE5kP8KmurROa7xAAAACYSQSAAKYsiiKugqWyBIFh0anvWXoBogZPKBKenBuyY5uVZT5Am+R8gKO8zJTnA8wVCurs62WjAwAAoHbO18UQYAAorykGgb3PJBWFjjqi9k4qEkN6AUqayfkAd/0yk5sP8MmuLfT+AwAAQG2dq1MCAJgmkwwCo9Cp52l6AaIGd3nn5NxIQ4HLEfSNYz7AEZ683PMBdub61J3PsbEBAABQUwgAAZTjor/uusI0SLucz29ngTThIDD3bFJhgV6AqMHjQXLbfjv++QAnEsDt4h4b4xXKNB/gU11b2MgAAACoOUkxBBjDPeac+3UURQ84554zs7ykOc6550tKSVohaT5lwo5LYrO6TKpc//8Zd68kt6NgQ24Y/jiT1PNkg+a/pMAOhpprF57nNGxqUDOZc4P2ejPJ7QjH3dCHy43QREwmZ27E5mOSnI3etEZ4mf6bTBrhOXc8vP8/tvZ2K18qspEBAEA1KUnKS5pLKTAWAkBsV5B0o+d517e1td031n6xatWqpu7u7rdHUXSyc+4gSod67AE46PP3/59yB4G5Tk+zez01zGFZYNRYm/CcXGQ7wjXT9uBvrKBv1HRumLGCvsH37XzQCDcNeZmRQ8Dtosj0dHcHGxcAAFSDxyRdFYbhdxYuXPiX9evXl3zf39M59yYzO1HSWygRhkpSgrpnZvYtM/t0e3v738bzB+vXr89J+pGkH7W0tLzROfcl51wrpUS9m44gsPvJpHZ7Ob0AUYPtwZMs3J6p9YeAJpnbGQfu/CbSBIO+gaHiLr/mpFHjx9EfO/SW53o6VQxDNiwwfe6UdKuZdTrn/knScWLECQAM1SPposbGxi/dd999fQPvCILgGUnfl/R93/ffLOkSSUspGbYjAKznizPnMpJOC4Lg3sk+R3t7+y8krfB9/72SviTppVS2LtGTeGDb6v8/5QgCi72eCl0JNTYTPKDGbO8FOKDr3c4QcHDMNlZEN3poN3qPveHB4ZBXGKuz4Qj3lSzSMz2dbFNgejxkZqdns9mfDrjtB8uXL/98GIafkXSSJFbGAgDpjiiKTh5Px50gCP5XUks6nT7CzL4oaW/KBxYBqU+PmdkJmUxmRSaTubcMz2dBEKwrFouvcc6dJ4nlERF/DdrlIiBO/UMbnca3YMgoi4V0P5ncmQ0CNXWWMXBBkEFfG8NvsdHvG33FYJvEasK7epnhz/l0V4ciGiFQbs9JOm3RokVLhoR/kqSNGzc+GwTBGknLJf2ScgGoY4GkNwRBcNh4R+31izKZzI1hGL5K0kXaNk8g6vnUXPTcqScFSZc1NTXtn81mr5ZU1onFHnjggZ5MJrPW87z9zOwmyl1X6vc4Mo5wb0cGOMkgsJR3ym2lwzZqs32YZwMytYGrAo8/BBwrzBt/0Gdj3TTkvp0hYDEsaWtvF9sSKJ+ic+5qSa8KguDSdevWjdnFPQiCbBAEbzSzd0n6K+UDUEceN7MTFi1atCIIgl9N9knuv//+rUEQnJ1IJJZKuoOy1i96ANaPOxKJxP5BEKy59957p/VKpq2t7R/ZbPYo59ybJf2G0iO+BqQH4wz3JhsE9jzpyVgLBDXIeW7bmNtxhoBjBn2j3GMa79/YOJ5vsKe6tvJLKVCub02zu5xzqUwmc0L/XFXjls1mb29sbHyNpLMldVNNADFWlHRZMpncP5vNXr2rH0rGa+PGjX8MguAwz/PeJmkTZa4/BIDx1x5F0ZuCIDhs48aNf6nkC2cymfVBEKSccx+U9CSbAjG9nFElgsAocup9ll6AqNFWsr1Hqw1uOSON4B0roht9FO5EhgLbGPcNfIQpVyioM9fLBgSm7k+SDs9ms2/LZDK/neyT3HfffX1BEFxUKpX27x9tQj4PIG7ukPTqIAjWbNiwYVomIG5ra7tLUouZnSDpGUpePxgCHF/Patu8Kq39C3XMlO3zDuwv5h1ArE1/ENj7rKeo5Cg1ao5z20PAAUNsB7WdIa2pSuYDfKp7CxsPmJpu59x5HR0dS4IgWFeuJ/3Nb37zaP9ok9dJ+jVlBhADv3fOHRIEwWFBEPx5ul8sCIJiNpu9urGx8VWSLpPEioN1gB6A8VPsb8CvGM+8KpWyfd6BMAyXSFrHZorbxb2rzx8S3GhJwvQEgRY59TzNQoio3fayPaSrhfkAu/N96inwmxUwSZGZ3ZRMJvfNZDJrN2/ePC2NKZPJbAyC4PX9o02eoOwAatBzkk5rbm5ekslkflLpF7/vvvueC4JgjZktkfRTNke8EQDGiJndFUXRsiAI1gRB0FGN7/H+++//UxAEh/fPO/Bbthpq3qih3fQEgX1bEirl6QWIWm0rNqEQcNTvuzHuKdd8gE93dbDNgMnZIOn12Wz2qA0bNlRiChjLZDI3FovFfZ1z54nRJgBqQ8k5d3UURfsHQXDp+vXrSzP5ZrLZ7ENBELyjf8Glh9k88cQQ4Hj4g3Pundls9m3t7e2/q4U33NbWdldzczPzDiA+KhgE9jzJXICoTeZp5wrX45kPcIyhwOWZD3Dk+7b29SgfFtlgwMQ84pz7YBAEK4Mg2FDpF3/ggQd6MpnMWjN7rRhtAqCaLxuc+7mkVCaTOaG9vf3panpv2Wz29lwu92pJp0nqZGvFCz0Aa9sWSWfncrmlmUzmzlp78+vXry8NmXegxCatTVEU8UPCjm90TXsQmO/2VOjl8I3aZAN66U3ffIDjvc9GOJ6Znu2h9x8wAb2SLsrlcq/OZDI3aoY7F2Sz2c1BEBxuZm+V9CCbB0AV2Szp8Ewmc1AQBFV7fNq0aVMhCIJLJe3vnLtaUsSmiweuIGvT9u7CrwqC4KJNmzYVavnDbJ93QNIS59z/sHkRC9McBPY8wVyAqE02iaHAE58P0CY9H+BzvV0qhsyDDYzTHVEUvSYIgrM3bdrUXU1vLJvN3t3c3JzqH23yNJsKwAzq6V8Q6bXlXBBpugVB8HgmkznBzJZLupfNWPuSYghwrblb0mmZTCZ2v2gGQfB7SQenUqnDnHMXS3oFmxs1zw3LGIbc4HbxuBGezknFvKdcZ0JN8wkqUHsimTy5bTu8OZmTnEwmJ7ftJo13pkvTaI+dyD3bbgmjSFv6uthAwK5lJa0JguBX1fwm++fUunrJkiXrGhsb10o6sf/6BwAqcspjZjc3NDScUaE5UafngJ/NBpLe4Pv+eyV9UdI+bNraRA/A2rFZ0uFBELy1mrsLl+kAc7sk5h2oIXW9CrCb6mMn3yOw9+nEGPOgAdXddnYOBR5paK+VZT5Am+B8gM/2dCiMGOUCjOEZSactWrRoebWHfwM9+OCDW7aPNjGzn7AZAVTARjM7sIILIk036++9+Jr+BZf62MS1h0VAql+nmZ2Zy+UW11J34akKgqC4fd4BSTeIeQdQzaYzCBzjecOCU24LQ4FRmyJnO/f6oUOBd7SJIa1kGucDLIZFbc31sGGAkeXN7L+ampoWBUFw6bp162qy+3kQBL/PZrOHmNm/SvozmxXANPi7mf17EASvy2azv47hdXpvJpNZG4bhayR9j81dU4r0AKziayMzuymZTO6XzWa/WOvz/E3hAPN4EARHS2qV9Et2C1S1cYR2wx47zJAgUGM/Z88zSUWRo/aozS+6/t92JjIf4MSDvnHMByjp6e5OGV1qgeEtyOwuM2vJZrNn3XvvvbEYI5/NZn8gRpsAKK/tCyItzmaztyrmHa3uv//+vwZBsFrS6yRtYPPXhOfoAViNGYJzv3DOpWPUXXjKgiDIBkHwJufc+yX9g4qg+huyKhIEWij1PUMvQNRosOCGrAA8Ygg4vGUM/a/RbxnfPblCQd35XjYIMNgm59w/Z7PZt2Wz2YdieG7JaBMAZTmdkfTtZDL5qmpcEKkCx9INixYtOrB/waWn2B2q2iP0AKyyDeKc+2Amk1mVyWTaKcfwg2smk/lO/4na2ZK6KUlVffHVmeL4HlaBILD3uYTCIjshalO4oxfgaEeX6Z8P8Om+Tkmu/3+AurdF0tm5XC6VyWR+VgcXr48HQXB0/yqXv2LzA5iArKQ3BkHwgQ0bNjxSr0VYt25dmM1mr87lcq/onx8wz65RhRfsZhl6AFaHkqQvNDY27pfJZG5km+zyRK03CIKLoih6raSfUhHMGGfb/ndcj9X0BYEm9T7dwPZATYpkigb2+6vwfIA9hT71FfID2h5BIOr3fNQ5d3kikXhlEAQX1dv0M9lsNgiC4I1mdoSkR9gdAIzhcTM7JgiC1lpaEGm6bdq0qTuTyaxNJBJLJf2YilSd/6UHYBUcPCT9UxAEn7zvvvtYSWcC2tvb/xYEwcGS1kgKqQhmzIwEgYMXDMl1eirlOKSjNkU7IsAKzQc4wLM9XaO0PYJA1NHXmHM/d861ZDKZkzdu3PhsHZfCstnszcVicX9J54tVLgEMlpd0UVNT06uy2ez1YuqAEW3cuPGPQRAcamYHS3qIilSFbufc7UnqMKM2h2H4tvvvv/+vlGLyJ2pBEFyWTqf/ambrJDVSkpnZDpRAO0NAG0dk4MZZuTEfZ4Me1P10QgtfwnkIavEAYooUKqHEzn3bnMxJTiaTk9t206BAznbs/aahifnwWzToueWkzlyPCmFx5Ga240a34zU40CGG/izp45lM5oeUYqcHHnigR9KnW1parvE874uSVlMVoO79UNLHgyCoqhXEj7/q+AVeQ/hJOR0tJ+dMN6qx8fwrPnDFlpl+b9ls9n983/+5pBMlnStpN3ajGXNtEAS9DAGeOU+b2cGEf+WRyWRuc879J/szqkJFewRK23sEFns8FXroBYjaFJpku5oPUBObD1BjzAcYmem53u5BjWvEZkaPQMRTl6RPdHR0LA6C4IeUY2T9o00O9zxvlaT7qQhQl34bRdFBQRC8p5rCv7Vr13on3HDMUV5j+Ac5nSlpL5n2NOmjVihsPuH6Y9esXbt2xjt8DVhwaT9JV4iRezOhp1QqfVGSuFKcqXzAuQ9ms9nNVKJ8+udPvJJKoHoaeuWDwJ6nWBEYtcoUDljwY7ShwBOZD3D0ocDS1r5ulaJwxMZFEIgYi7RtxdtXBUFw4ebNm5mofRza2truWbRoUZpVLoE6OzGRLmpubm5pb2//eTW9seOvO3rFk/v84/+cuW9Ket4ID9ndSZc8sc/fH/zIN485uBrecxAEzwRBcGIURW+Q9A92rwpekjp39m9+85tHJYkhwDPjxkwm8xPKUH65XO7Mpqamd0p6KdWo6EGlPntejnsYb+WGBpfyTrmtnpoWMhQYtSdUJM+cnPP6d2+TG3EosA2P4EYZ8zvSzWEUaWuuR65/ER0bpXExNBgx+66+zzm3pq2trY1qTNy6detCSVf7vv9dSZ+RdIokVuAC4nvM/M9MJnNtNb2n475x3IuTSfu8pCNsXF0H3P4W6c4P33DMHZGSp139oatnvAdje3v7fUuXLk03NDRslLQPe9q0+2Emk/n69n8wBLjyClEUfYYyTI9NmzZ1O+c+TyVQkRODgf8xrt57lekR2PNMYkCPKKC2hBYNidQGJ3Q2/Kadtw/5rx23DLlpS1+3zKIdbci5kZobPQIRG4+a2RGZTOZAwr+pC4KgIwiCjznnlki6k4oAsXRDNYV/x191/JwPX3/c2mRSf5R05DivEgacCLlDPQsf+vB1x1x6yrc+MH+mP88DDzzwlHPucDEceLrdK+kDGrBYDUOAKx0YOHdre3v736jE9Onr67te0tNUAhVp06q+IDAqOfU9x1Bg1KZIkaJo4FDggf9/SDA49Px2HPMBFsNQXfm+4Y2LIBDx9MOmpqZXZ7PZm8WP/mWVyWT+EATBO83sCElFKgLERhiG4XlV8U5M7iPXH7vaawx/J9m5ks2ewrM1yLlTi8Wm33/khuOOX33r6hm9WMhkMhsl3c7uNm1+JOmfgyDoHXgjPQAr7zuUYHpt2rSpIOn7VAKVNKUgcDxh4ASDwN7nEopCogjUppJKkkW7nA/QJjEf4Ja+Lg0c3ksQiBj7W2Nj4/vvvffeLkoxfbLZ7M2MPgFidE7v3PpqWKjzIzcc53/4hmN/adKtKu9Q2ReY2VV79MzfcPy1x/zTDNf6eva4suuVtKZ/0ZreoXfSA7Cy8n19fXdRhulnZj+mCpUTRVH9/ZAwyqw/kwoCpbIHgRZJvc9yiEeNHsMllSwaNHZ3IiHgaHKlonoKuVGaE0EgYncu9N377ruvj0pMvzAMuYgF4nPs3DSTr3/8Tce/4ITrjrnKzDZKOnAaX8r3PPfLD99wzO0nXXPsjMzF55z7LXtcWev534lE4rVBEFymUTr6sQhIZTfIg/290zDNEolEJopYBAHT3agHpBVj3TXehT2k8S8YMo7n7OtfDCTZSEdv1J6SQiX6f6d0A3d425nKWX+TsSFBndm28G7oEiBbct3jaE5DGtf252axENTeeecjVKEy2tvb/+77/ihLEQGoJWY2I8fO1beubty9Z/5HXCn8rJyr3Dx95g4NE3rLCdcf+9VE76zzv37S17sr9dJRFLEacHk8aGanBUFw964eyBDgCoqiaDNVqIy2trYnJHVTCVTmKmv0U/4Z7RFoTr3PMBcgalfBwkHB21TmA+wt5pUvFeSck3NuHM2JHoGo8a8m5zjHr2BmQAmA2Bw7K74wxQnXH3vYHj3zH3LSJZJmYpGOOU46K5qbf+iEG445atBMKdMoCAIWAZma58zs5Obm5lQ2m717PH+QFL9UVfJgsoUqVNQWSfMoAxcZlSvE6JcBM9UjMN/lqdjnqWE2PWJReyKLFLpICfNkblt4ZjI5c/29/kwm198L0IbFawN7Am7t6xp63Op/jI3anLb95fT1CAQAAPXrxBuPe3UURhdLentVvCHTi53cNz98w7EnuevdmiuOvubXbKUqPUU2u9nMPtbe3j6hxU+TnIFWsD2Z5ahCRfVSAkz3t+SIv6FUWRDY/XRCu72UABC1qRSVlPAa+pvb4KHA4wkBJam7kFMxGvlH5rGCwMFNavQgcHCTG38QCAAA6s+x1xy7e4Nn50ahnSS5ahyus9xk9374+mNvLpXcGdf85zVPstWqxt2STstmsw9O5o+ZAxBAORgfvXqDwFKfU6HbU+M8QkDUnkimokVqcIntUV9/9D5CAD/CfIBhZOrI9e6ymU0lCBzUNHf9F6MeMgAAQHwdf9XxDYlZ0dEmu0Dm9qzyt+tJOrIhaf/64euP+1JD1+wvfPXUr+bZijPmEefcpzKZzI1T3agAgMlwQ5KH0aKFKpgjsPupBN29UbOKUaho0CrAGrAK8Lb/sEFtcafufJ/CKNzRGHbVzMaaI3BwMx0+R+D2XoFuF39B9gcAQH054frjDvEawwfN7CqZ9qyV923SXMnOLTT3PvDh6/7zULZkxfU6585rbm5+5VTDP4lFQABgaoZdzZtGDQNnMAgMS065rfzmg1plO4fwmg0IAW14CGg748DIInUVe4e0p5kPAiVCQAAA6sWHbzj2K072Y0mvquFLnv3kottPuP64i9miFXNHFEWvyWQya9evX1+W6eS4GgRQnqvzejdimlBdQWDvs0kZo4BRo0pWUrh9B7YhKwCPGAJKnfkemdn2RXirMggEAADxdfz1H1oi0+nxueSx00649pgD2LLTKmtmbwyC4LD29va/lfOJ6QEIAOX9VqzaIDAKpb7nEmwj1Kx8VBzc+2+Mk5hSWFJPoTC8Tc1UEOhGCgIBAECsLw0s+drYfSbPLWXLTotnJZ22aNGi5dls9pfT8QIsAgIA0/LN2P//B6UToywYUsHFQnq3JtS0IJLXwG8/qD2RmUoWKukS/av+bmsWJpMbsipwR763PyQc3HBGXIR3QANzuwgWdywWMnBCwhHb7AgNdsDKwbRAAADiz5MS8fvON3oUlFdR0hWSPhMEQUcQBNP2QgSAAKbMOVef17JOu76Kn84gUON5/cFBoEVSz7Oemp8fsuOiJhXCghLJpm199sxkzg0LAYthUflSYUgTHSUIHOUfuwwC+9O8KQWBAAAAqFtmdlcikTitra1tUyVeLyl+hAaAyRtvr7wRQ7spBoETev2dQWCuM6HZu0VKzuLwjxo8UZJUiIqa5TXK7bhlQEMwp65C746AfngTqaIgEAAAAPXoT5I+lc1m11XyRVkEBADKYULz9GmUlYPH/5yjTGM2jtfeNkdgzzP03EftKkahIguHrfprknKlggphOKxdjGdVXjfGP3Y5R6D65wjcZZtlERAAAIA61eOcO6+jo2NJEATrKv3iDAEGMGVRFNGlZeBVvjTOefqGPrZyPQILvU6FXqfGOWw61CCT8mFJs5OJbf3/BswH2FPM9Xf+G9AYRv7PERtN5XsEAgAAIO5nr2b2rUQicWZbW9sTM/UmGAIMANNhhoLAHXeP4/V7nkmo8aUlthVqUslClaKSkl5y+2mV+sKCSlE4pLlUdxAIAACA+DKzNjNb097eft9Mvxd6AALAZE16EZDxPnbiQeCwu8d4bCnvlOtyamrmdyDUplxY1Dwv0R/ymXoK+THaQ3UGgQAAAIilx8zsvGw2e42kqBreEHMAApiyul0FeHt6MK6591TROQKH3T3KY3ufScoi9mHUpsgi5cOiJFNvqSCz0QfWOo0wm18VzREIAACAWChIuqypqWn/bDZ7taok/JMYAgwAU9R/CHVu0D/HSAHG97gRH1v+HoFhSerr8DRnN74KUKNnWFFRSS+hXCnfv3+7/kWvbYxeedv+746+ezPVIxBA3E4IiPgBoL7d4Xnemra2toer8c0xBBgAynber5oMAvue89Q0P1SCPuGoxZZn2xb+MBu6s5cnCNzZpKYhCAQAAEAc/ME5d3omk/lJNb9JT/QABFCGa3BKMLAUtTU0uBRJTz1aZNOhhludyXOj7exu2/DbXTat0ccDjzEYeMpDgwEAAFCztkg6O5fLLa328E+iByAATP7oGY71gNrpEdjdk1Pu2aL22CuhxqYE2xY1ypPrn2LFRtzZp9YjcHiTGvlfkmST6BEIAACAmhGZ2c2lUunjDzzwwFO1dAkLAJiMcYV21R0Elkqh+voKMklPPFLUS/clAESNNsf+kG/gQiAzEQQOumXEIHC8DRwAAADVxszuMbM17e3tv6m1984iIADKchys608/nUHgRB473iBwwEM6e3I7Hr31mZL2fH6kOfOYDBA12hSdZANSt+oMAkdomwAAAKh2jzjnPhUEwU21ev3LVR4ATJIb6YZdTvg1wTkCpSnMJ2gaa/xvrlBUvlAadPPjf8uzYVGzBi3IMaBBjNqEpnWOwBHmCWRCQAAAgFrTK+miXC736kwmc6NquPMLQ4ABYArG7mE01tfDBHsEjus5R3vc8B6BZqbO7tywP+3pCtW5paT5uzWwcRGT9jhTPQKH3zKsRyAAAACq2R1hGJ5y//33/zUOH4YhwACmftHtXN0fR2otCOzpzSsMoxH/7PG/59W8sGHHWwJqr0GanJzMRm4Q1RIEAgAAoCq1m9mabDb7yzh9KIYAA8BkjTCcb+yhhmM9WeWGBodRpO7e0Yf65vtMW54usH1RcwYGdmbbcnXnRm8QlR0aPJFGCwAAgBnwnKTTFi1a1Bq38E9iCDAATN0I3YmquUdgZ3ffkJ5Rwz3x94IW7tGgRIKwArXaLm3bWNsBIWBlegT2v/bA5jzs+WlXAAAAVaQo6YowDM+9//77twZBEMsPyRBgAFMWRRHHkZGv8qsuCCwWS8rlSrt8qlLJ9MzjBT3vxbPYrqipJrh997f+0G5gH77KBIEDnmmXQSAAAABm9PzRuZ9LOi2Tyfw27p+VHoAAUPZvkeFX+QP7+9guHjtYeYPAjs7xr/L71OMF7b53oxoa6K2E2mQaONh3QP+7sgSBo0eB4w0CAQAAMGM2S/pkJpNZVy8f2BM/RAPAJNnYh9BRpvsa8eYKzBHY01tUsRSO+9NFofTko3k2M2qqRQ69ZWf/5BFm5JvSHIHSrmYJHPZMTAEIAAAw03qcc+d1dHS8NgiCdfX0wekBCGDK6nYV4B3dfGzIDaM9bhw3T1OPwCgydXfnJvwRn32yqD2f16im2Ql2dNQks0hy3rZVgUdpZFPrESg5c/33T7BHIAAAACp3Wmj2rUQicWZbW9sT9VgAAkAAmKoaCAK7uvOKbHKhw+P/yOvl+81hO6MmmuJIe3lokZIuMWQo/kSDwJ3LfJQtCAQAAMD0nyM6l3HOrWlra/u/eq4Di4AAQNm+WbZf3VdXEFgshertLUz6Y3VuKam7M1TzfH4zQnUbrZmYmSKF8lxihKY1ehA4qDkP+KtdBoFyku06CARQF4cgAMDMedzM1gZBcI2kqN6L4bE/AECZ7ZjnawbnCBzw2M7Oqc/j9/g/cmxX1LSSmWyEobe7mvFvrHkCx2yWTnJu7DkCX8xmAQAAmA5FSZclk8n9s9ns1SL8k0QPQACYPhPtESiNuHLwpHoE9i840JcrqlAoTfmj9HaH2vJcUbvt3sB2RVU3udFPakxRFCnhJUZsQyMPzx3f8GA34HEj9QrcVY9AAAAQT5EUxq/nvwvL9EQmqSCpscxv8EeSPhYEwZ/ZAwdjPBeAch28648b56cfbxA4ynNONgg0M3V1lm8V38f/ntPC3RpG6A0F1IYwipRwCTnndvYGHHMofnkXDCEIBACgzi6SXOm3TvFaTM+T92AZryH/JumVZXq+PzjnPprJZO5kzxtt29EDEACmZpfDc4c+znZ96B3hOSc6NLinu6AwLF9v90I+0jNPFtjeqN6T7HE8phiV+ptO//DccQ3FH/6gsYYGj9k0xzE0GAAAxMPVR9/woJO+Ep/LHvfVrx/9jfvL+JQby/AcWyStaW5ufi3h39g8MRc1gMpcd8dfFQWBYRipu6dY9o/4xKM5lUpsbtSuyCKFFg48ke0PAl3Fg0AAABB/Vxx97cec06GS/lDDH+NhefavVxx9zallft4rp3RaZ3ZTsVjcPwiCy9avX19ibxsbPQABoNyqIAjs7MzLrPyH97BkeuqxPNsYNa0YhqM0sRkIAgEAQOxd8aFrfxwVEktMOs2krTV0WdMjufNyChdf+cHrflDu5w+C4FfOuW9N9O/M7J4oilLZbPaoBx544Cn2sPFhERAAmMZvzG3fUON9XHnmCMwXQuVy0/cD2NNP5rTX3o1qnJVgG6MmmZmKUUkNXnKUJuZk28P5Ss0RCAAAYu3qE64uSrr02GuOvanBs3Pl3ElS1U4QaJK+FyYSH7/6qKv/Pp0vNGvWrBP7+vpe5ZxrHcfD/2ZmZ2az2VvZoybOowQAMEluAo+rVI9Akzq35qb3bCCSHns0x/ZHzTZJSSqGpTF7yVaiRyCAWCHXBzAu1x537XNXHnPdGk9eWnL3VOHhrM0z75+uPPraw6c7/JOke++9t2v+/PlvlHSFpNHmMNoq6dzGxsZXE/5NHj0AAUz9otu5+j2OTKQ7TwV6BPb0FFUqRdP+sbc+U1Tv80qaM5fF5FG7imFRs5KzNNa6vNPbIxAAANSr/sU0Vp1w/bGHedKlJr18ht/SY865857315dcs3bt2qiSL7x+/fqcpBN93/+cpPdLerWZ7SXp7865jKR1QRD0stdMTZKzUACYLNt5CK2CIDCKTF3d+Qp9ctOj/+jTK/dvZjdAVbXIiShFkZJRpITn9beuSgeBAGKEayoAk3LV0dfevvrW1T/dvWf+R5z0OUkVPsF2fSa7rBjZBdcde23XTNYiCILHJX2ZvWJ60AMQAKZkSDg3g0FgZ0dBUVS5Q3p3Z0ldHUU1L2hgN0DVXH1PtAXkw4JmJ5q0rR+zIwgEMNUTAgCYsHWHrytIuvTka49ZV3Q61zl3nCoxZZuzO0qeO/Wao679C1sh/hi7BWDKokqmTlV/3l/JIHDnjcVipN7eQsU/9aN/79P+SwgAUcPHL4tULJXUmEwOaIeVCwIBxAatGoiHvWbyxb927HWPSTrhhGuP+YbzdKnkXj9Nly7t5um0qz503S/Y5PXDE79WAcDENYx2qj9kAY/xLgAykccOety21+vYOjOLcvT1hXru6Tz7A6rCZE9o8mFxZ9Q3qH25/v/ZVXOc/GIhAOr+EASguuxbDW/iqmOvy1z5oev+yUmHSyrnQhzPmnTas/M6W6/60LWEf3WGVYABTFndLwIyw0FgX19JhUI4YyV47JGc6ASK2r5sN+WLxcHNjiAQwMTPCADUvnf4vr+gSo4qdsXR167rSRReI7nzJE3lF/+izC6LColXXHX0tZeuO3xdyKauP/QABIBynfZPJAh0U3nOAc9ups6Owox+9GIx0tNP5NgHUNNX38WwpFIUDW920xoEvpiNBsQH11RAPMxzzp1QTW/opqNu6rny6GvWehbtJ+mmiZ8gubsSzmu58pjr1lx9wtUdbOL6RQ9AACin8QaBYz5W435cV1dRYRjN+Md+8vGcSkWufVDLV+6mXLGgnbP7Dcv+yh4EAtNsT0pQGStXrtxdzK0OxOecwOyz6XR6ebW9r68fc/0/rjz62qM8z94i6YFdn9voj87p0Cs/dM3bLv/QNzaxZUEACACTNGZ+V4EgsFSK1NNVqIpahKHpicd62SkwsyfsU92Po1DFsKgxB+yWOQgEpvEC9t2c61dGPp//N6oAxMosM/txKpV6RzW+ua9/8Lr/ff7fXtJizj4o2VMjPGSLk85+bm7nkis+dO2P2ZzYjiHAADBZboQ8YOSr/5EuzTTVILCzIz94QeAZ9szTBeVzTCeC2tZbzMvMRmyU4wkC3ZjNliAQFXVAKpX6kggBp5Xv+ynn3EVUAoidPZ1zP06n019bvnz5HtX25tauXRtd9aHrbnSNs/aX08WSnpO0xcl9NeEVX3nF0ddetO7wdQU2IwaiqzqAcqjvRUD6K+DGKsaod9rwB7ldV7WQD5Xrq66wzcz06CO9WrRvMy0CM9YcrQz7cb5U1OyGxgHPNbhRDvrXCP9w/Y+zUQ8FTkYIiEq0CedOT6VSK8xsTXt7e4aKlM/ixYvnNTU1fVLSRyXNoiJALHlmdlIYhv/h+/55kq4IgqBYTW/wig9csaX/OPRRNhd2uUNTAgBlQE/iAV1/JtcjcHsZx7FysElbt+SrsgxbtxTU3V2kRaCm5UsFhSMtCDKBHoEaR49AoCJfT8693vO8jb7v3+r7/kupyNRL6vv+6qampk2SPiHCP6Ae7C7pUkm/TaVSh1IO1CoCQAAo62WBpj0I7OkuqFSMqrYEj/6jj/0AM8LK9jymvlJujLZcviAQqOC302pJv0un02tXrVrVREkmrrW1tTWVSv1K0q2SCFOB+rOfc+72VCr1s3Q6/VrKgVrDHIAAMF2XWtMQBIZm6uqs7h52Pd1Fbd3ClCOYmWZXLsUwVDEMd9GWCQJRc+aa2bldXV1/TKfTR1GO8WlpaXlhOp2+KoqiXzvnXk9FgDo/33DuIDNrT6fTV/m+z4rrqBn0AARQji/BOvwhoTTO4qisQWDX1oKiqPrL/cgjPYqM35dQ23oLuREbMEEgYuAlZvZN3/fvbmlpOYByjGzlypWzfd8/y/O835vZ8Vw7ARgg2X9c+IPv+2tWrVrF+gqoenyJAcBkOdv2v+N6rKYcBBYLofq6SzVRmkIu1LNP59lHUNMii5Qv5kdtwJMKAt0ujwJAJb3Z87xsKpW6cenSpXtTjp1SqdRhhUJhk6QLJbG6FYDR7C7pkq6urgfT6fQhlAPVjCHAADBVFQoCO7YUZDV0yH780V6FYcT+gZrWVyzILNqxeu+wBuwmGATusvEDlb8ecM4d2dDQ8Aff98/ad99963pRi3Q63ZJOp+9xzt0m6eXsHgDGaX8z+3EqlfpZS0vLaygHqvILnxIAmKqoFsakVsI0BoF9PUUV8mFNlaNUivTk4zn2C1SMTctzmnqLhSFtdUirnWwQCFSXhZIuXLBgwQP1uMrl8uXL9/B9/1IzazOzN7I7AJjU5YBzB3med7/v+5f6vr+AiqCaEAACQNm/+W38YeA4gkAzU+fWYk2W4skne1Uo0AsQta1QKqgUhSM0W4JAxNKOVS5bW1sXx/3D+r7f4Pv+mjAM/yzpVEkJdgEAU9TQfzz5s+/7a1avXs1xBVWBIcAAMJ3KEAR2bS0qDGvzUB1Fpsce62U/QGWa2zQ+d28hN2wI/lSDQKCq25NzB0VRFOtVLltbWw+SdL+kSyTRUwdAue0h6ZKHH374wVQq9XbKgZlGD0AAmPTV0QSu5ScZBEbFSN1dxZou03PP5NTXW2J/QU0rRaEKpdIumi1BIGKnYeAql3HpxZJOp1/l+/4dURT9TBJzdQGYbq92zv2P7/u3t7a2LqIcmCn0AAQwZc65+j6OTGMQuHVroeaP0ibTI4/20FBQgX1tevUV8+M8FIw3CARqxu6KQS+WJUuW7Ob7/oVm9oCkd7JZAVTYoVEUPeT7/qUrVqyYTzlQafQABIByKXMQmO8LlesNY1Gazo6CujoL7COY9iY4nSKL1FfMyzkn59w4DgUEgYidWu3F4qXT6aMaGxt/L+ksSY1sSgAzpFHSqaVSifkBUfkvQ0oAAGVWhiDQzNTxXLwCs0f+0T1sDjWg1vQV8wqjbQvbTDUIBGpYzfRiSaVSb/F9v93MvilpbzYdgCqxp7b1rN6YSqXeQDlQCQwBBlAOHEfGvvofx2MHB4E9nSUVi/FaPbe3r6Tnns2zX6DmD0Q9hb7BzXeyQSBQ27b3Yvl9KpU6XlXWsSCVSu3r+/6tzrmfS1rK5gJQpVLOuV/4vn/78uXLX045MJ3oAQgAkzXea/kJBoFRZOrsiOdw2Ucf6VYUkRejthXDkgrh8MV5tgeBbpeHAoJAxMoLnHNX+b6/MZ1OHzjTb2bp0qVz0+n0Wufcg5JWs3kA1IhDwzDc5Pv+hQceeGAz5cB0IAAEgKkqcxDY8VxeFsWzVIVipKee6mWfwbQ1xUrpzeckGyXMHncQCMSKb2a/9H3/1paWln1m4hCQTqePamho2Gxm50pqYpMAqDGzJZ2Vy+Wqsmc1ah9DgAGUA8eRiVzVj/G4Yj5SX3cU6zI9/kSPwhK7DGpbaJH6ioWxm/0ugkAgpt+Eqz3P+106nV67cuXK2ZV40XQ6vTydTt/bP8/f89kMAGrcC51zV6XT6Q3V0LMa8UGiDACTZhox+5xkEGgybX22EPuFMsKS6fEnutl9MC0tspL6ivkdQ9oJAoFB5pjZuYVC4Y/pdPooTVOn1wMOOOBFqVTqRjP7tZmtpOwAYnVeY5ae4Z7ViBkCQACY+tezyhEE9nWFKuSjuqjYU0/1KZ8vseugxlu+qaeY07hn9yMIRP15sZl90/f9+3zfX1GuJ125cuVs3/fPSiaTv3fOHSlG1QOIrx09q33fv3Dx4sXzKAkmiyHAAKb+reRc/R1HGka63Jh8EBhFps4txbopX2SmRx+jFyDKf4ZcaflSQcWoNKyxjycIBOrICkn/l0qlblyxYsXzpvJEqVTqsEKh8DtJF0riQhhAvZgj6aympqbfT2fPasQbPQABYCrcSFf6Ew8Cu7aUFIb1laM+91xO3T1F9iHUvJ5835C2zXq/wEjXHc65I0ul0uZ0Or123333nTWRP/Z9P+X7/i+cc7dJehnlBFCnXtTfs/rXLS0tTH2AiX0Rix6AAFAekwwCS0VTd2d9BmGPPNLFfoOymakTmlIUKlfMyw07BhAEAiOYZ2bnLliw4EHf91fv6sG+7+/p+/6lkjZKegPlAwBJ0nLP8+71ff9W3/dfSjkwHvQABDBl0fZZ8KGRr/THDgK3Pluo259iuroL2ro1xz6DsjW9mdJbyCmSbWvWowaBjiAQ2OmVkm5Np9N3+b6/ZOidvu83+L6/RtKfJZ0qKUHJAGDYqc9qSb9Lp9NrV61a1URJMJak6AEIYIo8z+N6drSvZA08ytqQO6RcT6h8b1jXZfrHo51asKCJUAQ1LTJTb75P82bN2dnKXX+rt+EHBsfpF7Dtm9HsrZKCdDp9vZnd4pzb2r+i70clvYIKAcAuzTWzc7u6uo5Kp9NnZDKZ71MSjHjdTgkATPnCt057ADo3zp48o/QINDN1PMsceLlcqGee7aUhoeb1FQsqRdHw5j9itz8ib2CABjM7XtLdZpaVdLkI/wBgol5uZt/zff/X5Vx5HfFBAAhgyupyFeAB1/CTDQK7O0oqFSN2IEmPPtqlkJHkiIHuXK9GWh1o9CAQAACgrHasvN7a2vp8yoHtCAABoBwmGARGkal7S4m69SuWIj35ZDeFwJRUQ4RcjErKlwqDGzxBIAAAqCzPOXdkFEWbmR8QO3YKMQcgAJTPOIPAjmeKYu2UwR5/qkfFYkghUPO6833bDweDDw5DgkAAAIBptn1+wHGtvI54owcggHIgyRpqjCCwkIvU20XQNVQUmh59vItCYCrNrjr2ZYvUW9gZAo4VBAIAAFTAvpJu9X3/7lQqtZRy1CcCQACYLDe+xwwMAk2mrU+z8MdonnqmV7056oPa11PIKbRo0OHCTfgAAgAAUFZvds61p1KpG5cuXbo35agvDAEGgEmz8Xfm6Q8C+zpDFfMs/DGWRx6lFyAm3SKrSne+d9gxgv5/AABghnnOuSMbGhr+4Pv+Wfvuu+8sSlInG54SAIjhdXeFP/r4gsAoMnU8y8Ifu7K1I6fOrjyFwIRVW7CWLxVVKJW2vbMRgkAAAIAZtFDShQsWLGB+wDpBD0AAKItdB4GdzxYVhRxyx+ORxzopAmKhO98ryeS2HxzoAggAAKrLKyXdmk6n7/J9fwnliC96AAJAWY0cBBYLkXq2svDHeHX3FPTslj4KgQm3vmpTikL1Fbb1aN12WBgQBAIAAFTLeZTZWyVl0+n0VS0tLXtRkfghAAQwZc65+uzWNuYF/OAgsOOZIt2tJ+iRxzpkFA0x0FPoUzRgZ94ZBAIAAFSVpJkd73neH3zfP2vx4sWNlCQ+GAIMAFOxy+F8pr7uULkeFv6YqHw+1JNPd1MITKg5VqPIrH8oMAAAQE3YTdKFTU1ND/i+/07KEQ/0AASAchglCDSTOp4uUp9JeuzxTpVKhKeofbliQcWQRYAAAEBNeZWkO1Kp1M9aW1sXU47aRgAIAOU0JAjs2lJSqUhH68kqhZEee6qLQmBcrKrfm6mLXoAAAKAWL3GcOyiKonbf9y9dtmzZQipSmxgCDADT8i0phaGp61l6/EzVk093q1Cgjqh9xbCkXCnPAiAAAKAWNUg6NZFI/DGdTp+wevXqBCWpLfQArGQe4BzdWCqLycMqJIoifkgYQcdTJRaxKMv+ZfrH450UArv+nq2B99iV6922IAghIAAAqE17mdmVDz/88IOpVOodlKN2eHW7eufMeI4SVNSzlADTJem53Fj35/si9XaFFKpcjfm5XvX0FigEal5kpt58TpKixZ2L81QEADAOJkbuofq82jn3E9/3/9v3/VdQjupHD8BKFtvzNlGFCn5LmlHvCqnHHxIiK24d6/6OJxmyWt6zXtPfH9tKIbDLq6Na0FvIqRiG3WvXrmWFGwDAeL/iGA6BavUeSQ/5vn+p7/sLKEf18hi6VzFhMpnMUoYK7tyet5EqYLo8tnv0qKS+ke7r2RqqkOe6vtw6u/Lq6MxRCIyqVkbVmkzd+b56/ZWArtEApqpej59PsulRxRoknSrp9+l0+ljR2awqsVEqdVHi3Pr77ruPIcAVlEgk7tQoAQ0wVevfvL7kpAeG3h6Fpo5nihRomvz90a0UAfFgYb1OU9HBxgcwRVvq9HqynU2PGvB8M7vG9/1MS0vLGylHdWEOwEqd55vdRBUqa8OGDZ1m9iMqgekSme4celvnsyVF9G+ZNr25op5+lvV9EIMTMHk/rtML2MfZ+gCmqC6PI2Z2L5seNaTF87x7fN+/ddmyZS+jHFVy/mlmrEM3/f6ey+W+QxkqL5FInC+JsZgVOCepxw8dedEtAz97sRCpeyvp33T7x+MdCiOaNWqYkxUS0QV1egFLDxYAUxXU6ef+nphGAbVndSKR+IPv+5euWLFiPuWYWfQArMzJ7hmbNm1i+coZ0NbWtknSdVQC0+G7//rzP0o7e5lufbLE+mwVUCiGevLpLgqB4d+3NfI+ZyUb/m/9x9c/U6fnRL9gTwUwFc65X9bj5w6C4HHn3J3sAahBjZJOLZVKD6XT6aNUO9M2x44nLlen263ZbPZWyjCjPi7pb5QB03ISmtBnJBX7ukLle+mVVimPPtWlYokfwVGDxwzPRV6p4UN1fOH+c0nPsicAmKSOrVu3/k+9fvgwDD/L9Ttq2AvN7Ju+7/+6paVlJeWoPBYBmV7ZXC53LGWYWUEQdEg6TEw8Pp3q9kTk5nff9WBo7r+2Pl1iL6joCXCkR5+gSWOwWvg5eZaXvPynn/jp5jr+Ti5Kuoa9FcAkXbt58+Z8vX749vb2jHPuG+wGqHHLPc+71/f9m1tbW19COSqHAHAaj8+e571z06ZNzFZfHRccDzrn3imJlZhRdlG04LPJBvcYlaisJ5/tVi5P8IraMauhof3/nXn3qRwzoy9L4vwIwET1ep73xbr/Lpk16+OS/sjugBrnJL0/iqLfp1Kpc33fn0NJph9DgKfHD5uamt7U1tb2BKWoHplM5t4oit4g6XdUA+W07vB1BW9eYcmsOW4L1agcM9PfH6PkGLBPVPF7a0g0PPzy+fuuYCtJ7e3tT5vZ2VQCwAR9gusr6d577+2SdIikp9glEANznHNrJf3e9/33i/kBpxU9AMvrWTM7JgiC9/QfmFF9Fx2/a25u9iV9SVKRiqBcfnrcfc/NSza8ctbcBPNNVtBzHb3q6slTCFS1WQ2Nv/r5y+/e7+oTruZ7p182m/26pDuoBIBx+nEQBF+jDNsEQfBnSW+S9BeqgZh4iaSb0+n0va2tra2UY3oQAJZHUdJljY2N+2Wz2espR3Vbv359LgiCMyQtlcRKWmXAauLb/ODknz/7szXrXzZvgff1REKsCFIh9ALEjmNRlb2fRMIrzp3VcPrPzvj5G3S4WLVmMMvlcv/hnMtQCgC7OM/M5HK590mcWw0UBMHvi8Xi6yT9iGogNicHZiujKNrg+/43W1paXkhFysvjwn3KO+hPJC0NgmDNfffdx/xyNfalGQTBO83sHWJYMMrozpPuOWm3uQ2LmuYlfk0n9unX2ZPTc1t7KQSqZgiwc06zGhrumdMcPu8nH7v7ErbMyDZt2tRtZgdJuptqABjlWuuuRCLxVuZVH9kDDzzwVBAE7zaz90n6BxVBTDhJR3me94d0Ov2pVatWNVGS8qAH4OQ95Jw7JJvNHhIEwe8pR+3KZrM/bW5uPkDSqWKREJTJf59899/+36nrV87dveHts2Z7T1KR6fXXx7coMn7PwsxrSCb/NtfzWn92xt2rfnzir+ieugtBEHTkcrmDzewCSazqA2C7kqTPOucO2bBhQyfl2OX1zHcl7S/pXEk9VAQxMc/Mzu/q6nrI9/3VlGPqXCqVutc593pKMW7PSTpP0hVBEDCXT8ysXLly90KhsFbShyU1UJFxHkicOy+TyaylEqM79Io3ndnXrc8Wi9EsqjE9Xv6iPfX8PZv7O11u73rptK2f+4CumLa9p5gb3GXMBvxz4N8Mu337f7sRb9+WQ5oG3TXggTb08QP+cFCEueN1bfj72P5cQzLPYa896HVMQ55u0IOGfhYb8iZtlNe1He972+3W/2Ab9O9tj7Edf7vzvqH/nshjbcd7H8djR3xfI/97MhoSiZ5ZDd7H7/zo3VfSGifH9/2UpMskHUg1gLr2S8/zTm1ra7ufUkzcAQcc8KJkMvl5SUeKBRUQr2vOX5jZ6UEQZKnGJGuYTqf/z8xWUopdKjnnrgvD8Jz29vanKUe8LV++fL8wDL8s6VCqsWtmtjabzZ5HJcZ22FX+nGKh+Vt9veG7LeSErNwakgkt2//Fakh4IgAc+O9Br0wAWOYAMOF5YWNj4safvvju/2Sev/JIpVKHOecuk/QyqgHUlUecc5/KZDI3qboXdq+VY6nvnLtY0huoBuJ16WnfSiQSZ7Iq+MTRA3A8RXLu5/1J84NUo760trYeFEXRxZJeSzXGPAoTAE7Auy5/+765Uv57uZ7wAKpRXi/ae6H2ecFuIgAc+O9BrxzrAHDoa09nAOgkNTY0BGpKvOtnp/zsMVpfea1cuXJ2oVA4VdI5kuZRESDWeiV9NZfLnc9cf+XX/6PKpZJeTjUQIz3OuS/NmzfvwvXr1+cox/gQAI7tj5LOCYJgHaWoX6tWrUp2dnYe45w7X9JeVGRE5wZB8FnKMDHvvPqt78t3la4s5KMFVKM8POfUsv+LNatx+wh+AsAhr0wAWIYAsDGZfLIhmfz3n3z0Z/fQ6qbXAQcc8KJEIvEF59wRYigbEEd3hGF4yv333/9XSjF9Fi9e3NjU1PQRSZ+VNJ+KIEb+4Zw7J5PJ3Egpdo0AcGRbJV3Y0dFxyebNm/OUA5K0ZMmS3RobG8+SdLqkRioyCAHgFBzytVWf6+uLzg6LlqQaU7f3Hs3a98Xbs3oCwCGvzBDgKQSACc/LzUo0fOZ/zrjri7S0ykqn08vN7FJJr6MaQCxkzey0bDb7S0pROb7vv8A5t9bMjpWUoCKIkf+Nouj09vb231CK0XnOOeZX2Ckys5uKxeKrgiC4iPAPAz344INbgiA42zm3VNKPqQjK5c6T13+6cbfi82Yv8H7iPOa8maqnn+1WTx+Hb5SP85w1zWr8QdOcOQsJ/2ZGJpPZGATB651zH5TEnD9A7XpW0mmLFi1aTvhXeUEQPJ7JZE6QtNw59wsqghh5s+d52VQqdeOKFSueRzlGOaf1ff9XYrU1SbrbzE7PZrMPUAqMR//8gJdIWkw16AFYLgdf88aWUrf7br43eiXVmLyF8+foNS9/vugBOOjRGvJ0gx7EEOCRewDOakj+Nmnu3T858+4/07Kqw9KlS+c2NjaeYWZnS2JldaA2FCVdIekzQRB0UI7q0D8/4CWSFlENxEi3c+7LW7du/QKdugYjAJT+JOlTzPOHyfB9v8HMjnbOXSBpzzouxWeCIPgce0T5vPOqVR/MdUdfLeatmWpMzuJXvEAL5s0hABz8ygSA4wwAG5Lec40Ns479yen/74e0pqq9cN3XOfd5SaupBlC9zOwuM1vT3t7+O6pRhedLzA+I+CLrGcL5vv9LSf9Uh599q5jnD2WycuXK3QuFwrmSTpRUj/O4EQBOyxmzvHdcvuqyfE/04TA05mmZoLlNs7T0VS+SZ04EgASA4w0AXULFWY3Jr/z09LvPphXVhpaWlrd6nnexpCVUA6gqf3DOfTSTydxJKaqf7/t7Svq0pJPE/ICIEefcz6Mo+iijPSWvDj9zZGY3JZPJ/ZnnD+Vy3333PRcEwZr+iw9OclCmbytF/3Py+pMXzm96YdO8xD2O9S8npCeX1zNbuilEXTWZqZwcypoaE3fNnj13T8K/2tLe3v7z5ubmlJmdIOlpKgLMuC2Szs7lcksJ/2pHEATPBEGwJoqipc65/6EiiAsze6tzLkin01ctXbp077o+V/Z9/xeS3lAnn5eVYVAR/fMDXirpNXXykT8dBMH5bPnp9c6vv/UN+Xx4U6Ev3IdqjE9jQ1L+/i+V5wb83kUPwGGvO+QtDn78sNeO3yrADQ3JhxuSiX/58Zr/91taTW2jRz4woyIzu9nMPtbe3k4YX+P65we8WNIrqAZiZIuki3K53MWbNm0q1NuHr5cAcLOkTzL2G5Xk+35D/wXIWkkLY/5xCQAr6JAr3/zRXHd4QalgTVRj1/Z5/h568d677byBAHDY6w55i4MfP+y14zMEOOm5rmRj8qQ71/zsJlpK7L6D93fOXWxm76AaQEX8r5mdxhC72F7PnCdpARVBjPzRzD6WzWbvqKcPHfcAkNVfMOMG9EaI83waBIAVtnrt6sbuPZ+6MtcTfTAM63I6h3FLJjz5+79MyUR/mQgAh73ukLc4+PHDXrv2A0DnXJhsSl77k5P/30fkFNFK4osVLoFp9w/n3DmZTOZGShFfy5cv3yMMw8+I+QERM2Z2l+d5p2cymboYBeLS6fQ9ZvbGmH2uyMxubmhoOGPDhg1PslujSi5CXi3py865g2N3INl24ncBW7nyDvvGP78831tYl+sN/SHpEAZ40V4L9bIX9C/UTQA47HWHvMXBjx/22rU7BNiZU7LBu9cSyff85NSfMDytTrDCJTAtepxzX5o3b96F69evz1EOrmeAGlZ0zl1vZp8KguCZOH/QOAaA6z3PO72tre1+9mNUo/75AS+T9OrYHEgIAGfcIZevekehYDcW+qK9qMZwnnNq2e+laprVQABYpwGgl3SPz0m61f99ys/upUXUJ9/3X+CcW2tmx0n0nAYmySR9T9LHgyD4O+Wo6+uZeprvHPXhKc/zPtDW1nZXXD+gS6VS651zb4rBZ/mzmZ2ZzWb/m/0W1W7fffedNX/+/FOdc+coBr0RCACrxyFfW3VOX1/06bBojVRjsL0WztN+L30+AWCdDQF2ntebaHRn3nHyTy+nFUCS0un0cjO7VNLrqAYwIb92zq3JZDIbKQX6e1efIukcxX++c9SPkqR3B0Hw4zh+uDj8+tkp6eyOjo7FhH+oFZs3b85ns9kvJpPJ/SR9Q1JIVVAOd568/vx583t2m9Oc+IGXcAwKHuDprd3q6mWUUr3wPBc1NCZufcncly0k/MNAmUxmYxAEr3fOHSXpUSoC7NKjZnZkEASvJ/zDdps2bSoEQfDlKIr2k3Ql1zOIiaSkG1tbW18Sy/PjGn7vkZnd5Hneq4IguIhFPlCLNmzY8GQQBMeb2RJJP63ZxhhFBE1V5PYTgt7/OWX9v87aLbFk1pzEb6nITn99/FmKEGOu/3+TDd5vmpKJfW4/9af/fvUJVxepDEZgmUzmJkn7OefOk9RHSYBhCpIua2pqenU2m/2WxGzDGK69vf3pIAg+Ium1ku6kIoiB3aMoWhPLc2Xf9/9X0qqaOmMzu6d/pZZ29k3ESTqd/jcz+y/V2GqFZvapbDb7ebZgdTrk629+f74vvKKYNya/l/TqfV6g3ebPFUOABz8oDkOAXULPJDx3xI9O+Z+fsqdjIpYvX/7yMAz/S9J7qQYgSfpeGIZn3H///X+lFJiI/tXXvyRpP6qBGvZsEAR7KWY/fNRaALh9mfmbxC9QiCnf9xsknSjpPEkLauRtfzIIgi+w9arbIV9b9bm+3ujssGTJeq7D7FkNWvbKl8o5jwBwwINqOQB0nhW8pPv8D0/6n/No6ZiK1tbWN/VPbH8A1UCdesjMTs9ms/yQgildz5jZ0c65CyTtSUVQo14YBMHjcfpAnmojSOuS9Mnm5ub9MpnMjSL8Q4wFQVAMguBSz/P2l3StpKja37OZObZc9bvz5PWfnrfAe8HsBd5PXKJ+j6N9+aKe2tLJDhEHzizR6G63LY27Ef6hHNra2u5ZtGiR75z7sKRnqAjqyDPOuQ8vWrRoCeEfynE9k81mr04kEvs75y7XtoUVgFrzgtidOvu+f7ekN1dvrmDfSiQSZ7a1tT3B/od6lE6nW6IourjKV+umB2CNOezqt7bmeku35HujRfX4+RsSCaX2f5kSbsBUuPQAHHJ/dfcA9BL2J3nFf/nBSXc9RIvGdFi2bNnCRCJxtqTTJM2iIoipknPuOjP7VBAEhN6YruuZV5nZlyQdSjVQK6Io2ru9vf3pOH2mag4Af9nf/Txg1wMk3/dXS/ovSS+rwrdHAFijDrnyLUfne8LLivloXr199pc8b3e9ZK89dt5AADjk/uoMAF3StriEd/x/f/iO79GCUaHv3/2dcxeb2TuoBmJ1Iejc/5jZ6UEQ/J5qoBLS6fQhZvZlSftTDVS5R4MgeHHcPlQ1rgL8iHPug0EQvInwD9gfjmf7AABeWklEQVQpCIJ1uVzuVdrWE6Haxi8yLL9G3fnhu68Pu9xuc+d7V7tE9Q83L6fHnt6qQokRKbVzoWoll3CX/+CkO3cn/EOFv39/n8lkDvY8722SNlERxMCfJB2eyWQOJvxDJWUymTubm5uXmNkJkp6mIqhiV8XxQ1XTHIDdzrlzGhsbmecPGMWmTZsKQRBcqm2/mt0g1Vdgg+mxfu360k9OvueEBbs3vrBpXuIe1cmMjmEU6R9PPccOUAsnK8nonkRjYc8fnHzHyVQDM6Wtre0uSS2SPiapg4qgBnVI+ngul3ttEATrKAdm5Lxz/fpSNpu9urGxcX9JX5VUpCqoMn9tbGy8PI4fzKXT6bvM7K0z+B4iSTdFUfTJ9vb2x9jXgPFLpVK+c+4SSf80w2/lE0EQXMgWiYdDvvbWtxWLpevyfdGL6+HzLnvlSzVn1iyGAA95Q9UwBFie/c3J/m3diT9mRACqytKlS/duaGg4X9Kxqs4RNcDQ661ri8XiOQ888MBTlAPVxPf9/SV9WdIhVANVoFPSm4MgyMbxw810AHiv53mnt7W1tbGfAZNvx6lU6nDn3EWS9pmh90AAGEOHfv1NZ/T22mdLBWuK8+fcvXmu9t/nhQSAQ97QTAaA8qwnSuhj3zvh9qtoiahm6XS6RdIlZvZGqoEq9Uvn3JpMJtNOKVDNUqnU251zX5H0GqqBGZI1s3/PZrOb4/oBZ+oXy+3z/L2B8A+YMstms9/N5XL7aebmB2TIfgzdceI9X+x7aXH3eQsS30p48R1u/lxXjzp6+tjg1XFWEioZXW97Ni0g/EMtyGQy7ZlM5k1m9i5Jf6EiqCI75lUn/EMtyGazP21ubj6gf35Aeqqikp6VdFpzc/OKOId/UuV7APZK+moulzt/06ZN3exnQPm1tLS8MJFInGtmx6lCIb9z7qxMJvNfVD++Dr7sLa8ILfp+ric8II6fb96cJi19+UvoATjo/sr2AIwSUeAl9a5bjr2N6UBQk1auXDm7UCicKulTkpqpCGYI11uoecuWLVuYSCTO1rbODbOoCKZJn6TLJH0hCIK6mNu3UgGgSfpeFEVntLe3/439DJh+/fMDXizpDdN+ICEArBvvvOrN78z3RjcU+qI94/bZ9nvJC7TH/Hk7v7UIAEd4L8Nfd8oBoBc96Zkd/u0P3/YLWhjioKWl5YXOuQudc0fsPJAAFXFHGIan3H///X+lFIiDZcuWvTKRSFwgaTXVQBmZpO+FYXhmvR0vXSqV+plz7qBpq6xZWyKROK2tre3/2M+AykulUoc55y6T9LJpO5AQANadQ7626nN9vdHZYcmScflMTY0NWrbvPnLOEQCqAgGgs1zUEH36lmN+9CVaFOKotbW11cwuNbOVVAPTLGtmp2Wz2V9SCsT0euYt/R0bllINTNHdks6I6yIfu+I556Zr7q5/SPpANptdQfgHzOAZYTZ7u6TFks6V1DMdrxFFEXMA1pk7T17/aZvr7TanOfED58VjDshcoagnnutg4043ZxYlwh9syecWEv4hztra2toymcw/mdkxkp6gIpgGTzjnjg2CoJXwDzG/nrl70aJFKUkfkfQ0FcEkPGRmhwVB8NZ6Df8kyfm+/11Jh5fxOZl3AqhS0zU/oJkdnc1mb6DC9enga97YEva4m/M99mqr8SwwmUio5ZX7KOklRA/AMvcAdFLkhb81z/uXbx/z/YdpOagnS5cundvY2HiGmZ0lqYmKYIqKkq6Q9Jl6mbcK2G7x4sXzZs+e/XEzO1vMD4hde1bS55qbmy9fv359qd6L4Xzf/4Kks8uRAUj6djKZPHvDhg2PsJ8B1cv3/RWSLpH0unI8n5m9kV+eccgVbzoy32uXF/NW05Pfv3DP3bTP3nuKALB8AaB54XMlFY/9znG3/5CWgjr//n2FpC9L+heqgUmec90m6WNxX6kS2JX++QG/yPEUo+hzzl08a9asC++9994uyrGNS6fTB5rZr6b0JM5lzOz0IAh+RUmB2mn/vu+/V9J/aWrzAz4h6aVBEBQpKWTyDrnyTV/q67JTanV+QM9zannFPmpsaNz+mQgAJxkARs4KoSt85eZjf/QJGgewk+/7b9a2H+KYzwrj9Qfn3EczmcydlAIYdjz9iqRlVAOq4wU+xnWdk8lk7nXOZSb594+a2ZGZTGY54R9QewfHIAjWSVrsnDtP24bvT5hz7muEf9i5Qyi68yP3fHTPPee+sGle4h5Xg+tfRpHpb089x7ac0n5gFiZKdyVdfk/CP2C4IAj+t7m52TezkyVxwMFYnpN0anNz82sJ/4CRj6eLFi1Km9kJkp6iInXtfyWlgyA4nPBvtEs1ScuXL98vDMM2SfPH+Xd9ki5ramq6gO6UQDwccMABL2poaPjMROYHdM7dZ2ZvIgDEaA656s0rin3Rt/O90aLa+nJ0eu2il2heUxM9AIe99tg9AEOv+LC8wru++aHbN9ECgF1bsmTJbo2NjWdJOl1SIxVBv8jMbi6VSh9/4IEHCDWAcWC+1br1B0mf7u/cgjGvcfq1tra+KYqiWyQ9f4zHm5l91zl3VhAEf6d8QPy0tLSs9DzvEknLxzx4OPdzM3tfEATPUDXsyiGXv/n0XG/4+VLRauZkbP7c2Vq8z0sIAIe99sgBYOSVOkth8eSbjvvhTezxwMS1trYuDsPwEufcQVSjzi/Qtp1jnR4EwYNUA5g43/df4Zz7LzP7V6oRa09JWtvc3PwNFvgY5/fLkIbyAkmflnSUpLkD7ook3R5F0UXt7e33UTYg/seGVCq1WtIa59zrh9z3e0lfXbRo0VXr1v3/9u48Pq663v/4+3MmSZd0Yd+7CAgiKksLLngVFTcUvfdKqkKXzEyarbSUHQVhkFW2FgrZmplJi3ivDXjv74rKVbx6va5AqyKrsrbIolCgJW2WOefz+4OKBVlLJjkz83o+zONhhuR7vvP5fJN8590z5/SGlApv1JGZI6vG7eTX9vdFDWE4fHehLqYDpu6p7WprCQBfIwAMFYVh1VB2xZwbm2UlfhtoIAZmzpz5eXe/XNK+VKPiPOjup65Zs+Y/KAUwLL9Pj3T3JeL6gOVms5ktSSQS3/jNb36zgXK8iRf5r/TgEUccMXFwcPDdURRNj6LoySAI7l69evXjlAuoPDNmzNjd3fd195rq6uoHb7311oclXuRj2/1z+5HTNw3p3wb6ove5x3spjR9To4P2nk4A+AoBoMsVBYVfVA30/3NX03c5ExgYRvvuu++Y7bbb7kR3P1vSRCpS9p6XdNFzzz135f333z9AOYBhFcycOTPp7hfotd/tiPiL3P36RCJx1m233baOcrx5RgkAAKPhU+3/9Mlws60c6PddYv1CfPddtdN2k1/4hABQkiu0ocejxOCx+Tn/75esZKB4ZsyYsZNeeHfOAkkJKlJ2XNINkk7l8kpAcXF9wNJmZr8Kw/AU3pH6FutICQAAo+mz7R8+fVOfvl4YjMbEcX41VVU6aJ/pSgRBxQeAkRU2FSw8rWfeDW2sXGDkzJgx41BJSyX9E9Uomxezt5vZibfddhv/kAKMoMMOO2xKGIYXmtlskYeUAm7wMZx/eygBAGC0HdM5Y/zQ4MRvbt4U/rOH8fvbNHXnnbTHTjtUbADo7tFQMHhDdf8Os7uaurjrNzBKDj300GPM7GpJ06lGyXrM3c9bs2ZNt164zjqAUTBjxoz3mtkSd38/1YilpyVd1t/fv+Suu+4apBzDgwAQABAbn+34+NsHB4Z6+/vCg+I0r0QQ6OB93qbqxFbvwKuIANBVCIZ+bwPhZ7vnf+dRVigQixet4yUtlHS2pAlUpGQMSuoYO3bs2b/4xS82Ug4gFmzGjBnHSrpc0lTKEZ/flZLOWb169XOUY5gXPCUAAMTN0R0f/vJAn7cPDfjkuMxpt+230/Rdt7pcYZkHgKENPRV6eHyu/oYfsiKB+Hnve9+719DQ0EW8ja0k3BQEwYm33Xbbg5QCiJ8ZM2aMN7PT3f10SeOoyKhwSTckEokzbr311ocoR3GwWQAAxNbR1xx5/uZN0ZlhwatG/w+m6aC9p2tsTfWWbUp5BoChhYOhD12Qm3fD+axAIP5mzpx5uLtfJel9VCN27nH3k9asWfPflAKIP/5hZZT22NzgYwRfzwAAEGMfu+bwHats3HX9z0efGu3rA+4wcYL223OPFz4pswAwUuRhULjpye02f+m7x3x3EysPKCnBzJkzZ7v7pZJ2pRyjbr2kr++9997X9Pb2hpQDKC0zZ848PIqiJWb2AapRVH+UdDY3+Bg5BIAAgJLwz20fnNE3mFg1sCnaezTnceC0KZo4blxZBYCFYOhPQ4nC53qOu/FeVhpQug488MAJ48aNO9Xdz5Q0hoqMuIKZ5dz9rNWrVz9FOYCS9rfrA14maRrlGFbc4GO0FjUlAACUkqOvPbK+v9+vLgxEE0fj+BPGjdO7pk0piwAwDIaeKQTR/Nxxq25kZZWuTCYT/Pltf963KoreKbNd5NFkd5vsUp9Mz5n5c1Hk92+uKtx53dzr+qhY+Tv44IPfnkgkLpRURzVG6EWV2Y8lLb799tvvpBpA+eDGS8OKG3yM9t8qSgAAKDmrlPj0Xz7ctqkvavBQwUgffr8999AOEyaWbADoFhaGbLCze/YNJ7CYStP8FfP3S0T+r5J/VqaD5G/oRUko6X6Z/sci/86ua6f+NJPJFKhm+TrkkEM+FgTBUknvohpF8ydJZ/EWNqC8HXTQQXtWV1ef4+4N0sjvPUscN/iICQJAAEDJ+pf2T+zSNzS4qr8v/PDL0rGiGlNTo4OmT5eZ/X1b87cdTowDQJdrSAP/+9wYfb53Vi//8lpiGjsbqxPV4XFuOlnSe4ZhyKddlkuocGVbsucJKlyejjzyyKoNGzakzOxCSTtRkWHzvJld8eyzz158//33D1AOoDIcdthhh0VRtETSEVTj9ZnZr8zs1Ntuu+2XVCMG/aAEAIBS95m2o44aHBjKD2yO9hqpY07fZVftuv12L3xSAgHgUDD4yIDCL6w4vnc1K6a01K2qS+y0aXLa3b8iaXoRDtEvU3dhyC7ont/9JBUvT+9///t3GBwcPFdSq6QqKrLNIne/vrq6+rTf/OY3/LwAlelv1we8tEh/l8sBN/iI48KlBACAcvHpa488dWBzdH5h0McW+1jViYQO2ntvJYIg1gFgZEN9A4nBk3JfvnE5K6T0tK5IfSSKbImkg0ZgU9jnssurN467eNmiZZzRVKZmzJjxDjNb4u6fohpv2q3ufuKaNWt+TSkAbHV9wLMkTaQikrjBR6wRAAIAysqR+SPHjt+k5Zs3hseFUXGv0bLHDjtqys47xTIAjCwMC1ZY+UxVNL93Vm/IyigtrbnklMiCCyXNGYXd4f3m+mp7Msu/2pexQw899BgzWyppb6rxuv5sZl+9/fbbr5NG8oITAErBIYccskcikTi3wq8PyA0+SgABIACgLH2m7ai9h4YK3+nfFB5UrJdrgQU66G1vU03V399NN9oBoMtVsP7ViWr/bNusXq7rVmLmrJxTWxuOOU3yMySNHeXp/DhSeFJXsucPdKY8HXjggTVjx45tkfR1SZOoyD/YJGlZf3//BXfdddfzlAPAazn00ENnmNkSSf9UQU+bG3yUEAJAAEBZ+2zHR47u3xz1DG6Odi7G+DtPnqy9d93t77ugUQwAh2zoyUI4WNc954b/o/Mlt322lp70sS5dLmlqjHaKBY8850NVZ3U1dT1Fo8oTZ6+8opvCMFz4u9/97mFKAeDN2HKG9VWS3lbmT/XXQRCcwg0+SgcBIACgIhx9zZHnb94cnREOefXw/iE1vWvaVI0f88LJWqMRAIYK+wtV/Wd3ffGGK+h06WnNzz8sUrhUsg/EeJrrXfr67o9MuTaTyRToWnk65JBDZgZBsFSVfXfLNe6+eM2aNfxDCoBt9v73v3/c4ODgIklfVfmdYc0NPkoUASAAoGJ84rL31AZjd7iuf1P0z1How/Y3cHLtBL1jzz0ljWwAGHrkg0H/fz6b0Jd6Z/VyoeUSc0I2tceQ6VwzK6Gzrvxel53UmczeTAfL9/XBlrtbxuts1OJ7WtL5e++99zW9vVw3FcDw2OoM67SkRBn8nuQGH6X8B54SAAAqzdFdRx48tNm/PdAX7TdcYx6w116aNL52hAJA12AwcKeFQ59vP/7GB+loaTlpVd24/r5Ji7yU7xpofpNFOrE9lWP9lakZM2aMN7PT3WNxPcpiGpLULi5cD6C4v1MP3XIH9g+V4PS5wUeZIAAEAFSsT3UcOXuoL7p2aMDf8lszaseM0YHTpkluKmYAGAaD6we9P7n8y9/5LzpYepry6WMC6Sovj+sCDcq9o7pm4GvLZl+/ge6Wp8MOO2xKGIYXmtmccntu7n6Lu5/429/+9m46DWAklNgd2LnBR5khAAQAVDZXcHTHhy/fvNEXhgWveitD7bPb7tpx4iQVIwCMFA4OWP+VXV/q/QpNKz3NK9KHKNJSSR8qw6f3uJlldn14r+5MJhPR7fI0c+bMI919qaSDyuDp3GdmJ99+++3fp7MARlqJ3IGdG3yUIQJAAAAkHdN55E5DBf3b5o3hUb6NEUZNVZXeM/1tCuzvf17fagDoFvqQDfx4YGztv+Y+n9tIp0rLghVzdwzDqnNktkClf+2f19tV3i5pcUd99hd0vmwFM2fOnO3ul0napQTn/4ykb3D9KgBxMGPGjJ0kfU1SnPYI3OCjrLdqAADgRZ/rOHLm5n7/9sCmaJvemjFlp521+/bbv/j5WwkAB23gwaGqgc8tP/bGu+hMaWnsbKy2mrDVpPMkTa6gp+6SbogSiVO75natZSWUp4MPPni7RCJxpqSTJNWUwJQjd7++UCicescdd/yFDgKIk5kzZx4SRdESM/vwKE6DG3xUAAJAAABewdEdRzYP9PnlQwNR7Zv5vkQi0EHT9lZV4oWbum5LAFiwoQ0F72/t+NIN19OJ0tOSSx0VmS016cAKLsMmyS7rV+GSnmRPP6uiPB1++OH7hWF4paTPxHiaP3H3xWvWrLmDjgGIsy3XB1wiaZ8RPCw3+KggBIAAALyKulV1ief/8pe2/r6oIQwVvNHv22377TV1p50lvbkAMLQwHLCBbGfdt5tlLz0hEPE3f8X8/YIoutLiHYaMtHVufnZnfW4lpShfhx122FFRFC1VvELvdWZ29u23387aA1AyZsyYUS2pVcV/BwE3+KhABIAAALyOL/3bx/d49qmhVZufD4/wNxDLBWZ697RpGlNd84YCQJdrwDb/IizYP3cd929PUfHSsjhfv91mJc600nk75Gj4qUe+uDOd+z2l4EVrkfWZ2eUTJky45Kc//SlnnwIoSYcffviOYRieo+JcH5AbfFQoAkAAAN6gz3V89EP9A9H1/X3hXq/3tTtOnKh9dtv9dQPAAet/VFVDs679195fUeHSkslkgsenr51trssk24WKvK5I0vVKVJ/aMbeD67DxonW4uaQbJJ26evVqrj8JoCwceuihBwRBcKW7f2oYhuMGHxWOABAAgDfpM+0fOqW/zy4YGozGvtbXvXPKVNWOHfuKAWDBCpsGgv5TOo9d1UFFS0/ritRHosiWSDqIarw5Lj0bSJc8VbthSe+sXi40XqZmzJhxqKSlkv5pBA73azM78fbbb7+VygMoR4ceeui/mNklkvbbhm//i7t/3cy6Vq9ePUQ1KxcBIAAA26A+f+TYJzerY6AvOq4w5NWv9DWTxo3T/ntNeUkAOBgUNg2G/V3rzU/tndUbUsnS0ppLToksuFDSHKrx1rj0x8B0cnt99ntUo3xfaxx66KGzzOxSSVOLMP6f3f3MNWvWXC9x3VQA5a2uri7xwAMPfMnMmiV9QHrd61P/3sy63T23evXqTVQQBIAAALwFn7563zFWM+XkcDCaPTTo+xSGfMzWL0P33WMPjamqigbDwT/X1EbfaP/CjW3c4KP0tF7bOsFrB77qrpMkjY3x1m6NyS+xUL8Nq31ni6xB0jyN7Fsx3+xm9LuRwlM6kz1/YqWVp/e///3jBgYGTjez0yWNH4Yh+939ikKhcPEdd9zRR4UBVJpDDjlkDzP7oJkdbGa7ufsESZsl/cXM7nD3X65evfoBKoWX7bkAAMBw+cTK99RWbdrhAA+sNhosbAz2nnDXD47+wQCVKVEua+lJH+vS5SrOGUzD5WmXzl9fu+Gal59Z2rqy4YAojJZI9skYz39I7u3RUNU5XU1dz7HwytNBBx20ZyKRuNjMZr+F1yE3BUFw4m233fYgFQUA4I0jAAQAAHgFrfn5h0UKl0r2gRhP8w0HZ0359DH2wjXZ9o7x83nVIBPlY8v1Ac+W9Dm9sbNTQ3f/XhAEF3KdPwAAtg0BIAAAwFZOyKb2GDKda2YNev3r64ziLs5u8Sg8sTOVv/uNfkvdqrqaHfomtZh0vqSJMd6irjFpcXuy+/9YkeXrve99766FQuFfzOwIdz9I0q6SJkjqk/SkpN9L+mUQBN+57bbbnqBiAAC8hd0VJQAAAJBOWlU3rr9v0iKXzlKswzHd57KTO5Pd39/WAUon5PSb5NHCjmTPw6xQAACAt7CtogQAAKDSNeXTxwTSVS69LcbTfMakbzxVu2FJ76zewWF53tnUTAtsqaQjYrxd3ezyqxObxlzQtqDteVYrAADANuyoKAEAAKhUzSvShyjSUkkfivE0I0nXK1F9asfcjr8M++glc6MT+7Nb9NXOebnruJM2AADAm9xJUQIAAFBpFqyYu2MYVp0jswV6YzchGBXu+kmQsMXt87rvKPaxGjsbxwc10emSnyFpbIzbd6vJTmxPdv+alQwAAPDGEAACAICK0djZWG01YatJ50maHOOprnPzszvrcytH+sCtueSUyIILJc2O8V4xknR9oWCndc/vfpKVDQAA8NoIAAEAQEVoyaWOisyWmnRgjDdmfS67vF+FS3qSPf2jOZfmfMORki+VdFDc61W9cdzFyxYtG2CVAwAAvOq+CQAAoHzNXzF/vyCKrjTpMzGepkv6ZqDw9LZkzxNxmVQmkwken752trldKmnXGNfvTyad1Z7M9rLiAQAA/hEBIAAAKEuL8/XbbVbiTJNOklQT35n6bR7oxM55uV+VQC0XSxoT47b/WKEWdzRk7+QnAAAA4O8IAAEAQFn5+1lrukyyXWK8DSu5u9rOXzF/v4SHV8jtszHe3RY88pwPVZ3V1dT1FD8RAAAABIAAAKCMtK5IfSSKbKmk98R4+7XZ5VcPRX5hLp3bWIp1LoXrKUpa79LX19duuKZ3Vm/ITwcAAKhkBIAAAKDkbXXn2jnx3nn5TYUgWNQ9t/uhUq95Y2djdWJMlHT5hXLtFNuJuu6RgpM6Usv/m58UAABQqQgAAQBAyZqzck5tbTjmNMnPkDQ2thN1/dYDLe6sz/6s3HqQ7k7vUB34uTJbICkR312v32SRTmxP5R7kJwcAAFQaAkAAAFB6XNbSkz7WpcslTY3xTJ926fxKeBtq68qGA6IwWiLZJ2M8zUG5dwy6zi7Vt18DAABsCwJAAABQUlrz8w+LFC6V7AMxnuaQ3Nujoapzupq6nquk/jTl08eYtFTS3jGe5mNmdt6uD+/VnclkIn6qAABAuSMABAAAJeGEbGqPIdO5ZtYgKYjv7spu8Sg8sTOVv7tSe1W3qq5mh75JLSadL2lijHfCtwdRcGJbavkv+QkDAADljAAQAADE2kmr6sb1901a5NJZinGY5NIfA9PJ7fXZ79G1F5RIaOuSbogSiVO75natpWsAAKAcEQACAIDYasqnjwmkq1x6W4yn+YxJ33iqdsOS3lm9g3TtFfqYTc20wJZKOiLGm+I+l13er8IlPcmefroGAADKCQEgAACIneYV6UMUaamkD8V4mpGk65WoPrVjbsdf6NrrKJ0bt6xz87M763MraRoAACgXBIAAACA2FqyYu2MYVp0jswWSEnGdp7t+EiRscfu87jvo2pvT2Nk4PqiJTpf8DElj6TEAAEDxEQACAIBR19jZWG01YatJ50maHOOpcnbYMGnNJadEFlwoaXaM96SRpOurPTplWSr/V7oGAABKFQEgAAAYVS251FGR2VKTDozxhonrwxVJc77hSMmXSjooxtPkOo8AAKCkEQACAIBRMX/F/P2CKLrSpM/EeJou6YbAo1PaUvl1dK04MplM8Pj0tbPN7VJJu8Z4qve57OTOZPf36RoAACglBIAAAGBELc7Xb7dZiTNNOklSTXxn6rcFnljcllr+S7o24mtjsaQx8d1B2y1BoEVtc7vvoWsAAKAUEAACAIAR8fezvHSZZLvEeKqPmdl5uz68V3cmk4no3Mibv2L+fgkPr5DbZ2M8zSG5t1fXDHxt2ezrN9A1AAAQZwSAAACg6FpXpD4SRbZU0ntivC3a7PKrhyK/MJfObaRro68Urg8p01PuumB97YZremf1hnQNAADEc8sCAABQJFvd6XVOvHdEflMhCBZ1z+1+iK7FS2NnY3ViTJR0+YVy7RTjRbQmiqITu9K5n9M1AAAQu50KJQAAAMNtzso5tbXhmNMkP0PS2NhO1PVbD7S4sz77M7oWb+nu9A7VgZ8rswWSEvHdXftNiYKdcG1D9hG6BgAAYrNFoQQAAGDYuKylJ32sS5dLmhrjmT7t0vm8bbP0tK5sOCAKoyWSfTLG09zk0rLEpjEXtC1oe56uAQCA0UYACAAAhkVrfv5hkcKlkn0gxtMcknt7NFR1TldT13N0rXQ15dPHmLRU0t4x3mk/6vKzOuflrpPJ6RoAABi9bQkAAMBbcEI2tceQ6Vwza5AUxHfXY7ckZIuvrV9+F10rD3Wr6mp26JvUYtL5kibGeMP9m9CjE7tS+d/QNQAAMEr7EQAAgDfvpFV14/r7Ji1y6SzFOHxx6Y+B6eT2+uz36Fp5KpEQOpJ0faFgp3XP736SrgEAgJFEAAgAAN60pnz6mEC6yqW3xXWOLj0bSJc8VbthSe+s3kG6VgHrMpuaaYEtlXREjHffz8vtiuqN4y5etmjZAF0DAAAjswUBAAB4g5pXpA9RpKWSPhTjaUaSrlei+tSOuR1/oWsVpnRuRPMnk85qT2Z7aRoAACg2AkAAAPC6FqyYu2MYVp0jswWSEnGdp7t+IveTOtO539O1ytbY2Tg+qIlOl/wMSWPjuxvn2pQAAGAEthyUAAAAvJrGzsZqqwlbTTpP0uQYT3Wdm5/dWZ9bSdewtdZcckpkwYWSZsd47zvk7nkfqjqrq6nrKboGAACGGwEgAAB4RS251FGR2VKTDozxRqbPZZf3q3BJT7Knn67h1TTnG46UfKmkg2I8zfUufX197YZremf1hnQNAAAM474ZAADg7+avmL9fEEVXmvSZGE/TJd0QJRKnds3tWkvX8EZkMpng8elrZ5vrMsl2ifHqvkcKTupILf9vugYAAIYDASAAAJAkLc7Xb7dZiTNNOklSTYx3L7cHUXBiW2r5L+ka3uJaXyxpTHzXut9UCIJF3XO7H6qEvsxfMX+/RBh9RKb3SXqH5HtLNknSWJkKcm1waa25/dEsut2U+Olfa59dw9mSAAC8kS00AACoaCVzVpT0mJmdt+vDe3VnMpmIzuGtmr9i/n4JD6+Q22djPM1BuXcMus7OpXMby60HjZ2NOyVqwnQkzdnGyw08ZtK/h0os70p23cuqBgDglREAAgBQwVpXpD4SRbZU0ntiPM2yDkAw+krhepcqswB8YS6585DsbJk1SBo/DENGJv1nYME53FEZAIB/RAAIAEAF2urOqHPivVOprLdAYvQ0djZWJ8ZESZdfKNdO8Z2p3+aBTuycl/tVSRbaZU09qSaTXSRp+1f5qiGZ7pPrAUl/kangkScCs53c9TaZvUPyca/2vSYtCwcTX+tq6trEygYAYMu2mhIAAFA55qycU1sbjjlN8jMkjY1vRqDfBR4tbk/l/5euYSSlu9M7VAd+rswWSErE90dE3wwUnt6W7HmiVGrb2Nm4k9WEPa94gyHTU5L+3aX/9IHEr14rvGvsbKxWVeG9FthnTTpO0pRX+LK7FeqLHQ3ZO1nVAAAQAAIAUBlc1tKTPtalyyVNjfFMn3bp/PW1G67hwv4YTa0rGw6IwmiJZJ+M8Ua+z2WX96twSU+ypz/O9Zy/Yv5+VVF0s0tve9lzeMjlF1dvrF25bNGygTc7biaTCZ6ctu4LLp2tl1/KwPS8u+o6k9mbWdEAgEpHAAgAQJlrzc8/LFK4VLIPxHiaQ3Jvj4aqzulq6nqOriEumvLpY0xaKmnvGE/zAZO+0p7M9sZxci0rGt7jkd8iaeeX/MzLLhqu8LJuVV1ih75JTSZdLGnSS45jPrujPreK1QwAqGQEgAAAlKkTsqk9hkzn2gsX2Q/iuxuxWxKyxVy4H3FVt6quZoe+SS0mnS9pYnxn6v9jQXBS+7zuO+Iyo9bu9L5RQv8nabetHn5EgWZ1zMveWpzj2bclP3Srhwflwec6Usv/m9UMAKhUBIAAAJSZulV1iR03TTrFXOe4VBvfmfq9LjuJt+ehVDSvmLunouqLJc2O7T7aVHC3a3wwOGu0b4LRem3rhGjcwK0yHbDVw7+PqhKf7prT9Xixjjtn5Zza2kJNr0yf3urhDWEQHLZ83vI/spIBAJWIABAAgDLSlEu+0yzISzo8rnN06dlAuuSp2g1Lemf1DtI1lNzPWTY10wJbKumIGG/yH3JZqiPZ/dPRmkNzvuGbkh+/1c/+XVXB0Ievnbfy6Zd83Yr0IRb6jq/5fCzxnKQheeHpXdZO+3Mmk4le6+vrVtXV7Ng38b9edg3H31dvHP/ebbnWIAAApY4AEACAMtGUa/iimfcovnf3DU22PBwMvtbV1PUUHUNJc1nTitQcc7tY0h4xnWVk8jPbk7nLRvrALT3pz7jrpq0e+mvg0Yy2VH7dy7+2OZ+6+U3ebGWTzP/HpOXt9bn/erUv2nLX819J/u4X22Y6t7M++3UWMACg0hAAAgBQBpry6RNNulLxvdbfTz3yxZ3p3O/pFspJY2fj+KAmOl3yMxTX8N3UvdvDU1oymUxhJA638OqFY4YmbrpX0vQtD7k8+PSrXYNvGwLArZ6b3xANVB3X1dQ19Er/uSWb2l+Brd7qcgj9UnhAR7LnYVYvAKCSBJQAAIDS1pxvyGy5S2ns/q6b9JDMj+1IZj9C+Idy1NXUtakj2Z0pJOydkm6M5SRdDU9Me7RHPjL/+D84sS+pv4d/krSyaDfgcDs2GBNe+Wr/uT2duy9yZbZ6aKx78BVWLgCg0hAAAgBQwlry6eMkPyeGU9sk2XmbFb6zoz53I51Cueue2/1QRzJ7rGQfkRTDsNuPb+5puKDYR8lkMkEgO33r3wWFgp2xDUP9WGa3vPgh/6WkJ1/5qamxYXnDrq/6zIcSV8l0/98+N7P6xusad2fVAgAqCQEgAAAlqjnfcKRLPYrXJT3c3FZWRf72jmR3pifZ00+nUEk6kt0/fbp2wwy5mmWK2bUu/astuYZkMY/w5NS1H3XpbVs9tLx7fveTb3ac3R6Z8qmO+u6Pv/iRzB2x2yNT9pD0ZZle/lbmmqoq/8yrjdXV1DUk18Vbf70NhcezWgEAlYQAEACAEjRn5ZxaybOSqmMzKdPtgQcfbE91z7smnXuMLqFS9c7qDTtS2c6xHr7dpW9Iis1dZ938mtbu9L7FG99mb/15pETHtoxz1zvv8pc/lslkoo5k9t8tsm/9w68f17TXGq9f4bckPbPV7ysCQABARSEABACgBNWGNVdI2jsm03nMzJp2e3jKe9tSy39Jd4AXLE32PNuZzJ4ZBsF7ZH5TTKY1PkqoJ5PJFOt1wCde/H+m27uSXfduyyAH3n2gv8YrmF+8/CE37fRa4205G/mGv09NB73W24YBACg3BIAAAJSYpmxqpqTGGEylX64L+xKD+7XXd3dlMpmI7gD/aPm85X/sqM8d47LPSLovBlM64smp6+YM96CN+cZ3SPr7tfXcfritY2XOzbxqABgpCv/xUX/69cZ02c1bfWqJhI5kdQIAKgUBIAAApfbHO7BzNNrX/TO/ydwP7Ehlz75u7nV9dAV4fZ3J7u9Hg4l3m1nTaF8f0E1fy2QyVcM5ZkLhu1/yayKIfr7tv2Pkr/7rxz7wD4+Zbn+9IWs8/L+Xfc97WJUAgIp5DUEJAAAoHc0r0oe49NnRSw10jzz4VEd97pj2VO5BOgK8OV1NXUPt9d1dQwXtL/erJYWjNJV9npz66JeG99eDveMln0fRPds81Kto6WmYIWn2Sx+1P48dv/FHrzfoslT+r5L+utVh9mdFAgAqRRUlAACgdFhkC1w+Gmf//dXMzn6q9rls76zekE4Ab022Ibte0omt+fn5SL5U8g+P9BzcfKGkbw7jiLtt9Um02yPT127rSC35dN1LRpbGyvR+d09Kqvn7L0UV3NW4ZFbv5jc4x4cl23nLJ7uxEgEAlYIAEACAEtHY2VjtCv9lhA87JPf2sRadu7S+51m6AAyvtuTy30k6simfPsakpRrZm/sc3tqd3retIXv/MI03cav/3/cWrgtqLq36h0f9Hz6/x03Nncnun72JoTe8ynwBAChrvAUYAIASkRgTfkLSDiN2QLNbEhYc0pHKnbg0SfgHFFNnMvvdp2s3HODSYkkbR+q4YaC6YRyu+sVfH8V9neGSbgyq7Aud9dmfvZlvNGloq08nsPIAAJWCABAAgBLhro+P0JHutcCP7qjv/vi19cvvovLAyOid1TvYmcxepWDoAEnX6TWuhTdczOyTwzaW7MUbArk0vm5VXaJY05b0hSj0u5p7Gs56U7/dXnLWn3EDIwBAxSAABACgdMws5uAuPWvSmdUbaw9un5f7AeUGRkfHvJV/7khm53rkh0v6RVEPZj4jk8kMy2sC9+jZrUfefmD7Xd7CxP4gafXLPv768i+S+/kLeuYf+CYG3n2rGT/LagMAVAquAQgAQAmoW1WXsD4dXKTTgSJJ11ui+tT2uR1/odpAPHSmc7fL9U8tPeljXbpc0tRhP4hrwmPTHttP0r1vfbDgga1PWkwMDe0n6fFtGalQ0NHd87OPbv1YJpOpemLauqsktW71sIUeflHSOa835sKrF44Z0qZpLz518/tZZQCASsEZgAAAlIBdNkzay6XaIgz9QOTRYR3J7NwOwj8gfkzensz2BpvGHKgX3hY87BIK3zEsLywS0UtCxEjBYcM5z0wmUxgK9TW99Dp+kuwN3UF5aNKmmZISfy+t3csCAwBUCgJAAABKgCeC7Ysw7KBF/pmuVH4NFQbirW1B2/O7PTKl3kw/H/bfL8N1c6Hnx96mrcI5M31kuOeabciul/yBlz18wBt7on7US14IRcHPWVkAgEpBAAgAQEn8xQ6HPwB03dyezt1HcYHSkMlkoiiytmEf2GxYfr+0LWh7XtKtWz30sXR3uhh3Ln/kZZ/v/MaOY7O2+mRjYchuY1UBACrm5QQlAAAg/ty3vnPlsO0CHqCyQGmxhA//z61Hk4dvLN241WdjqgMdV4Tfhy8PAFVlvvdrfU9LvuF9kt754him/9fV1DXEigIAVAoCQAAASoHbsP/NNimksEBpMbdh/7l1MxuusQqhfUumwovzNZ2cyWSG9caDFgRr/+GxhF4zAHT3r2z9eUJ+HasJAFBJCAABAAAADIvu+d1PuvTvf/vcpbc9MfXR+cN5DIv+8QxAefCqAWBLvuGfZDpmqzndtcvDU2+hWwCASkIACAAAAGDYJAK7SFL04gPmFzYsb9h12A5grxAAyg96pS9dePXCMS5dK+nvZzm6XZjJZCI6BQCoJASAAAAAAIZN29zue2Tq3Oqh7auq/LpMJjMsrz3CRPAKAaDeL9c/vJV5aELfpZK/+8UHXL/afe1e36ZLAIBKU0UJAAAA8HKNnY3VVjM4Xap6uxRNNQU7m7Szy3eWtJtLO5s0ziRzabsXvsvGSj5uyxDPbDXcc5IiuQZkWm/SepeeNmm95E/Lgqdk0bowqnpozMYxDy1btGyADpQ2q645ywcH/0XSblse+vjj0x69RNLp//jF9ie5dnrJi5QxVYOvNvYzY5/58459k36kl127sHFF495d6nrxJinN+XRK0sKtvmTI3Vs4+w8AUIkIAAEAACpc48rGqUFUeJ8iHS6zAyS9XQqnS4lqyfXCuyddvtX3/C158ZeM9JLPtv+H/28v/Sr/24PukpsChRqauMmb8w2PmflD7rrf5L+XgtUDUfS7XDq3kW6Vhvbj259pyaXmuNl/a8u7jkx+WlMu/UxnKnvx1l/bUZ9d+GbG7p3VG0r6xGt9TVOu4ViZd77krECzr3Sms7+nOwCASkQACAAAUGFaVzYcEIbRp82DD8r8vQrDPSSTLBbTM8n3dNeekj7oW8LHmsCi5nz6TzJf466fBa4ftqdyD9LN+GpP5W5p7mk4R+4XvNhc00XNudSOT0/YeMaWIG/YNefSJ8h8qVyJv68qv6FjXvZK1dMXAEBlIgAEAAAVpylf/3Yp+JRke27L95ssdIvuGwr1H6VwVlrdqrqaHfomf9g8+qzMPhOFvo9py5t3S0cgaX+57W/Sl92k5p70/XL90N1+OH7Ccz9cMqt3M6s7Xjrquy9syqd2N9mCv/8A2Sk7PD/p0OYVc+d0zFv55+E61uJ8/Xb9qrpG8uNf9p9+2u/RHJmcjgAAKhUBIAAAqChNuYYvmzwnaey2j+IyN9UEOq9hZcNHu+d2PxTH59q6suGAqBCl1WdzJd9ZZuXVTNe+kvY189bNfZM2tOQbeiWtaK/v/jlhT3zs/sjURU9MXRvKbNHfHjPTRxRV39OUT2UGFLX1JHv6t3X8ulV1iZ2enzS7X7pE8t1eukT0w8SmMV/oWdDWTycAAJWMABAAAFSMxs7GyWZhh95S+PcS06sKvlTS5+PyHDOZTNWTUx/9kps3R6EfUXah36ub5PK0pHRzT/oBy6lnMFJbtiG7npU/6msyknRic0/DWskvkb/4GmSiya4Yq8QpzfmGZQoGr3szZwSmu9M71FTZl6M+X+Sm/f7hC0zd68dvWNCb7B2kCwCASkcACAAAKkZQEx0iadKwDmo6Ui4b7TPOMplM1RPT1s5+wtadteXMuEq2j5vOr07o9KZ8Q0dY0BXd87uf5CdgdHXUd1/R3JP+taRvSpq+1X/aQ/KLFVVf2JxP3yrZ/5j8dwrsvqFBra8eX90XRuHYKo+289D3d9m7Jf+opA+4e80rRNzPSVrYUZ+9jqoDALBlH0wJAABApTD5dkUYdlJdb93o7alc1tyTOv6JaevulSxP+PcSE01+WlWVHmrJN1yd7k7vQElGV0d99hfRYOJAyS6S1P8Kr03eJ/lXXVrlkf++qsrX+eDg+qAQPhaFfrdL/yH51yUdKanmZd8fuembgcJ3dCQJ/wAAePkfWQAAAJSg1u70vs096R/J7ZuS9qEir8bHuXxhdcLvac6n58hl1GT0dDV1bepIdp9VFfk+Jl2pF87YeysGJX1LoQ7qrM/OaUv2PEGVAQB4Kd4CDAAAUGIymUzV41PXnRaZfU3ycVTkjbJdJK1s7knVez5q7kz2/ImajJ5r0rnHJJ1Sn68/a6wFn5P0z3L7qKRd38C3b3TpZ+b2vaHIv821HgEAeG0EgAAAACWkeWXzLk+Ej64y6cPiRrfbyD5qlljTlGtIdqa6b6Aeo2vLHYBXbflQSy61txLa30PbR2YTXL5d4Ho+Mm20wNcGFty7y4N7/SmTyRSoHgAAbwwBIAAAQIlo6WmY4eHQjZKmUY23yDXBzFc151LLdls79RTCpPhoT+UelPQglQAAYPhwDUAAAIAS0JRr+LK7/0KEf8PJZLboiWnrvt96besEygEAAMoVASAAAEDMNfekZlngKyWNoRpF8fFo/MDNqWxqIqUAAADliAAQAAAgxpp7UrMku17OpVuK7IiawH7AmYAAAKAcEQACAADEVHNu/ifl9i3CvxFzRDS+//81djZWUwoAAFBOCAABAABiaEF3epqC6JuSElRjJNlHrSa6lDoAAIByQgAIAAAQM/X5+rFhQjfKtRPVGHkmX9ySa5hNJQAAQLkgAAQAAIiZsR58Q9IMKjF63LytJZvan0oAAIByQAAIAAAQI83d6XcpsFYqMeomKmHdchmlAAAApY4LSgMAAMSFy2yF2j2eN/14TtLDkj8h03rJnpbb0ybfLHkkC5576VPRWHMf52ZV7j7xhQd9ezMzl3Y2+S4y20WuPSSNj2U7XB9s6Ul/uV3Zb7E4AQBAKSMABAAAiInmnvQXXfrg6M7CNku+Ru6rZXa7md09WPCHsg3Z9cU6YuN1jbtbGL5d8reb7GBzHebSQZLGjnZPXLoslU19N5fObWSFAgCAUkUACAAAEBeu00fpDadrXfadhEU/2OThz3qSPf0jefCuOV2PS3pc0s/+9ljdqrqaHZ+f/EEpOtrNjjFpv1Hqyh41QXCmpLNYoAAAoFQRAAIAAMRASy75YTcdMoKHdLn9p2Sdu63d80eZTCaKUz16Z/UOSvqfLR+ntubmf8DNUy4dJ/k4jWyhWluvbb24bUHb86xUAABQiggAAQAAYiCyYPFInfxn0s2m4CttqeW/K5X6tKWW/1LSL0/Ips4pJOwrcjVKqhmhem0Xju9PSlrGSgUAAKWIuwADAACMssbOxp1MOmYEDrVB8mR7MvvptmTphH9buyade6yjPrvQPTpE0q0jdVyTnVi3qi7BagUAAKWIABAAAGC0N2Q14aclFTdcMj0aKfxgRzLXUw4160zl797tkSlHyHXpCB1ynx2f3+7TrFYAAFCS+01KAAAAMOqOLu7w/pdCYB/qSvb8oZyKlslkCh2p7BmSN0oKi308k9exVAEAQCkiAAQAABhFmUymyqVPFfEQkSk4tntu90PlWsOOZG65XAuKfRw3P6axs7GaVQsAAEoNASAAAMAoemKvde8wabsiHqKjPdn9f+Vex45UttNMFxf5MNtXjSl8hFULAABKDQEgAADAKPLADizi8INVkV9YKbXc9eEp50j6dVH75cG/sGoBAECpIQAEAAAYRWZR0QJAk266Jp17rFJqmclkCkGoOZIGinUMd/8wqxYAAJQaAkAAAIBRZCriGYCu/6q0erY1ZO+X+zVFbNj+i/P127FyAQBAKSEABAAAGF17Fmtgq7JbK7GgQ5FdJOm5Yu2fN6vqMJYtAAAoJQSAAAAAo8hdk4o1dmFz8Egl1jTbkF0vU65oG2j397JyAQBAKSEABAAAGN3d2MQijTzY1dS1qVLLGilxraSoKGObZrBwAQBAaW05AQAAMHq8aAHgxkoua1d91wOSflaMsU3am4ULAABKCQEgAADAqLKaIg08sdIr61JvkYaezroFAAClhAAQAABgVPnzRRq4ZuE3j59UyZVNKPyOivM24EkLVszdkbULAABKBQEgAADA6CraW3XDaNyelVzYtmTPE5L+UIyxI6+ZztIFAAClggAQAABgdBXrDEB5pI9WfHVN/1OMYSP3PVi6AACgVBAAAgAAjCIzbSjW2O7emslkKnu/FwX/XZS+BXqS1QsAAEoFASAAAMAoctdDRRz+nU9OXffVSq7v0xOevUWmO4e5a//TMS97K6sXAACUCgJAAACAUWV3F3N0N53Xkk8trtTq9s7qDYMoOtqkmyWFb7FXm2X+b4mgMIt1CwAASkkVJQAAABg9ZtHd7lbMQwQuW9Kca/iQEoMLO+at/HOl1bgtlV8n6dMnraob1//8xN23ZYyhqsCDzcGjXU3dQ6xaAABQaggAAQAARpEV7G5PjMSB/F8U1XyquSedtciXtKdyD1ZarZfM6t0s6UFWHQAAqDS8BRgAAGAUtaWzD8j06MgczcfJdYKb3d+cT/+spaeh8YRsirvZAgAAlDnOAAQAABhNJvecf9/MGkf0qNI/ufs/FQLz5nzDb+V+i8t+GYb6dff8bu5wCwAAUEYIAAEAAEab2U2SGkfr6JIfKtOhJldVldScTz8o2a/k/msL7FfhQHBHV1MX174DAAAoUQSAAAAAo8wHEz+2MeHzck2IyZT2lnxvmY53dwU14VBzT/o+c90l152R2d1RYHc+O+7ZB3pn9YZ0EAAAIN4IAAEAAEZZV1PXpuZcKiezRTGdYrVc73LpXTJ90eRKRK4d+yYNNOXT95h0t8nvctP9UeT3j6kZvH/Z7Os30FkAAIB4IAAEAACIA4uWyBKt8pLan40x6WBJB7tMcikw09DQWDXn08/ohTvuPujSg4HZg4qiB8Pqqru65nQ9TsMBAABGDgEgAABADHQkex5uzqdvkPSlMnlK20uaIWmGSXJ3yUxBIVRzPr1e0v2S7pPZfeb+xyjyP46fuPGPS2b1bmY1AAAADC8CQAAAgNgIv2JKHONSbZk/0R0kHS7pcLnLJVlg2tw36W9nDt7t7ncFZg9G0t2B+11PTdj4CNcbBAAA2DYEgAAAADHRkex5uCWfOk+ySyu4DNtLOsLMjnBJJsnNtGPf5M3NPem7PPI1puB3ZvptOBjc0dXUtYmVAwAA8NoIAAEAAGJk10emLnli2rov6oW3z+JFPk6umWY2U3rhrMGgJgyb8ul75f4LBfpFEOnn7ancg9QKAADgpQgAAQAAYiSTyRQaexq/GHj4K0k7U5HXlDDpQJkdKFejm9ScTz8u6efm+qEp+u+2VH4dZQIAAJWOABAAACBmuuq7Hmhakfq8RcGPJR9HRd6U3SXVuanOFai5J32nSTe72/d2e2Svn2UymYgSAQCAShNQAgAAgPjpnJf7lUuzZSpQjbfA9S53nSr5T56Y9ujalnz6iqZsaiaFAQAAlYQAEAAAIKY6k93fcdcxkjZSjeHge7p0sgV2W3M+fW9zT8OiVDY1kboAAIByRwAIAAAQY53J7M2Bgg9JeoxqDKv95X5VTWCPNvekr2xY2fA2SgIAAMoVASAAAEDMtSWX/y6qSsyU9H2qMewmyXVSVej3teQbrm7sbNyJkgAAgHJDAAgAAFACuuZ0Pd6RzH7GzRskbaAiw67a5QuDmvD+5nzDmQuvXjiGkgAAgHJBAAgAAFBCOutz2cCjd0m6ThJ3tB1+kyW/eHDipl8v6Jl/IOUAAADlgAAQAACgxLSl8us6ktm5CnWQXP9FRYafSQeH7rc19zQsksuoCAAAKGUEgAAAACWqoyF7Z0cq+/nIoxmScpJtpirDycfJ/armnnR3JpOpoh4AAKBUEQACAACUuK5Ufk1HMptOBINTTH665PdSlWGVemLauhtOWlU3jlIAAIBSRAAIAABQJq6dt/Lp9mTuso5k7oBI4XskP58wcNh8fvOmyf/V2NlYTSkAAECp4a0MAAAAZagr2fMHSX+QdE7ryoYDokgfN/ejXDpS0kQqtA3cj0rURFdLaqEYAACglHAGIAAAQJlrm9t9T0d999Xtyezndntkyg4yfVCmM0z6jkyPUqE3zuXNTfl0K5UAAAClhDMAAQAAKkgmkylI+sWWD0lS43WNu9tQdLiZ3iPXu9z8QJP2k8TbXV+BSUtasqkft6dz91ENAABQCggAAQAAKlzXnK7HJf2/LR+SpMbOxuogEe7vCdsvULSPFOzt8n0k7SPTVHlF7yNrPBFcI+njrB4AAFAKCAABAADwD7qauoYk3bnl4yXqVtUldtw8bjdX1VSFwZ4y3zOQpkra0+VTJJsuaTeV8+Vm3I9q7knN6qjPrWK1AACAuCMABAAAwJvSO6s3lPTnLR+vqLGzsbqmqrBzmAh2l/vekvZ29z1ktrukvbd8bF/ShXC7IJPJ3JDJZCJWBQAAiDMCQAAAAAy7LWcQPrblY/UrfU1jZ+PkxJhoX7nv7/J3yIP93Xw/k94haWwJPM23Pz7t0Y9J+hEdBwAAcUYACAAAgFHR1dT1nF4IB18SEGYymaon9lr3DlX5QSY72F2HSDpc0sS4PQeTLxABIAAAiDkCQAAAAMTKljsV/+36g9dLL1x3cKfNkw/0UEfI/IN64QYcO8dgup9tWN6wa/f87ifpHAAAiCsCQAAAAMTelusO3rHloz2TyQR/mfbnGZH8U5LqJH/3KE0tUVUdHaUtQSUAAEAcEQACAACg5Gy58cZtWz7Ob+5Ov8sTmm1Sg6QdR3Qybh8XASAAAIixgBIAAACg1HU0ZO/sTGbP7EsMTjOzEyQ9PoKH/7hcRhcAAEBcEQACAACgbFw397q+9vrua4NNY/aT61JJ0Qgcdo+G7oY9qT4AAIgrAkAAAACUnbYFbc93pLJnBOaflvRMsY9XUxO9naoDAIC44hqAAAAAI6wllzpKZhe4dLCkMds4zIBca2T21Y5k90+p6itrq8/9sCXfcLSb/0iuCcU6jnvwdkk/oeIAACCOOAMQAABgBLXkG97nZje79F5te/gnSWNker/kNzdlUzOp7KtrT3b/WpFOLeYxPIr2o9IAACCuCAABAABGkMtPlJQYxiHHKGEnUtnX1pHMdsl1TxF31XtQZQAAEFcEgAAAACNr2K8VF7iOoKyvw+Qu5Yo2vNsEigwAAOKKABAAAGBkDQ33gC5Nb722lQDqdVhCPyvW2C6vpcIAACCuCAABAABGkLs2F2FY8/GD76K6r62q4I8Wa2yTEQACAIDYIgAEAAAYQWZFCQAVKfoA1X2d2vfVPl2ssV0aR4UBAEBcEQACAACMrKKEUObBBynta1u2aNmATIUiDb+JCgMAgLgiAAQAABhRtq44w/qHGzsbq6nvqztpVd04uaqKMbZLG6gwAACIKwJAAACAkeQq1nXodkhUFz5MgV/dQF/t5GKNbeYEgAAAILYIAAEAAEaQBb62WGNHUh0VfnWhJfYr2uBuBIAAACC2CAABAABGUBgk/lCssS2w4xo7GydT5Vfb+Nq7iza463EqDAAA4rsPAgAAwIjpmtu1VtJfizK4a0JQHaao8iuL3I8q1thmupsKAwCAuCIABAAAGGmu24s2tvmZnAX4j+asnFNr0ieKNX4U+V1UGQAAxBUBIAAAwEgzu7WIg+8SVBe+RpFfanxY0yBpfHFKrkJNX+29VBkAAMQVASAAAMCIb8Dse0U9gNni5nzDkVT6BY2djePNdGoRD3HvskXLBqg0AACI7/4TAAAAI6qtfvntkh4r4iESkv/bCdnUHlRbsprCpXLtVbTxpZupMgAAiDMCQAAAgJFmcknfLfJRdisE+nHjdY27V3Kpm3tSs0zWWsxjuBf5jE4AAIC3iAAQAABgNDZhgX+7+EexdwSFwv805evfXok1blmR+rTcrpNkxTqGS8/u9sheP2dFAwCAWO89KQEAAMDIa5uX+4lMdxb/SPYOU+L2plzDsZVU36Z8+kR3+y9JNcUtr27KZDIFVjQAAIizKkoAAAAwSiJdI1PHCBxpkpn3tuTT35H7ae2p3IPlWtIF3elpYaCrJX1OPgIHNG9jIQMAgLgjAAQAABglfVWD36wNay6WtP1IHM+lf5XZZ1ryDV2RCss6kz1/KpdaNq9s3sWjoYWR6yRJtSNxTJN+0zEv9ytWMgAAiDsCQAAAgFFy3dzr+lryqYtddukIHnaMyxeaEgua8ukfmPnKoG/s99sWtD1favXLZDLB49PXfdCkOQoLx5s0zkfw+C4tZRUDAIBSQAAIAAAwmpuxjbVXD03a1CjXviN86MCkz8jtM9H4gf6WfPpH7vphYMHP/1r77B96Z/WGcaxXy/Ut23th4EiP9LEntO4Yc0194b/4iM7DpT/6YOJGVjAAACiJPSclAAAAGD3LFi0baMmnT3PpP0ZxGmNdOkamYyJF2rFv0sbmfPpWud/lpntMwb1RVXBf1+yuJ2Qjk7Q1djZWW83gdPPqvaXonR7oUHMd6oOD+0uWsFHuW8J8YVtT1xArGAAAlAICQAAAgFHWnsz+Z3M+/X1JR8dkShMlfUxmH3shaHMFhVDNK9IF5e1Jkz/q0hMy/VXSRrltkGmjSRtdUZ+5Df5toEjamDCP3G3yCyP5dmaBRZFPCkyJyDRBrmqTdjZpZ5d2lrSHFO4pJRKySJJkHquW9bbV537IygUAAKWCABAAACAGqj2qH7LEbyXfM7aTdFVJvqdLe275/MX/sOV/0stOETRJkdtLHnF3mb3w9VsHe14ardpYKNjJrFgAAFBKAkoAAAAw+pal8n918+NkKlCN2HJ3m989v/tRSgEAAEoJASAAAEBMdNZnf2bu51KJeHLZ5Z2p7m9TCQAAUGoIAAEAAGKkPZm7SO5XUInY+fHuj+z1VcoAAABKEQEgAABAzHQkc6dJylGJ2Fg9FGpWJpPh7dkAAKAkEQACAADEjcl3e2TKfMmupxijbvVQqE9kG7LrKQUAAChVBIAAAAAxlMlkoqdrn5vn0jdUMjfILTf+y+rq/o8S/gEAgFJHAAgAABBTvbN6w85k9kyTZku2mYqMIPN/60sMfWLZ7Os3UAwAAFDqCAABAABirj2Z/Vbk4QclraUaRTfo8kUd9bnjrpt7XR/lAAAA5YAAEAAAoAR0pfJrrKbmYEnXUY2iWeeBH9mZzC2jFAAAoJwQAAIAAJSI9uPbn+lIZuea6bOSHqAiw2ZI7lcEm8a8s3Ne7leUAwAAlBsCQAAAgBLTXp/9Xr/Cd5n8LElco+4tMNPPI4UzOlK5U9sWtD1PRQAAQDmqogQAAAClpyfZ0y/ponR3uqM64afJ7AS5JlCZN+z3Jl3YPi97g4y7LAMAgPJGAAgAAFDCsg3Z9ZK+svCbx188ODQ2adIpkqZQmVfh+q2ZLm6v3xL8JSkJAAAofwSAAAAAZWDZ7Os3SLqqblVd+46bJh4jt5SkT0pKUB1tctN3zC3bker+qSQR/AEAgEpCAAgAAFBGemf1Dkq6UdKNJ2RTexQSwbEmr3PXB1RZ1392M/0ikvfUVA30bglIAQAAKhIBIAAAQJm6Jp17TNLVkq5uzdfv5kp81E0fkesjkvYpuydset5dtwRmP7Ao/EFbMr+OVQAAAEAACAAAUBHakj1PSPrWlg81rmycGoSFj5oHH3H5YQr0dnnJ7Q03SH67pFvlwY+ern3u51vOgAQAAMBWCAABAAAqUNfcrrWSerZ8qG5VXc1Omye/wyN/p2TvlvxASe+S9DaN/luHI0nrJN1vsrtdflukxG17PLLHHzOZTEQ3AQAAXhsBIAAAAP527cA7tnz8+98ez2QyVU9NWbvLoPluiSDYXZHtIvmeMtvFLdpdrh0kmyxJMk2WK5BUK6lG0hhJ41/ruC49K+kv5nraTE9F5k/Jg6ck/7N58EBkdv+YjWMeWrZo2QBdAgAA2DYEgAAAlIDIzc18WMf0yI3K4vVkMpmCpMe2fGyT1nz9bu7BeLNok9eMG5Ck9uPbn6G6AAAAI4MAEACAEhAo6nMNc15ntieVxUjYcv1BDIPIfY/hTu7NrY/KAgBQ7q8nAABACfzFDopxttTRC3PJnSkuUDpMOm7YxzStp7IAAJT5ywlKAABACYiiYgSAk4bM/rPxusbdKTAQf8259EmSvjTsA7vzdmwAAMocbwEGAKAEPDVh46M79k0a0As3VRhG9oEgDP/YnG+4onrjuIu50QIQP60rGw6IwmiJpE8WY/zQoweoMgAA5Y0zAAEAKAFb7tB6Z1EGd02Q/NyhiZv+0JJP11FtIB7S3ekdmnOpq6LQ/yDZJ4t0mMFnJjx/J9UGAKC8cQYgAACl43ZJM4o4/ttdWtWcT/9YoRZ3NGQJBYBR0NjZWJ0YEyVdfqHcdiru0fz3W/6BAQAAlDHOAAQAoES4209G6FAfU0JrmvINSxbn67ej8sDIaVmR+nRQU7jD3Tvl2qnYxzOz/6XqAACUP84ABACgRPhQ8N2gJuxzqXYEDldt8sX9Ssxtyqe/vr52wzW9s3pDugAUR1O+/u2mxIUeaYTfhm//TvUBACh/nAEIAECJ6Grq2uTS90f4sDuYtHTH5yf9oTk3/5N0ARhei/P12zXl05eYEn+QRjr80wPt9d2r6QIAAOWPABAAgBJi7l2jc2AdIItubu5J9Tbn66eXav0iWVH2PgfefaCzOvFm1K2qS7T0NDT2K/FHk87QsN/h+w39XHfRCQAAKgMBIAAAJaQ9lbvFTD8ftQm4HSsl7mvOpa5KZVMTS66AFm1fhFEHM5lMxOrEG9WSS354h75Jt7t7p6SdR2kaTw+G3k43AACoDASAAACUmMh14ShPoUZmi2qC4J6WXMNsuaxkNj6uXYsw7GZWJd6I5nz99OZ8epVb8FOTDh7VyZgtyaVzG+kKAACVgQAQAIAS05nM3iy3/xj9mfiebn5d84r0ra25+R8ohdq57OAiDEsAiNfU2Nk4vjnfkJGq7tbIX+fvlTzYFwwspTMAAFQOAkAAAEpQlUcnSHomFpNxzYws+r/mfLqn8brG3WNbNJdJVoygchMrEq+25lpyDbODmuiPkp8r+bgYzCqKIp933dzr+mgQAACVwygBAAClqSWfPs6l62M2rY2SXVS9cdySZYuWDcRpYk0rUu+3yH45/CP7LzuSuSNYkdha84r04Yp0laT3xWleLrusM9l9Oh0CAKCycAYgAAAlqj2Z/ZZG/3qALzdR8ouHJm66q3lF6l9iNTPX/OKMGzzKasTfnJBN7dGcT/co0q8Vs/DPpO+ur33uK3QJAIDKwxmAAACUMpc196S/Kem4mM7wxwq1uKMhe+doTqJxZePUIAz/JKmmCJupK9uT2VNYjJWtPl8/downTrJAX5VrQgynuLovMfhh3voLAEBl4gxAAABKmcmjwUS9pBUxneHHVKXfNuVT1yxYMXfHUdvwFMJlKkL49wJfx0KsbE35hn8dq8RdZroopuHfL4ZCfYLwDwCASn7ZAAAASp/LmvPp82U6K8azXO/yzO6PTG3PZDKFkTpoS64h6ea5opXedFRnffbHLMLK05ivf3egYKlkH43xNG/sVzi7J9nTT8cAAKhcBIAAAJSR5p7UF+TWLmnnuM7RpbskO6kz2f2jYh+rqSf9IXP9UNKYYj2doVA7ZRuy61l9laOxs3GnYEz4dbkaJSViOs1+d31t97VTrsxkMhFdAwCgshEAAgBQZppXNu+icKhN0hdiPVHXfwWRTmlryN5flDrk5n9SQXRDkd+S+XBHMvs2Vl1laOxsrLaasNWkcyVtH+Mfrtvcvb4zlb+brgEAAIkAEACAstWUT3/KXFfKdECMpzkgaaV7tHS4woq6VXWJHfsmnyb51yVVF3kj9e32ZPZLrLby15yb/0kpWhLzn6e/mtnZT41/Lts7qzekawAAYKt9KwAAKFelc8aS3KT/ltS5WeHN23q9stae1Ccit/MlHT5C0052JHM9rLTyNX/F/P0SHl4ht8/GeJpDJi0bo/D8pcmeZ+kaAAB4OQJAAAAqQIlcs+xvNkr6npv/wL3q1q76rvtk8lf74pZsan9P2OcV6UsyHTKC8/SoKrFn15yux1lhZfkzMzkxJjzbXYtUtDtID4vvW+Qnt6dz99E1AADwaggAAQCoIC/ctTSxRNLHSmjaz0n2gMsfl/lfzIMayWvk2kumd0qaPErbqDUdye4ZrKrykslkgienrku5+YWS7RLfmfq9Fujk9nm5H9A1AADwujtXSgAAQOVpyqePMWmJpH2oxjZyndyRyi6hEOWjMZd8b2DBUknvi++y07OBdEnVxvFLly1aNkDXAADAG0EACABAhdrq+oBflzSJirwpg9Ue7bUslf8rpSh9Dcsb9qqq8oskzY7x/jiSdH2hYKd1z+9+kq4BAIA3gwAQAIAK19jZuFNQXfiazBYo/tcHjMkOyv+toz53HIUo+bU/PlETLnTT2XJNiPGC+99Atrgtufx3dA0AAGzTboISAAAASWrMJQ/d8vbHf6Iar8kV6H0d87K3UorSteVt8MskTYvxTv1Rl5/VOS933WvdCAcAAOD1txUAAABb2RKMXC1pOtV4xc3Td9qT2S9QidLUmEsemgiCq9z1wRhPc5Nkl42rfe4bS2b1bqZrAABgGPawAAAAL3XSqrpx/X2TFsX/rZEjLrLADmmf130HpSgtJfJWd5d0QyLUadc2ZB+hawAAYLgQAAIAgFfVvGLunoqqL1a8b44wYly2tDPZfRIro3SU0M1uVkeRL+5K535O1wAAwHALKAEAAHg1HfNW/rkjmZ2rQO+T61eVXAuTHkpsqvkaq6J0NOXTxwQ14T0mLVV8w7/Hzaxpt0emHE74BwAAiriXBQAAeH2ZTCZ4Ytq6ekkXStqtwnZMBXP7aHuy+/9YCfHX3J1+l6psidyPivE0ByRfMhjpolw6t5GuAQCA4m5nAQAA3oQ5K+fU1oZjTpP8DEljK+JJuxZ2pLLX0P14a7m+ZXsfGMgosFa5quK7A/ebIlUt7qrveoCuAQCAEdl+UAIAALAtGnsa9wk8vFhSXZnvlro76rPz6Xh8ZTKZqienP5py9wsk7Rzfmfq9Fujk9nm5H9A1AAAwkrgGIAAA2CZd9V0PdCSzs8z94zLdWZ7P0q7f7eEpLXQ7vpryDR9/fNq637l7p+Ib/j3t0oLdHpn6bsI/AAAwKrtaSgAAAN6qTCYTPD597WxzXSbZLuWxSbKOXR/Za0Emk4nocPy0dqf3jRK6SHE+A9VU8MhzNfKzl6Xyf6VrAABg9LYlAAAAwyTdnd6hOuGnSdYiaXKJ7o4KcvtaR7L7EjoaPwu/efykocGxZ8m0WFJNjKf6I/docWcqfzddAwAAo7/FBQAAGGapbGpidWApk50m+Z4lNPV1UeTHdaVzP6eLMeOyphWpOeb2DcX5LtSm+8311fZktpemAQCA+GxRAAAAiqQ+Xz92rCfmuelkk/aL8VRDmbqGCjo725BdT+fipTGb+mAQ2FJJM2I8zQ0mv+Cp2o1X9c7qHaRrAAAgTggAAQBA8bmsqafhKMlbTTpGUiJGs/tRpPCUrmTPH2hUvLTmklMiCy6V9MUY71sjST2BwrPakj1P0DUAABBHBIAAAGBEteaSU1xBg5uOl7TPKE1j0E2rAtnS9vru1XQlXho7G8cHNYXTJDtd0vgYT/UXZnYiawgAAMQdASAAABg1zSvSh8v1Jbn+VdK0Iu96CnL/mdz+I6pO3Ng1p+txOhAzLmvuSX9R0qWSpsR4puvc7YzOZPe/y+Q0DgAAxB0BIAAAiIWWbGp/N/u4ZB+V+SGSpr/FTU6fS6vNdKvLf52wwk+vnbfyaSod0/73NMyQfKm7PhjjrfNmSZdGg8GlXU1dm+gaAAAoFQSAAAAglhbn67fbHAQHBJHtFUl7yDVepsmSZO5VLk20wPrcNWiyZ2Ua8kiPBqZHwqrgEc7wKw0Nyxt2ra7ShS5PSgpiOk03aVWYSJzeNbdrLV0DAAClhgAQAAAAI66xs7HaasJWk86TXgh2Y8n1Ww+0uLM++zO6BgAAShUBIAAAAEZUSy51lJtdJemdMZ7m0y6dv752wzW9s3pDugYAAEoZASAAAABGREs2tb8HdqWko2M8zSG5t0dDVed0NXU9R9cAAEA5IAAEAABAUbVc37J9NDh4hkknSaqJ787YbvEoPLEzlb+brgEAgHJCAAgAAICiyGQywePT1842t8sl7RzXebr0x8B0cnt99nt0DQAAlCMCQAAAgGHSsqLhPR5F7zUFf2hPdv+6kmvR1JP+mElL5XpXjKf5jEvn+WCiraupa4gVDAAAyhUBIAAAwFvU2NO4TxBFF8m8bqv91U8jhYu6kj1/qLRamIeXm/TPMZ5maLLl4WDwta6mrqdYwQAAoNwRAAIAAGyjra5td6Kksa+w0yp45LmqROGr185b+XQ512LOyjm1teGY0yQ/4xVrER8/9cgXd6Zzv2cFAwCASkEACAAA8CadtKpu3OZNk1vlfpak7V//O/wv5sGZ7cnuHpm8nGqRyWSCJ6atnSvZRZJ2j/Gm96FIdmpnsvs7rGAAAFBpCAABAADeoIVXLxxTmLR5nrufK2mPbRhitclOKJfrA7bm5x8WeXSVTO+P8TQ3SXZZvwqX9CR7+lnFAACgEhEAAgAAvI50d3qH6io1yHWypF3f4nCRu3f7UNVZpXr9uYblDXtVVfk3JH05xvtJN7frEh595Zp07jFWMQAAqGQEgAAAAK+ipadhRhRFjWY2W9L4YR7+GZfOW1+74ZreWb1hKdTjpFV14/r7Ji1y6SxJE2O8w709iIIT21LLf8kqBgAAIAAEAAB4idZccopbcJybZsv1rqIf0PVbBVrYUZ/9RZzr0tyTmiW3SyVNi/E0H5N0Zkd99pvldq1FAACAt4IAEAAAVLyF3zx+0mBhTJ25zZb0IUnBCE/BJX0zqkqc0TWn6/E41aZ5RfoQRVq6pS5x1S/ZlcGmmovbFrQ9z4oGAAB4KQJAAABQsU5aVTduU9/ki8y8Qa4JMZjSBpef54NVy7qauoZGcyLNK5t3UTh0gaS0Rj4QfTNuLCTstO653Q+xogEAAF4ZASAAAKhYTflUs8naYzi1u920qLM+++ORPnDdqrqaHTdNXij3r0maHOP23REEvrhtXu4nrGQAAIDXRgAIAAAq1vwV8/eriqI1LtXGdIq9USJxatfcrrUjcbDm3PzPukVXmLRfjHevT7n719bXblxeKjdPAQAAGP0tFAAAQAVr6WmY4e7/IWlKTKe4SWYXVW8Yd/myRcsGinGA1pUNB0RhtESyT8a4VUOS2qym5rz249ufYeUCAAC8cQSAAACg4qWyqYk1pgtktkBSIqa7tvtNWtxen/3ecA3Zcn3L9j44eK6kVknVMd6w3mwJO7ltbvc9rFYAAIBt2k8BAABAklrz8w92i5a564Px3b3ZLZEHC7uSXfdu6xCZTCZ4fPra2ea6TLJdYtySP5l0Vnsy28vqBAAAeAtbSEoAAADwUk359DEmXav4vi14SO7tweaxZ7UtaHv+zXxjc77hSMmXSjooxjvU5+V2RfXGcRcX623PAAAAlYQAEAAA4BXMWTmntjYcc5rkZ0oaE9Ot3J/doq921udWvt5XtuaSUyILLpQ0J8ZljyRdXyjYad3zu59kFQIAAAzTrpESAAAAvLqmfP3bzRNXyfTpuM7RXT+xSIs6GrJ3vvy/NXY2jg9qotMlP0PS2BhvSn8j2eL2ZPevWXUAAADDvtcCAADA62nKN/yrya+UNC2mUxwyadlQwZZ0z+9+9KRVdeM2bZp4nLl9XdIeMS7tWpmf1jEv1yuTs9IAAACGHwEgAADAG9TY2Tg+UR2e4abTFeOz6SQ9J1OtXFUxnuMmN31j/PgNly2Z1buZ1QUAAFA8BIAAAABvUsPyhr2qqvwixft6ejHegfpN8mhhR7LnYYoBAAAwAtsvSgAAALBtmnrSHzPX1ZLeSTXe0NZzjUmL25Pd/0ctAAAARnAXRgkAAAC2XWNnY7XVhK0mfV3SJCryijvOp9x1wfraDdf0zuoNKQgAAMBIb8cAAADwlp2QTe1RCOwSSbPZY71oSO7t1TUDX1s2+/oNlAMAAGB0sDkFAAAYRk096Q+Za5mk91T2LtNuCQItapvbfQ+rAgAAYJS3ZpQAAABgeGUymeDx6Wtnm+wKuXaqsKd/n8tO7kx2f5+VAAAAEA8EgAAAAEWS7k7vUB34uTJbIClR5k/3GZO+8VTthiW9s3oH6T4AAEB8EAACAAAUWWMueWig4BqZ3l+GTy+SdH21R6csS+X/SrcBAADihwAQAABgJLisaUVqjrldKmnXsnhKrp8ECVvcPq/7DhoMAAAQXwSAAAAAI2hxvn67fg/OU2CtclWV6NNY5+Znd9bnVtJRAACA+CMABAAAGAWN+cZ3mMKrTPpECW0c+1x2eb8Kl/Qke/rpIgAAQMns4wAAADBamvLpY0y6RtLUGE/TJd0QeHRKWyq/jq4BAACUFgJAAACAUdbY2Tg+qIlOl/xMSWPiNTu/zQOd2Dkv9ys6BQAAUJoIAAEAAGKitTu9b5jQUpM+E4PpPGZm5+368F7dmUwmojsAAACliwAQAAAgZra8LXippL1HYXu42eVXD0V+YS6d20g3AAAASh8BIAAAQAzVraqr2aFvUouZLpBrwsjsDP2mQhAs6p7b/RAdAAAAKB8EgAAAADG2oDs9LUzoMknHFm/v5reZ+2ntqfz/UnEAAIDyQwAIAABQAhb0zD8w9OgMScdJSgzLoK5fuenizvrsTTI5VQYAAChPBIAAAAAlpGFlw9sSBf+STLNMOngbhnhQ8lUKbFXHvOxvqSgAAED5IwAEAAAoUQu609OihA53+aEue7fJd5HZ9nLVSvqrZM+4/BlJ95n5mqBga9oasvdTOQAAgMry/wELRgXiSaZdYAAAACV0RVh0ZGF0ZTpjcmVhdGUAMjAyNC0wNy0wNFQxNjowODowNiswMDowMIPfeVsAAAAldEVYdGRhdGU6bW9kaWZ5ADIwMjQtMDctMDRUMTY6MDg6MDYrMDA6MDDygsHnAAAAAElFTkSuQmCC;" parent="mZ2qIeFOlVFqwqRpEA1V-1" vertex="1">
          <mxGeometry x="376.5" y="-766.85" width="55" height="33.69" as="geometry" />
        </mxCell>
        <mxCell id="mZ2qIeFOlVFqwqRpEA1V-9" value="" style="shape=cylinder3;whiteSpace=wrap;html=1;boundedLbl=1;backgroundOutline=1;size=5.620689655172498;fillColor=#dae8fc;gradientColor=#7ea6e0;strokeColor=#6c8ebf;" parent="mZ2qIeFOlVFqwqRpEA1V-1" vertex="1">
          <mxGeometry x="495.75" y="-740" width="30.25" height="30" as="geometry" />
        </mxCell>
        <mxCell id="mZ2qIeFOlVFqwqRpEA1V-10" value="" style="endArrow=classic;html=1;rounded=0;entryX=0;entryY=0.5;entryDx=0;entryDy=0;entryPerimeter=0;exitX=0.993;exitY=0.847;exitDx=0;exitDy=0;exitPerimeter=0;" parent="mZ2qIeFOlVFqwqRpEA1V-1" source="mZ2qIeFOlVFqwqRpEA1V-6" target="mZ2qIeFOlVFqwqRpEA1V-9" edge="1">
          <mxGeometry width="50" height="50" relative="1" as="geometry">
            <mxPoint x="476" y="-720" as="sourcePoint" />
            <mxPoint x="426" y="-795" as="targetPoint" />
          </mxGeometry>
        </mxCell>
        <mxCell id="mZ2qIeFOlVFqwqRpEA1V-11" value="" style="shape=image;aspect=fixed;image=data:image/png,iVBORw0KGgoAAAANSUhEUgAAAQAAAAEACAYAAABccqhmAAAABHNCSVQICAgIfAhkiAAAIABJREFUeJztnXuUFNW1/z+nupuZ4TG8xscwiksRUEHAK5gEFFAUbsZfftH4iivEKGoIvuIlWddcvQnoIvmRaLISk5+SX9QkRn+yjKIQICLiKxAQX2hQUaPIa1AGGB4DYeiqPveP7lN9uqcHZnC6u7prf9aqRU91db2o/d377LPPKUUA0ForIAJ4Simd9V1P4BjgLGAI0D31dz+gFuibWhcBzG9VYc5cCCGa5POlgRZgF7ANaEgtO4EdwN+B94EmpdTBjB1oHQUSSqlEAc87J0U1FK21A2jb6LXWvYAvAGOA4cBooAroVpSTFIQjIw7sBzYDLwDrgCXABqVU3GyktY6QFAOdcy95pigCoLWOKKU86+9jgK8CE4B/B6pz/Qwwv1Gkz93+VyIAId/YEYC9TpP5/EVy/LYF+AhYAPwFWK2UcsF3hhQ6KiioodiGnwqD/h24gqTx97A3BVzASS0GMXIhyLQlDl5qfdRanwDeAR4DHlNKfQJ+c1gVSggKYkRZht8DmAxMJRniGzySNyuXcoqxC6VKtigYQYhZ2/wLeByYo5RaBbmbx/kgr4altXaMkmmtuwPfBm4CTkxtkkgt2UYvBi+UI9nGrEk+/yYySADzgZ8rpVZApg3lg7wZWpbxfwv4L2Bw6msT3mcfXwxfCAvZYuCRdITGBh4DZiml3oX8CUGnG1yW4Y8BfkYykw+5DV+MXggzdk7LNA+MEBwAfgL8TCnVkg8R6FTjM219rXUl8CPgNpIGb5IgYviCkJtDCcHrwHSl1MuQTBR2Vm6g04zQqJPWeiRwHzCKZJtG0zqTLwhCbnIJQTT1+UfAj5VSurOigc9tjLYaaa2vB34DdCEZ7hsFk647QegYts2Y+pcI8CIwWSm1Jbue5khwDr9J2xjj11pHtNa/BP4fmcYP6W4QMX5BaD/GXkzXuEPSrsYDL2qtx6Sa27m6zTt8kA5jhfw9gSeA88ks3hGvLwidg93eN00CF/iWUur/f55I4IgiAMv4jyZZ33w+ydpno1Ti9QWh87DtKEo6Qfio1npqKhI4Ilvu8I8s468FniE5cCdOupjBGL8gCJ1HdpPAJAjnaK1vSdlkh5sDHTJUq81/NEnjP4Ok8ceQkF8QCoVxsqaXLQLcpJT6vx1tDrTbWC3jrwaeJe35xfgFofDYImDKiacopX7fERHoiAA4JJXmrySH7YrxC0JxyY4EHOBipdT89opAu3IAVtHBPaSN3xQngBi/IBQDU2Nj2/EftNaDUonBw9rlYTewkn7XAg+QNn5zcDF+QQgGpnfgTZL1As0cZkjxIY3XMv7hwGuku/bsrj5BEIqLHYmbpvmjSqnJh2sKHLYJoLWuAh4i3c0nxi8IwcLuIoySFIFvaK2/cbgagTa/sNr9PwL+jXSVn31AQRCCgT03pnHS92qt6wDdVj4g58qskX0rU6vtEl8RAEEIJsY+XZLRwDyl1CVtjR5sKwLQqUk77yOd8BPjF4TgY5LzEZIi8DWt9UUph97K3lutSCmFJjlx5ygk9BeEUsTOC/yf1CQ9rXoDckUAOjWB549IFhiYzH9RXlwgCEKHsaMADzgFuM5MJGJvmPGH5f2/TXLm3gQS+gtCKaKsJQH8p9a6OjsPkCEAqXZCD+BWMof0ivELQulhqgQTwPHAtZB+CxFYAmANJfxGamOPzIk9BEEoLWwHroGbtNaVdhTgC0CqYCAG3Ix4f0EoF0wU4AEnAZdB2uE7qT+MEJwPnEZm218QhNLFduIauD71OQHpCMAY+jdJv64IxPsLQjlgv3NztNZ6RKpHQJlXEptZfr5C+i2mYvyCUB4YWzY1PVem/nYcK/n3v4HuqY1Awn9BKCdMNS/AV7XWUaWUZ7oIAL5M0uhlRl9BKD/siUMGkxzgh5MK/3sCE0mH/+L9BaG8sJsBGqiHtCJ8EeiKJP8EoZyxI/sv+ElA4GzSrx4SBKE8Mb0BCvgS0McIwDDSbQTx/oJQnpiKQA10A850UvP8j0ltIMU/glDemLcNR4HxUaAWqCJzSiFBEMoTuyqw1iE56UcV6QSgIAjli93UH+UAQ0mHBYIglDd2QdAQh2QyQIp/BCE8mDyfdoBjyGwXCIIQEhygX+qzRACCEA78hL8DHJu1UhCEkOAANanPIgCCEDJMElAQhBDikH7ppyAIIcMu/ZUmgCCEDPu9ANIFKAghwx79JxGAIISMtt4OLAhCCBABEIQQIwIgCCFGBEAQQowIgCCEGBEAQQgxIgCCEGJEAAQhxIgACEKIEQEQhBAjAiAIIUYEQBBCjAiAIIQYEQBBCDEiAIIQYkQABCHEiAAIQogRARCEECMCIAghRgRAEEKMCIAghBgRAEEIMSIAghBiRAAEIcSIAAhCiBEBEIQQIwIgCCFGBEAQQowIgCCEmGixT6BU0VqjlELrzn2rutmnUvKyZiH/iAAcAmPcuQxda00ikcjYxhit/flQ+9Va+4uhrd+KMAj5QOnOdmElTFu3whi6UgrHcdpthJ7nZfxWKUUkEmn3722ROdRxgyIK+YqKygX73gTl/yz0ApDr8m2jc5zWaZI9e/awdetWGhoa2Lp1K1u2bGH79u00NjbS1NTEv/71L/bv3088HsfzPDzP8/cVi8WorKykqqqK7t2706dPH/r27cuxxx5LbW0txx57LHV1dRx11FFUVVXlPLdEItGmIBTzwbIFwPO8op1HEDH//0GL4kIpAG0ZPUAkEslYv2vXLtatW8fatWtZs2YN69atY+PGjTQ0NLBv375OPzelFH369KG2tpYTTzyRU089lREjRjB06FAGDBhA165dM67DiIuJMILmYYTWBEkEQiUA2W16E2JHo+lUyMGDB1m7di0vv/wyf/vb33jrrbdYv369LxDZGMOz/0Pbc0uzH4Bc+QCbyspKBgwYwMiRIxk/fjyjR49m0KBB/vcmMsgWsFzHyhcmMmlububJJ5/kwIEDgfR6hUQpRUtLC2eccQajR48mkUgcNkdUSEIhANmGn+3t4/E4r7zyCosXL+bZZ5/l7bffJh6PZ+zDeNnDGWpnYB4O0/ywk42GHj16cNZZZ3HhhRdSX1/P4MGD/e9c1/WvrZBRged5RCIRNmzYwCmnnMKBAwfyerxSYurUqcyZMwfXddtsWhaDsu4FyDZ8z/P8RBzAxx9/zLx583jiiSdYvXp1hpEZgzfG11YEkM/zzm5HmyRkIpFg7969LFu2jGXLljFjxgzOO+88rrrqKurr66msrATSQmAMP9+e2Bau6upqDh48GPqkYCQSwfM8//8kSN4fylQADmf4K1eu5MEHH+Tpp59mx44d/u8ikYhv7IU0+PaSnVwzXmTv3r3Mnz+f+fPnc8YZZ3D99ddz5ZVX0qtXLyBTCAoVDZh7GHYBsJ1IEAlGHNKJ2F1uxmAikQiO47B8+XIuvfRSxo4dy4MPPsiOHTsywjHTbVcq2EJlDPzNN9/khhtuYPTo0fz2t7/lwIEDRKPRDIMMu1EKacpGAEy73DzcruuilCIajfKPf/yDyZMnM378eJ588skMjxhUb99RPM/L6Lp87733+M53vsP48eN59tlnfRF0XVf66wWfshCAXF4/Go2yZ88e7rrrLs455xweffRRPxqAtMGUG9me/pVXXmHSpElMmzaN7du3E41G/Wu3k5pCOCl5AbDLak37OBqN8uKLL3LuuecyY8YMdu/enWH4YcAYtmnezJkzh3PPPZeXX37ZFwFpEgglLQB2Vtt4d8/zmDlzJhMnTuSNN97ws/lhMfxs7BzB2rVr+fKXv8z999/v1z6Y70UEwknJ9gJkl51Go1E2b97M1KlTWbx4MYDfZSbgVwzu37+fG264gQ0bNjB79uxWpcVhLtoJIyUZAeQy/tdee40LLriAxYsXZxTQCGlMyO84Dj/96U+ZNm1axncgJcRho+QigOxMfywWY8mSJUyePJnt27f7zQAhN3ZuYM6cOSiluO+++zJyAiBCEBZKKgLI9vyxWIynn36aSy+9lO3bt+M4TuCM3x4rECSjMmH//fffzw9/+EMikUjG0GXJB4SDkhGAXGH/okWL+OY3v0lzc7Pfp18sTKVh9nh/e+xAdqlxR+YGyAdGBGbNmsXDDz/sFwyJCISHkmgC5DL+lStXMnnyZN/4i/Gwmva06VfPjj6qqqqoqqoiFosByZGGzc3NxOPxDLGy91NozHnccsstDBs2jBEjRmQMMRbKm5IQAHsUXzQaZf369VxxxRXs2rWrKMZvhrjaRn/SSScxbNgwhg0bxuDBgznuuOPo3bs3PXr0oKKiAoADBw7Q1NREQ0MD77zzDqtXr2b16tVs3rzZ308xei6UUuzevZsbb7yRpUuXUllZ2WqaMqFM0QEnkUjoRCKhPc/Truvq5uZmPW7cOA1ox3E0ULAl+3innXaavu222/Tzzz+vd+7ceUTXt23bNv3nP/9ZX3LJJbqioqLNYxXq2mbPnq211tp1XZ1IJDp0LZ7naa213rhxo66pqdGAVkoV9DqCtkQiEQ3oW2655Yjvaz4JtACYG5VIJLTrulprrb/3ve8V3fgnTJign3zySb13796M8/U8T8fjcR2Px7XrutrzvFaL67radV0dj8d9gzG89tpr+qqrrvKPVehrVErpXr166Q8//NC/50aA24MIgAhAp2Mb/5IlS3Q0Gi2oYdgP8MiRI/X8+fMzzs8YtDGUXIt9LdmLEQ1bDF544QU9atSoghuQua9Tp071r60jD6sIgAhAp2EbiOd5evfu3XrIkCEFfaiMQXTp0kXPnDlTNzc3a63Tnv5Qxt6RazSLEROttd67d6+++eabi/LQduvWTb/77rsZUUB7EAEoPQEIbDegPYuN4zj88pe/5J133vETcPnGJONOOOEEFi5cyIwZM+jWrVvGMGP7XI+knz/7N/aQ3e7du3Pvvfdy77335pznL184jsO+fft44IEHOjzPoVCCFFmAcmJ7xEQioT/66CPdu3fvgnv+4cOH6w8++EBrrVuF6flQcXufJsrQWusHH3xQRyKRgly/OUb//v11Y2Ojfy7tQSIAiQA6hew57H71q1/R1NRUkO4oU1A0fPhwFi1axMCBA4nH47531tbEI/k4tk55WjOxRzweZ8qUKdxzzz0Zw3vzhbm2jRs3snTp0lZvQBLKi0AKgHnoIpEI69ev509/+hOQ/8E9xgD79+/PvHnzqKurw3VdotFoxki5fE+saYtMJBLBdV1uvfVWpkyZklGvn89zAFiwYEHGfAEiAuVH4ATAPGTGAP7whz/Q1NRUsGmUu3btysMPP8xJJ53UajLNQhXE2DkFe3bie+65h8GDB+f9XIzQrlixgh07dmRMMS6UF4ETAGNskUiEvXv3MnfuXCD/SShz3Ntvv51x48YVzfht7OZAIpGgd+/ezJo1q2DH37RpE2vWrJFmQBkTOAEwDxvAsmXL+OCDD/Je7mva9meddRbTp0/3a+HN+RTL89niY8YKXHTRRYwdOzbv+QCz79dffx2QXoByJVACYLd9lVIsWLAAoCCJL8dxmDlzJlVVVRnnUOyw1xYBrTXRaJQbb7zRP+98HhdgzZo1vgAJ5Ueg/lfNQxeJRGhqauKFF14A8pv8M97/vPPOY+LEia2mxwoCdj5Aa82kSZM46aST8hqdmHu+fv16/3VWQbkfQucRKAGw25pvvvkmGzZs8Nfn85iQfHebmRQjiHPjmfNJJBL07NmTCy64AMh/dLRlyxZ/1KVQfgRKAGxWrlyZ93auMfSBAwcyceJE/3hBCP2zsWsjtNaMGzcOyH/X6K5du2hqapJuwDIlcPMBGAM0yad8YgSgvr6e6upqP/kXNO9vsIVpyJAhVFZW0tLS0kokD3futiEf7vO+ffsKVoQlFJ7ACIDxMGbq6vfff99fny+M9zz//PMzPFxQH3Y7OdmvXz+qq6vZtm1bXu6RKUJyHEde813GBEYATPtWa01DQwObN28G8t/9VFNTw4gRIzKKboKKnZisrq7mnHPO4Z///CfdunUjFovRpUsXIpEIXbp0oaKigi5dulBVVeX/XVVVRWVlJRUVFVRUVGR8Ntub/djLgAEDgPznG4TCExgBsA29oaGBPXv25PV4prhm0KBB1NbWtqpADCrm3GKxGI8++iiQfBVaIUYMBvm+CEdGYAQA0sbX0NBQsGOefPLJ/rsEgh4BQNoIlVL+XIMGW8Sy12V/Ptz+beStQeVLYATAboNv374dKMwEmSeeeGLGtN1Bf8DtoqC2sK+hI9dzOCMP+r0ROk5gBMDOcO/YsSPvxzMGdMwxx5SUd7MjgHzuXwgHgczqmKxzIR7Gnj17FuxYghA0AiUAxghbWlqAwlQAZrejBSFMBEoABEEoLIESgGyvnO+ZdyAdbQhCGAmUABi6du0KFGYM+q5duwp2LEEIGoHpBbC7Afv27Zv345nM/2effZbRtRb0ZKBdrtzWLD2Hu4YjuUa76zHo90hoP4ERALsbsKamBsj/SDeADRs2BGbyj/aQ/b6EziZX4dCR1hUIwScwAmDQWlNXV1ewCTk+/PDDjFGAEOyH3L4n69ato6GhgS5duhCNRlstsVjMLxOOxWJEIhF/gI/jOP5ne92hjL1UoiSh/QRGAOzBOHV1dfTq1Yumpqa8Hc9EF++//z5bt27luOOOK4mH254o9Pbbb+epp57yxcs2cPM51zojDNn/ms9mmy5dugBw7bXX8pWvfCVjrkShPAiMANh17LW1tfTv398fh57PSGDHjh28+eab1NXV+bMBBVUEbOOPx+MZMyZprXFdF9d1O/245557LkDg74/QcQIj5+ahSiQSVFRUcNpppwH5HYJqRtAtXbo048EOao+AfX6bNm3io48+8v9ua/vDLSb0z7WY5kNtbW3G/oTyITACAJmZ7S984QtAfhOBZt+LFy9m9+7dgZ4NyHh5c86vvvoqu3fvPuS52oOc2loSiUSbi+u6eJ7nJ2Uh2PkRoeMESgAgPfR09OjRRKPRvJcDK6X46KOP+Otf/5ohQEGLAuxBQEopFi1alLE+X3Tr1o1+/fq1axSiUHoESgDMw621ZujQoZx66qn++nweE2DOnDkZ018H6WG3vbXjOGzevJlnnnkGyF+EZO5LbW0t/fr1K6muUqH9BEoAjOF5nkdVVRWTJk0C8isAJrH10ksvsXDhQn8OgiA1Bey2v1KKRx55hMbGxrzPmAwwcOBAqqurA3U/hM4jUAJgP2Baay6++GKi0WhBCoIAZsyYQXNzs+/9g9AUyPb+n332Gffdd5//Xb4588wz0VrjeV7R74XQ+QRKACA9G63WyXf1mWRgPr2d8W5vv/02s2bN8qcIM+dTrAff9rqm8u8nP/kJmzZtyvt5GdEdM2aMv04igPIjcAJgHupEIkE0GuWaa67JWJ/P4zqOwy9+8Qv+8pe/EIvFcF23aPkA+7ie5xGNRlmyZAlz5szJ+2u6jKEfd9xxjBw5siRmTBaOjMAJgN0/rbXmsssuY9CgQQVpg2qticfjXHfddaxZs6ZoImAXRRnj/+STT7j++us5ePBg3s/DRFsTJkygpqbGj4akCVB+BE4AIPM9eNXV1dx8880FPe62bdu4+OKLeeedd3KKQCG6JgFc1yUajdLY2MgVV1xRkNAf0uH/JZdckjFZqkQA5UcgBcDu804kElx99dUMHTq0YFGA4zh88skn1NfXs2LFCmKxGIlEolVeoDMN0TY0U9Ybi8VoaGjga1/7GqtXry7IG3rtbtgJEyYASPhfxgRSACCzJqB79+7ceeed/vp8YzLuGzdupL6+nt/97nf+QBrP83wP2RlCkD0duYk2YrEYb7zxBhMnTmT58uUFmSId0vd3ypQpdO3aFc/zAlUTIXQyOqAkEgmttdae52nXdbXWWl9++eUa0I7jaCDvi1LK//z1r39df/DBB/75xeNx7bquTiQSrZb2XFv24rqu9jzP3+b+++/XvXr1Ksr19u/fXzc2NupEIqE9z2vXNZn/K6213rhxo66pqWl1D8O4RCIRDehbbrlFa639ZyYoBDoC0FndYHfffTe1tbV+8U6+0Vbbd+7cuYwZM4a77rqLLVu2+ANlTOGSPTuPPkz9vdnGNCtM16fjOCxfvpxJkyYxbdo0du3aVTDPD2nvP336dGpqamT0Xxgoiux0kEQioePxuNZa6yeeeKKgXtEs9vHq6ur09OnT9apVq/zzyj5f13W167o6Ho/7S7aXN7S0tOglS5boSy+91D+OUqqg3tMc64wzztDNzc3a8zzf+0sEUL4RQOAFwG4KGGP7wQ9+UBQRUEplHDMSiegvfvGL+o477tCLFy/W69ev1y0tLe26rk8//VQ/99xz+o477tBnnnlmm2JTyGuLRqP6ueee01of2YMqAlB6AhCYCUHawm4KOI6D53nceeedvP/++zz11FMZVXv5RlsJO3Muq1atYtWqVQD07t2bE044geOPP57a2lr69u1L9+7diUajuK7Lrl272Lp1Kxs3buTDDz9k69atGfs34X6hQv7s4373u99lwoQJGS9K1VrGAJQzgRcAyOwW9DyPWCzGQw89RGNjI8uXLy+oCAB+gQ6ku8g8z6OpqYmmpibWrFnT7n2ZsudiGD6kjX/MmDHMnDnTz0kAYvwhILBJwGyM9zUPbK9evXj88cc588wzizpXXXZ9QPZ8fPYMO/Y6Y1h2t2KhMfeyX79+/PGPf6R79+7+dUjyLxyUjADYUYDjOLiuS21tLfPnz2fUqFF+330x0VZm3yz2DDv2Ol3kfnVTZNWrVy/mzp3LgAED/PkQpN8/PJSMAEBmPsCE/XV1dSxcuJCJEycGQgRKAVNR2KNHDx555BHOOeccXNf1uzUl9A8PJWct2SLgui5HH3008+bN49prr/XDaRGC3Jiwv3fv3sydO5cLL7xQjD/ElKSV2CW40WgUz/Po1q0bDzzwAHfffTeVlZUSDeQgEomQSCQ44YQTWLBgAfX19WL8IadkLcTOVJsH2/M8vv/97/PMM88wZMgQiQZSmOv3PI+xY8fy3HPPcfbZZ4vxC6UrAJA5MMhk2l3XZdy4cbz44ovcdNNNfrIrrFltu5R4+vTpLF68mJNPPlmMXwBKXAAgszlg5wVqamr49a9/zdKlS/nSl76U0Y0YhofdvPQkkUgwdOhQFi5cyM9//nO6devmTzIC0tcfdkpeACBz6LBSyp9I1PM8JkyYwAsvvMB9993HoEGD/C44EzGUE0YAIRnuV1dXc/vtt/PSSy9x4YUX+l2QpvjI/EYIL2VlAXY0YDcJKioqmDZtGitWrGD27NmcfPLJGZV3JhQuVcy1mgrFiooKrr76apYvX86Pf/xj+vTp4/fxl8pbkIXCUFYCALmjAZ2aYaempobbbruNVatW8Zvf/IZRo0YB+FNeGw9aCoZhe3sjZr179+a6665j+fLl/P73v+f000/3vX40Gs24L/m8RiPCQvApibEAR4JdzWY3C7TW9O3blxtvvJHrrruOZcuW8dhjj/HMM8+wffv2VmW9prqv2NjluUawzLkOHz6cyy67jMsvv5yBAwcC+DX92ZV9hRA3e36DsFcVBvl9k1DGAgCZXYVAhkGbtxDX19dTX1/Pxo0bWbZsGfPnz+fvf/87jY2NGQOMjDGZ/eXTy9nGbs43+3innHIK5513HhdddBFnn302VVVVAK0GKdkJ0nxjzi+RSNDc3BwI4Sw25h4cOHAAoKD/H+1B6RDJc65LNV2EdkJwy5YtrFq1iueff55XX32V9957j+bm5pz7zDVwpj23NPsBONz4gKOPPpphw4Zx9tlnM3bsWEaOHEmPHj387+06/kJ7fIP99qJrrrnGn9EoSA98oXEch5aWFq688kpuvfXWjKHWQSBUAmCTfdnG02b3Driuy8cff8zatWt56623ePvtt/n444/ZsmULO3fu7PQooKKigqOOOorjjz+eQYMGcfrppzN8+HBOPfVU6urqMra1vX02xXjAjKGbexJmw7ex8y5BS8CGVgBs2hIDO9Fm09LSwmeffcaWLVvYunUrmzZtorGxkW3btrFz507279/Pvn37OHjwoD8C0AwHjsViVFVVUVlZSa9evejTpw81NTXU1dVx7LHH0q9fP/r160ffvn1bGbZp92dHLIagPFRC6SACkEW2FzPr7LLi9tYP2EN/jdF2JPyzeyfaytwHyehz3TshjUQAJUhbD3WuRKBtqIf6D7ZDZHsf9u/s3wfxwRHKAxGAIyQf3k4MXSg0IgCCEGLKrhJQEIT2IwIgCCFGBEAQQowIgCCEGBEAQQgxIgCCEGJEAAQhxIgACEKIEQEQhBAjAiAIIUYEQBBCjAiAIIQYEQBBCDEiAIIQYkQABCHEiAAIQogRARCEECMCIAghRgRAEEKMCIAghBgRAEEIMSIAghBiRAAEIcSIAAhCiBEBEIQQIwIgCCFGBEAQQowIgCCEGBEAQQgxIgCCEGIcwLweXF4TLgghwwFU6rM61IaCIJQfEgEIQohxgJbUZxEAQQgZDrCr2CchCEJxcIBtqc8SAQhCyHCAhmKfhCAIxcEWAI1EAYIQBvzEvwPsJm380hUoCOWP3/XvAJ+lVthdgoIglCd2pL/bAVYCcSCCCIAglDsKSJC09RUO8AHJWgBpAghC+aNJCgDAxw6wE9iQWmGUQRCE8sUMAlznKKUOAi+lViSQKEAQyp0Iyah/qVGCd1P/KiQCEIRyRVvLJmCDEYBnUyuj1oaCIJQXCvBSn59XSrUYAfgEeI90gkCaAYJQfphEvwJWATha64hSKg4sTG3kIRGAIJQbxqajwH5gEWQW/ywgqQzSDBCE8kMBLkm7XqqUatRaK0cpZfoEVwNrSRcKSDNAEMoDu9RfAfNS6x0HINUMcIFHyawUkihAEEof07sXIVn6/zSAUsozSUATBTwG/ItkM0AqAwWh9DGO3CNpz48rpfZorR1IVQQppbTW2lHlH0z5AAAEbElEQVRKbQCeQKIAQSgXjBOPkBzz89vU3xpyvxfgVyTVwnwnUYAglCa293eABUqpd7TWSimVKQBKqUTqi9dJdhE4pLsEJQoQhNLDOG9jy3dnrW8VAZgvfoxEAYJQyuTy/q+knLzJ+WUKQCoKcJRSq4HHSSuH2aEgCKWDSeTHgTtT6zKcea4cgDH0HwEHU9uYugARAUEIPsbwPZLJvz8opd5KOfeEvWErAbB6BP4JzCItANItKAjBJ9v4PwX+Ozv0N+R8O7BJCJJMGrxNsi7A/FiiAEEINqb97wD/qZTaRhvO+5CvB1dKHQCmke4NkKaAIAQX2/tHSSb+/pQr9De0KQCppkBEKfV3YGZqh/ZIQREBQQgO2aH/VuD6VCTfpq0etk2fKhl0gGXAWJIjiqKH/JEgCIXEGL/p9osAFymlFhzK+8NhmgBm56mBQpeRnDjERALmwIIgFA/b+I1zvj1l/JFDGT+0M6tvVERrPZrkBKJGOMx8AtI7IAiFx3bAcaAL8IRS6rKU8Xtt/M6nPRGA6RUw+YCrSBu+JAUFoTgYmzMTfXQB/gZcnWr3H9LzG9olAJAcO5wSgceA75B+k5CIgCAUFtv440AMeJ1ku38fJJP47dlRuwUgtVMjAr8FvktuERAhEIT8kcv41wD/Sym1M9Vcb7cNHlHb3coJ3AT8mnRSMGKdpOQFBKFzydXmfw34ilLq08Nl/HNxxEZqicAU4MHUape0CHyu/QuCkEF2tj8GLCcZ9u84EuOHDjYBbKzE4EPARUAjyS4I12yCNAcE4fNiT+jpkWxux0iO1p30eYwfPocAgJ8TcJRS84HxwBupkzMnKnkBQThyskP+SGr5L6XUFUqp/W0N8mkvn0sAICMSeBc4D3iEZCTgpE4aJBoQhI5ge32TZI+RLMS7WCk1W2vt2FN7HSmd1ka3wxCt9TeBnwHHkk4Q2mIjuQFBaI2d4bfb+gDzgZuUUps/T8ifzeeOAAxmCHHq5P4EfAl4knTYkj2QSCICQUhie3xI59FiJN/i+y2l1EUp4z9seW9HyIsntssQtdaXAP8NjEh97ZIUHvvYEhEIYSTb45uBPCbh9xAwUynVkKrua3eBT3vJm+HZJ6y17gJ8G/gP4KTUJrmaBnk9J0EICDrrs0c61Ifkq7tmK6VehUyH2tnk3diyooGewBRgKjDY2sxkOM35GEUUMRDKhWzPbd7UY+pm4iRf2fVrpdTfwB+Krzvb69sUzMCyhKASuILkwKJzyFS/OMmoIDtpKIIglArZob1ZZ7rG7WK5T4E/Aw8qpd4CP3r+XN177aWgBpW6MMcOZ7TW/0ZSDL4KDMpxTiYhYkTBvrmCECSyu+7MvHzZzdxmYAnJF/A8qZTaA4U1fEPRjCi7XaO1jgFnAPXAF4GzgJ50Yk+FIBSJfUAD8CzJUXuLUhN1AklbIBnqF8zwDUX3ombKsdSsQ/b6vsCZJCsMa4FRwBAkAhCCi4kAdgMrgA+Bf5L09ptSk+wmN8wRDReD/wEj5KImhOpBBgAAAABJRU5ErkJggg==;" parent="mZ2qIeFOlVFqwqRpEA1V-1" vertex="1">
          <mxGeometry x="356.25" y="-795" width="30" height="30" as="geometry" />
        </mxCell>
        <mxCell id="mZ2qIeFOlVFqwqRpEA1V-12" value="bash" style="rounded=0;whiteSpace=wrap;html=1;fillColor=#e1d5e7;strokeColor=#9673a6;" parent="mZ2qIeFOlVFqwqRpEA1V-1" vertex="1">
          <mxGeometry x="466" y="-800" width="60.5" height="20" as="geometry" />
        </mxCell>
        <mxCell id="mZ2qIeFOlVFqwqRpEA1V-13" value="python" style="rounded=0;whiteSpace=wrap;html=1;fillColor=#e1d5e7;strokeColor=#9673a6;" parent="mZ2qIeFOlVFqwqRpEA1V-1" vertex="1">
          <mxGeometry x="482" y="-783" width="79" height="20" as="geometry" />
        </mxCell>
        <mxCell id="mZ2qIeFOlVFqwqRpEA1V-17" value="" style="rounded=1;whiteSpace=wrap;html=1;arcSize=4;fillColor=#fff2cc;strokeColor=#d6b656;gradientColor=#ffd966;" parent="mZ2qIeFOlVFqwqRpEA1V-1" vertex="1">
          <mxGeometry x="123" y="-980" width="179.5" height="90" as="geometry" />
        </mxCell>
        <mxCell id="mZ2qIeFOlVFqwqRpEA1V-18" value="PWA" style="rounded=1;whiteSpace=wrap;html=1;verticalAlign=top;fillColor=#f5f5f5;strokeColor=#666666;gradientColor=#b3b3b3;" parent="mZ2qIeFOlVFqwqRpEA1V-1" vertex="1">
          <mxGeometry x="152.75" y="-970" width="120" height="70" as="geometry" />
        </mxCell>
        <mxCell id="mZ2qIeFOlVFqwqRpEA1V-19" value="" style="shape=image;aspect=fixed;image=data:image/png,iVBORw0KGgoAAAANSUhEUgAAAcMAAAB2CAIAAAA7lG/7AAAAA3NCSVQICAjb4U/gAAAAGHRFWHRTb2Z0d2FyZQBtYXRlLXNjcmVlbnNob3TIlvBKAAAgAElEQVR4nOy9eZAc13ng+X3vvTwr6+4DR+MgbgIgwQviIUqkRMmalWWPLdnj0TqsteUjduRZO+z5x+N1WGGv5QhbUsgRHocVFmc9ayvGM7Llg6s1SUuyKPEQJYoXAILEjQYa6G70VXee7337Rza6q6urGt1dB9BQ/SIYQXRlZWZlvvzyuz8kIujTp0+fPm3AbvYJ9OnTp8+Gpy9J+/Tp06dd+pK0T58+fdqlL0n79OnTp136krRPnz592qUvSfv06dOnXfqStE+fPn3apS9J+/Tp06dd+pK0T58+fdqlL0n79OnTp136krRPnz592qUvSfv06dOnXfqStE+fPn3aRdzsE1g/UlEYSS+QRCSJkIBxFIyZuhAcEfFmn2CfPn1+WNgwkjSIZLEaTMxWr85UJ2YrcxW/WPNrXhRKFUkpJTFExlDjzNBFwhTphDGQsoey5qasM5y1U7YheF+2rodqtfqd73zn1VdfJaJMJvPYY4/dfffdABCG4csvv/ziiy+GYWhZ1nvf+95Nmzb98z//89TUVKtd6br+sY99LJVKPfXUU+Pj4wCQyWQ++tGPbt26dWGbZ5555tixY77vA8ATTzxx5MiRp59++syZM1EU2bb90Y9+dOfOnbfBa/Ls2bN/+7d/G4ZhLpf7lV/5lfPnz//DP/xDGIattrcs65Of/GQ+n+/lSXYEIrpw4cKXv/zlFbYxTfOTn/wkET355JMrXARN0z7+8Y8PDg7+xV/8RblcbrWZZVkf/vCHDx061NZ5r5FbWpJKRXNl9/xE8dTlwui10rW5qi8RGZNShVJJGUWRkkopIlBECAwQGQrOOWNCcCEKDIERmToOZxO7N6f3jeR2DqdStnYbPIo9o1KpPPXUU1/84hcBYNu2bbZtL0jSZ5999rOf/WwQBMlk8tOf/vR99933p3/6pydPnmy1K13XDx48uGPHjj//8z9/7bXX4j/Ozs5+6lOfGhwcBIBXX331t37rt9588834I03Tdu/e/Vd/9VdPP/10FEXpdPrw4cPbt2/nnHf9Z3eZU6dO/cEf/EGtVtu6desnPvGJEydOxP9stb1pmj/+4z+ey+U23NJVSp05c+bTn/70Ctskk8kf/dEfBYDf/u3fXmGzRCJx9OhR27Z/7/d+r1gsttosl8tt2bKlL0mBiAoV/+Sl2TfPT58bn6t4ShG6vu/5getHQRRFkqRSigAIABpbVSMAAiJDxkDjXBPc0rXpcnB2ovKvb4ylHX3vluyRXQP7RrIpW78pP3BjgYicc8aYUkoIIcTimtF1XdO0IAg0TdM0jXO+8nNuGIYQgrEl3vkvfelLDz/88Pvf//4wDP/sz/7s3LlzCx/FEtMwDM55FEXx1zv9+24OjLH4WpmmiYg3/F0bToDW03DHW4GItm2v8DpZwLbtFSTpTeHWWpdhpEavlV45PXns/NRcNfJDWam5FTfwgjCSREQUC0pEAFj4r+kSI6JIQiQj1w+LVY8VUHBm6sIpGdeK/itnrg1nzHt2Dd2/d3DrQJKzDbxMewniogNaCKFpWv2nSqmVRzD4vi+lbPjjlStXnnzyyd27d3/3u9997rnnKpVKZ895Y5FOp5944gnDMBr+nkgk0un0TTmlDpJMJj/wgQ/oeqMGE/+6QqEQ/1PX9Q996EOO4zRsZprm5s2bF5aQEOLxxx+PrZmGve3atasLp78St4okDUJ5drzw4lvjb18ulGpBueYXKzUviCJFRMQAAWGtUaT5ja9/K5QqrAXlmn+tULENba5sjs24L50cP7Qj++jhrTuHU4L3MxluQK1WO3bs2DPPPAMAvu+fPHlyYVlLKffv3/+Zz3xmbm4OAP7mb/7mhRdecF2Xc/7zP//zDzzwQKxR3nPPPcu1iaeeemrHjh3PPffc5cuXe/yLbjU2b978xS9+MZfLLf9oo/s0EHHLli1f/vKXbdte/qlSamZmJv7/VCr12c9+ds+ePU13cuXKlfj/DcP43d/93UceeWT5ZqvUgjvIzZekiujSZPm5Y5ePjRbmyt5cuVaqumGkFBEDROyYXbOgw0pF5VpQrvmGVp1NGNNl/8Ro4e47co/dvXX7YGojW1FdZ2Ji4vOf//znP//55R8ppYaHh3/iJ34i/uexY8deeeUV13UR8YknnvjJn/xJ0zTjj4rFYoPq6vv+5z73uW6f/Ibg3LlzDzzwQL3uH5NOp//xH/9xx44dG9rMV0r5vt9UktYzOzv7gQ98YLnHw7btJ598ckHfrNVqP/MzP7Ncf89kMr//+7//Yz/2Y5067dVwkyXpTMl78eTVl9+ZvDpTnSvXilUvihQCASLr2opZEKl+JKcK1ULZm3XM6bL79uXCI3cOP3JwSz5ldunQPzzQvDMGACAIAqVU083S6bTv+77vxxtzzpPJZLVaXSGAe1uycH3CMLx06dLyDVKpVBAEvT2pXkNE8X1XSo2NjS3fIJFIxO/meDMiijNAGsjn8ytE9rvETZOkQSRPjs7+y2uXTl8pzpaqc2U3jCTWuUB7QOxlDZWaKdbKVbdU8aaKtVNjcx+8f8eh7bm+sd8D7rnnnm3btn3jG9+YmJgAgEceeWTXrl3PPvts/M8GENE0zd4bbt2GiNLp9IEDB1zXbfjI87zR0VGl1A2jeRud+OYePnzY87yGj6IounjxYiw94/jnwYMHlyfbKaUuXboUX8MfFut+puQ+f+LqiycnxqbL04WKG0RIdLMWSiy6A0lTc+Vyzat60WTRf8/B4UcPb80l+8rpEpLJ5AMPPLB//34iiqLo2LFjr7/+ehRF7ezzl37pl6anp7/5zW8KIT71qU+dP3/+61//etMta7Xa3/3d37355psLHsNt27Y98sgjmUymnRO4KdQH63zff+KJJ1599dXlmx0/fvzRRx8tlUo9PLUuwhhriFIugIgHDhxYyI2rZ3x8/KGHHopVdaVUPp//9re/vXyzSqXy+OOPN72MPeAmSNILE6WnX7nw6rnpqblqoeKSUrE3tPdnUk+sn7pBdHVqrur6cyX3ymzt39y//Y5NGz5g2kEGBwd/4Rd+4ed+7ucAIAzDz33ucydPnmxHkkop8/n8L//yL589e/bd7373Qw89dPny5VaugHK5/Cd/8if1f/ngBz+4a9euDSFJv/SlLz3zzDMLXotr164tKF+6rr/88stf+MIX4nqEeorF4nJFdYNCRGNjYz/90z/dIEwRMZFI/NEf/REi/uZv/uZyJ4bnedPT0wsbl0qlX/u1X5ubm2vQvaSU9Sl0PaanklQqdezCzNOvjJ4YnZ6aq7pBiNQqi+nmgACSYLZU84KwFkRzZe9Hj+48fMdAP00qhojqPXqd8mZ+5CMfGR0dfd/73jcyMrKmL2rahimyeP3117/2ta819XUyxq5cufK1r31tNamUG5pqtRonfjSQTCZ/53d+h4i++tWvtnqPxiCi53lPPfVUnCJy69A7SeqH8vvvjD/z2tipsbmZQjmMJCL2yiO6BmJjv+aHV6eLYSRrflTxw3ft26SJ2809t0qISEoZr+8oiuo10CAIYmEahmGDZroQZYqiqCHPtP5RiTfTdf03fuM3Fv6ysHGcYtU0CzUmDMOVH7xbh/oQXD2e57X6qB7XdTfKL13Oas48vgI33DJeCStvFq/YtZxgB+iRJPVC+eKJK8+8evnM1bnZYnXeor+FQYBIqmuzpTBSfkR+IN99aLOh3fyksd6TTCY/9rGP7dq1Kw6MPPjgg/HfNU378Ic/nM/nwzA0TfPhhx+uv6cf+9jH9u/f7/s+Y+zo0aP1ydibN2/+9V//9cnJSQAYGRnZsmVL/eE++MEPZjKZarUKAI8//rjjOL/4i7/42GOPNX02du3aNTw83I1f3XF+6qd+au/evct/RSaTMU3zyJEjn/nMZ1bQ8Q3DGBoausWfmqYwxvbv3//Hf/zHK2wTp9wrpb7whS+sXHe/b98+x3H+8A//MF4hTbEs67777mvrpNcO3vBl2D5eIJ8/Mfb0Dy6fuTJbKNeAehacbxcCYIDppLVva+5/Obr9PYe3GtrGzo7u06dPN+i6khVE6qW3rjz9g8unx2YKFRc3jhgFAARQQIVy7dQYAJJg7JFDm3XRF6Z9+vRZQnclqVT0g9OTz75+XYzCRhKjMQhAAMVK7dQYaJybOn/XgU3dqxro06fPRqS7kvT4xamvv3b55KWZYixGNyYLwvTkpZmEKRKmdtcdAzf7pPr06XML0UVJemGi+K03r7x+drJY3vC5HQhABIVS7dUzkylLT9r6zuHUzT6p7kBEUUgy2ojBDQAAIhAaiubp322ggEKlblr9SNsQoIbYYceUVBTIjZpRAACIqHPWkRTHbknS2bL3/Imr3z15tVB1SdEtlTS6Pq77TL2XTl4ZSJvphJ51bsMKKFUuVL72195zT4FSXY9FdgGKwtQn/pP17n+DRifvTuSeL1/4v1RU6OA+ewlRlN71B1ry3s7u9vlzc7/8ldOg2ipyu0kgAA0n9f/68UP7hxPt764rkjSU6genJ58/cWWm7EVx3uhtAQJESk6Xve8cv7Ipaz9298jtV5uPQoDvRZNjFIUb8sZFEbDOl8whaiq8FvlXO7vb3hC7p4B1XE8HnbOz03EJ1kZ87UIkQRedWSpdkaTvXJp9/uTE2HQl8IMN+TS2BgH8ILw0VX7hrYnN+cTB7Rtvrs4N0HRMJFE3SUrYaL1CiIgZJk9mATt85sgdFA54nDHcgDKDGDMZ73zdcz6hGah8RcsmV2wAGGMZW6TMzrxgOi9Jp4vu905NHjt/rVrzumrUE4BS88UOiggWWzt3PUGgUK69curKyEBiOGPnU1aXj9ZTkAtmJVDT0WuZ+Xwrg5oBtoOdfgcgs5DZjDEitQFdVYTMQt4BG7aBlClsnfme2ng6KQJDljSYrXfGd9xhSaqITozOfP/URLnqE3XePUoASpJUChBtQ2RSVsYxkrZuagIQiCBUECoIJSgFhDD/PHV65ROAIbRZj64W/NtMkgLjaNqg6UDUpTdSZ4tB6o0eUgoMk9tOxwNDyAzkjcMwOktntbolv58IeYLxG/RXXgeOwVOmmPPDLgrSzu657rIwhmlLN25N637WhbGKNuuhHwSdbRGoCKSUnLMtA87ddwzct2do30huOJtImKLBWUkAvoKKD0Ufij54UVyq1GEIQBeQtMGNwLq9ikjRMJluSqIuqV7C0JCtdZRMSyI/pIXYGBGzHTSsjuukgByZ0z1xgQiaJjvlOVAEYbi4KAkU8iSwxt7y7WPrPG0KKHYr4oQctYTZmaWCoEIVVheanyJjmLW1TuWGd1IGRIpGZ6OJwLTTOW1mVoZhR3RSAogiZZni3v2bfuSBnUf3DeeS1go7RgCTgWnBgAWhgjkXrtWg6EGkoLMdnXyA2RrYDEyx4QoOVgINC02zS54vRDSSlpEwOvJ4yEi6s5XAvd5gSSlMOKB1XmQAABMpQOya8kWppMtZR/puUBSJ2cKiBo1ATKS7URXDGeZsDbCxGWBnQOCaltmzCduO6yIiEXkzleI5b+EycMazVsfSwjopSacr8mKRqlKks7l0Jjszda39Wxcp0jg+dOfmjz667/69Q4k1uoc1BkMJyNtQcOFqBYo+qM65uZSEkENFghOC3fm46E0DTQuN7rosOmbgE6m6fEYEADuJ3Zkc1yVhtEC9q7/tXbF61xqRYlq3WrgOOFrH43v1kCJoW1WneJ57tCT1lTHMJzo2p71jklQquFJSF6Z9L5AJx8kPDlfKJd/z1q16EICUamve+an37v+R+3e0076eI+RtSJkwWYHxCrid0ZUBACIJhRo4HCzt9lFL0bDQ3ADOX0RUDWnhpHgy06WUA+yyJO0gSjWcJ6HIdulYgwltY4TgCJWUUNc/iTPMd04D6pgknXPl5RKUQ1BKMcRMPl8qzk5eXWf+nSIAoKP7hn/+Rw7fs3uoaRVCKKnkyrlKVHSlFxAiGYKlbJ5zRMriGm/8isZgJAWOAZcKUPA780woCQGDqoRUBObt4i1Fw0LD3hjpa9TYqhKdNLKu6KRcZLrgb+8CRFLFGbWLqhzrmiQdSnbFl9INVLjEecIRcnbHHtqO7Wi8JC8XwjBSCEBEhmnmB4fLxVK1XFqr+18RcAbvO7LjEx88uHtzo1USRHRp2j9xuXZ6wp8qBtWQpJw3FhFBMLAMPpwUezZbh7db23O6oS05esYAPQeXSjDVoSQfRVDyIMVvI0lqWmjaG0LRaBCjRMS6ppOCSCHTSHXHJ9hRVGOwEJmW69KxhpL6BkkmJbXEuicGdMtZ99WArpblTCWSUs7fQ4JUJpsbHHDdGkm5+scyFqMfvH/n//aBg9uHltS2eyGduuq+cKp8esLzfIUMOEMEaFA/a7467wVnrvnfPlnas8l89EDywBbTrJOntgY70sAAJjshTKUEl6AaQVrB7dFWH3UTLRsYp5s3pnC1LK1oRcZYuvNp+TFMpJFpG0BmICq19LYh655OOuhoG0KSklIk1aJ/hoCDzN5qOulMVV6rMQkMYF5/JiCh6bnBoXKhWJidWeUDSQAI9N67tv/s+w40iNGx2eAbJ0pvXKy6gRIctdZZYAwBEDhgKOnEmHtm0rt3h/3E4dS2/KIZYgkYSYFUMN3+tDEC4OATuBEkO/aGu5mgbnDbAc5xhVF3UUhyXbkviBRwEOsN/HEBvC6/h4jqhCkBilS2SzopE0kAjQjY+gP4EallDeFRAIi6ixGBDNbpe0IOqMN8xIkW9okomOhaxCmhg1ox5YBxYOsKIxBEiDWpcF35eAhkcFxIciJFKpL1Hxsc09at5CdVBFM1NVEMogWFNIbISaZzQ0PVajkKVhXlkYru2z30U+/Zu6vOqI8UHRutPf1GcWzWR2zUQFcAEQRCFNHLZypX54IPHckc2W6L61+3NdiSglBBoe1SLCmh7EFKu10kqaaDaSMX1FSSEqFhGu96v37w/nXILEQUpsbXO8dFHn9RXThO4XwVckPECTWN2aluWfcsgczE9WfSRXrq3ZpzP9a9CYAgrB7zZ7913T8VgfEwWO8BXNf1CS9A5atAamnEiQA1FN1qXZZLaByUhCVu2XkQGPIDg+YnH9zS7Ks3hgmu55z1PJ8IRV/99ZnSlBfy6zYKLUnzwIQhksatlAXlhjRZkmVfLruBxBjPDgyWCnMzk5M33E+kaGs+8ZGHdt19x+DCH4OIvne28uyx4nQ5FOtaxIggOF6eCf/++7M1Xz24x1noWZA2YNgBX7YbzVcKPAI3guj2MPCFFheMku82jVYTMu3Avc6//QXoTr7RCtDMuLz4VnxOsUK6kFBFREzT0Ul1y7rnNnJ7/TMfKNKcBxJbfg5wiR7kXfuqP/et+X+oEMz7IP2LsWq5ZmrfhPJXiaC+qIKIGDe7V6CVsYSlsUqomirqyPjmlPGfntjZpaOvwJVq+JVzZbp+w0gqkmr+5iEwxpI6T3ROknZgzRVcNRcwBU10RSJlW4n80LBpWSunEBKAobHH7t728J1bFiL1kaJXzlWePVacWa8YXYAzmK3IZ98svHK+EsnFM8lZkLfaztgnYBwCAr/XAw27AnKBpg1Ca37LEDEKVblAXs/bzsoIamWkOj20vmEoEWgGWInOFzjFoMGEA20kwxI1mfWmKFxqyUXrL5CMJoAiAKz3byMQMpt1oeg+JmkIx+Ct3i+k1EwtqAW9fjAUwZSnKpFaYt3X6aQMWcriltaxpdIRSSpna7JlN0uETDafyQ+uXJUlpTowknvk4JaMs+jNfOuy+62T5ely2JFx85zBTEV+663SW2PuwrlqDHIWOEa7TnNF4EXgbcQ+jctBRNNCreVFIRmRV6Og11FsigJyq3DdM1qvkAIAAjDLZlaiS1kHyHRkzi09eEbNAhIRNmQ0IHeQdauXbsLgaVM0twMICFTJjWpBr7tBK6JyoDy5OMNYRZLqrgtjmDaF1rmumO3uSBLM1VSxFqkWXmci0g0zPziUSCapxZRqReBY2rsObK5vUjc2G3z3dOXqnN+mNloPZ3B1NvzumfKVmWDhj0kDsia0eUmVAi8AX26IMOYq0E0wzFbXnZQit0qB1+LzrhF4ELoLemgsRhciTqQU2g7oZtfyt5CJ5C19f+UMACgF9RoikWJaep2O11VgCJa1WybnE1HFl2W/1yqGIigG0pfzbg5EpCUudeScZTsXboL2JakbqqJPXqhWEiFEyUwmOzDIteYJE0qpnZvSd+0csIz5++2HdGy0dnqiuZ+uHRDh1FX/2KWaF85fWY6QNsBuLyuOCEIJgYToVn7SVg0aFjdbOmSQCLya8trPe1gjvku+CwvW/dJSUSDiTqoLc0cWQZ66pdNs5SwAKMKl94260Zm0nvwKZU4EbqQKtZYj7LuEAij4KqrzoZNc4sllyPKJW0mS1gKqRIxW9PETkCa03OBQKp1e/nASgC74we353VsW4/UXp/y3rri1QHW25wgAIIIXqrfG3NGpReM0oUFSa89bSsA4RADhbeEqZZYN+gr2ICmvRn7PJalXg9CPlxAiUoNDiYjsZLecpADQ/dL7dpFFuF50XwcxrVvJpDEDCa3lZUFSIObcXuukUtFcIBdD4IQqkvUOaM6xgwVO0H7svhpQNbhxPFORSjjJ3OBwtVwOg6D+DaYUDWasPVuz2ese0iCic9e8q7NBR9yjy2EI44Xw3DV/55BhCAYAGoekATMu+FEbOgdCqCDawPPBFkHDQqtlO0siUm4Nei5JKfQoDOB6cw4iWlrjRCyV6Wo3DabdpIJR/zjUvr7yJkQSo7NAoFTcsXBBanSx6D5myNFbPzZIDEs9DyAoglK45E27JJkUgCPmnU7qpO1K0lqgqoFaTTSTMZ4dGCgV5qYnxuv/TkSb8omRvLPgG75WDC9OBV6ouiRJEcEN1OiUf60YbcvPp5uYAgwB7fhziCCSEN4ukpQZLQtGEZF8l1pY9/6J70dnT8jAazq7ABE1S0fO1pqYiYhqYhQqhcUYgmxSKtqlRlDz8BQyQSq48ZadxT8Bs59feRNEBNABUClsUG1410pFYwZXEkkUBPKvX7l6eqp2IyFBUlGoMG+JDx8a2DWw/h46UtFYLfrBpFcX/CC19MlkpAY6VyoK7UtSPwIvkKuRpETKsuz80FClVHKrlQUrjDG2JZcYzi5qQJPF8Fox7KoVhQCTpXCyGC5IUoODJaDcxkFjV+ntopOaaCdapbgTAfheK+s+eOuVylf+PCrMNhVqjDEr7+iWvo46VGQcxKJLrsG6R0TmdK3oHgDmrfub0V4BBTC7vo9Ra6ihVBSBdV0nXaH0niBS4d+/Vfz7t8sr7gNBaFroffSu7H98z/aRzDq7ohDBpWr45NvFvz1fueZG+uLbmpaUigJxpGxHW2G2tSwIwI1UENHqM+DS2XwuXxj33PnAK4Au2FDGTiXmr10oaboSld2oq+kmiFB21Ww5DCXFRVMaA50D4vrjTkQQ3T7WvQmGjYw37+eKSIGnWkhSlsyg5fDAb2poIyLqFhrrkaSNLC0VBWS8a0X380fgKWQ64C09FK+xpR7ybvtJBx1jpYJRApABtPqcMUCR0uHfHcn/6nsO3jOSXN85EMFoJfx/TpX+5lzpalXqHLQ6o0fFafmLW6NAdQtJUqnAjyhamta3AkSk60ZuaKhcKpYKc8gYEZmayDimpc3rL26gCpXIl91dq4jgh2q2Jt1AaRYHAMZAZ8ARIrX+oIJUoAgUdbg5/01A6NxOQCxJl4GIKvDJqy24LJd8aiWgO33tGmhsTsoYc9Jdte4Zd5AbMiB2ywpTRKVwoeieiBAFE92P3a9j5H0sQzX69/cO/ep7Ru7eul4ZCnCxFP6306X/cbY0XpM6R2t5Uw5a4idFBpZgqY52b2tTklIkQa5J6hEl05ns4GCtVpVhSASmzhOmxq+7NNxAVQKlFHU7BVoR1DzpBiplcQBAAMHnm1Osuze1Aoq9VBuduPSeabqMgibuTkSIAnJrFIWoNTqb0EwwTeu2ak5EQIvlRkSEQjAn3fkpjHUgtxmz2lgi3YeWtNRDjGf5rVNIrZKsrRkcfQWrNegYA6ZldPqZI0O/+p6Ru9qQoRdK4V+eKv7Pc+WJmtQ5NJGh8ZaqrlQUAAEdkzsdmioa0651Hyml1mIPExDnIj8wWC4UZqenAEBwVl9pEEryQ6LuL1Yi8CMK6/I/EdrSJQkAAW8L4x5ACGY7ILSW1yOKlFuFKIRlkpQnHGK9cCaSUvF8HojDTUJniWRX/aTILGLWrTyrmQiXTjIk6M585npSJk/ofFWzmhkD1LImfPyeof/w6NbDW9YvQ88Vgr88XfrKudKkSzqnVjJ0fntZl3qMwBBTpujUfOaY9iQpEQICIMAaBAiRshPJ3NBQtVyquh5DqG+Jr1SHp/iugFJQ/xrogONOweJV2cgg42hYoBvNZzUjUhiSW1WBz61lT6lpo6Zjl+1fUkucpAgAugGm3dV8UmQG58lbuSRYESxtKkuMO8i6O0vGMUTSFLMrz2pmHJjIGfC/3jv8Hx7denDzOjuqEMCZOf+/nSl/5Vzp2qIMvcHzRnJJ6RBjPG0Ko6PdhtrVHRTR9ZDiGh4cZJjNDZTnCu7VK4qovmafMehZd2HGoN6HENuLbSnDt4NlP088q7mlwUGKvBo0K71HwwIg8r0WBVIIoaBg7TodIorFvMUFVXT+Q6L5QX5dXTzIUXTXUm4PImKNpaIiiV2Yz1yPpbGsrY2WWr9iEAcT2sfvHfrfHxm5c/M6FeRIwVtz/n99u/jVi5XJWmRw4MgCCcslDyIyVPr1dyoiqqg+vwgZg6ytd3altCVJEYAjABKssRUrEZmWlR8aLhYLYRSFkVxoz65zNLReyFJEMMSSjtGRVEqtX47Hb8bYf3cLO9JWSzyrmVpMvV+h9J6n89Z7PxLtO9LqEpgpi2lrN6x8V519Q1UKC7tVdfV/Sgz+5EEAACAASURBVClhJ3CluqzOgDyJiL2ymlbPvAZAaum5kerBID/OMGeJ1jULmNTFf/+5gx/Yn2+xwY1RBG9Me/8wWq1J9RM7EitnmkuC0XL4vWvuYiOoeKlc/xJnLNfpacDtS1JiSysqVgtBKpvJDQxVpq9Uar5UFPdgNnXm6IwxbGpWdhCGkDC5pc/ffkUUSRXJNgxzBCRAUoC97trZDdC0VigYRSDlVpsm57NMPvnvf7Xj50NTY/7//btYKUCThhRxIyinq07SGMbTN1+MkgJQgAQUAQABQ2YBMKAwLrqvN7SQd6tbfj0rld4DEYJjtCVqGMIDQ+YDQ6t6U7oR/c9zpRcm3Lj7KFHc47luqihnnS0VhTYlKWegcWQI68jDJCBdMwaGBr1KYaZc9fzQsQ0AsHWWcYTB0etmLxAiMHWWtRclqZTKD5VSrB0xiEgMN8T8yRvDTJuZLQtGAYDifiK9gqoFDDxqVSpKCrtcdB/DtAwgA+ptewWSQB6QAmSAOvAkYBaMrcC2gb4TxQ4Q26Hwx1D9TpywW18q2u1k0pihZOuCUQQFbKrcu8IwSTTpSrXY5LmxVJQhdLZ9CbQpSRmCJkDn6DfO114ViiiZTjuZ/FwlLFTcWJIKjgOOSFqiVgp414x8IkhaLJfUFmaZ+KFyQ6naSEdEBAbEb+z+3iAYFhjWCr4O8lzVy2bPbgVkuOAFamxfAoCJZJfmMy+BpRA5QW+bG2mbwfko6DuA7wR9O7BNIPKAS+NIKoDrSXi9LBWNGXJWqLxEApyq9lSSzvlLKpqWThUFjniLSVLGTA46Zxitr803cSYyA4PVcGpipjwyNG+GDGe0obQ2WVzvXLDVHBhgOKUNpxevZi2QbtDWKE1E4KA4w1u6GfCqQcNkVqLVFSECCDzoYWM9qpVVGCxxki6FOSliXS+J6Gqvz5ZYj4H12EobqCqoIiA2jFIDwG6XisYMOvoKIoAQpyu9e/cowlk/qjPnSYVyaaloJyfdx7RrDZkCTW398W5FynGSPk9MlYMFY20ope0c1E2ddcm8JwJLZzsGjaG0uP4XqvqRFxFrwzxEBM6I3y7h+3hWMzLe1G+DiMpzWxWMdgW3QlHd09hYKoqsaxOc6olnNXf7KGuGXFBlAFTU8C7p4nzmegYdbQWPh1I0Xe2dJJWKCsGSuSNLeswTMIo62+YZ2pektga2WE/AaQHOudIS12owV5o3FXWBu4fMrVldtppo0h6KYHNW2329pR4AuH5UcmVIbSmTRMCRxO0iSZlhoploOfMOEUK/VTuobkC1MqrFcrpG6x4ZS6S62wgqPg53GDNuuSonKoNyASAuFV34M6JgWi8iTgPOSrOaiWiq0jvrXgEUfVpIaF4+n9kUmLE7PAe4XUnq6GjyqMGhuyaIiBvmeBnGZhcfy51DxqGtlq2zjstSIrA0dmjE2jm4mGRXqPpFT7F22q0jqIiYJK1bmnTP0XRmJZaMFK6DACgMIOphfzm3AkouzB1pmCoKnKPVk4gTdwiNW67ASRaBPAC2VMITMh15t+Yz15OzNQ4tO1YQ0VwP2+b7UhUDWeclpfpSUYbM1rhjdHiptOsssHWW1EGgksDWW5tEQugzLrs44+3bGlqGBgCGwLt22KPTwbHL1c6+/olg3xbj7m22cX2sYBBGMxXfjbhtiXVLQUQApQQqrYXo2XhwgZYNQoOms5oRKfCDd95g2cHlpfc32LEhmnpRSCmeTMOWvbisboqIlFfFuhKOOPS0sOSY0JiT7GrRfQwyi7GVUhpuDnIOKFREsk6lieczs67NZ64nY2m2zstB01nNpKQ6N1P7f49Prfn2IGqpFgVayHY6fH+mydqrhVSNqD6ZlBaMGQRETJlaB+czx7T72FuGlrOZratKxEmus46OAQTMPH2tumeydOj6ULyRnP7wfmemGl2e6dhQPKlga057ZG9ya37xBkwVq9PlkOl2OxnXjAEDaWmoidshmRQAkAu0EkwzZLPMXkSkMKh965/cf/2Hte0W0co7WtP+pFHID9yv/+z/Cdauxm/JCL0aKTlfThdrGQsQoWYw2+mBTgrcBJ5ARGrab7AXqOtVIPV/mwWQQAhLS0WB28B7IfeTJnd0Xg6aNdgkUBSdmJQ//pdvrXGvCAIyB7Ysb4dBAFLSf74v/9v3NmYmEEFNUTVUdTqporrJ3gxZymRWp5/TdiUpYyxjsrSpKtX1ryoC0nXjaqV64nJ520Aydd2FcWjEqrjy6TfVTCcGNUsFeYe/71Dq4Ii1sC/XD8dnazWlpwyznYxrRNBQGpx49111PQIRDRN1o1WZEwCgWPv6QQShx4X5yz4CsFLQTKmn0CevCqSWTBVdKBUFANNEs2WT/46iIXfaigysDC610JULahbkBISjEJyH8DxQBQb+CMTmJd+SMwCKiNe/9BAIWRfnM9djazxtaeNVBdSiBYciWGvqGIJAXUNYPl6BgIDxnN7MsgEoBcqL5pdKXMRBS+rRMWNpgnd4qXTAFM1a6HCpGtMv1gZDRD1x/Epha3b2kTuHY81cMDy621EEzx4rTpfDdjRTqSDn8A8dyRzd5SxcRCK6OFmYLCsjlUDWRgkgggyJo2x2ZzcwzLBIM1a46CQlqqjJ8G1kqGnriKSzVr1NQ5+8GtQ9D/WloqQUmnbXi+4BAAARuUgF3ZKjDKJr4H4HwssQXgA5Cv4YwCxFRYQIQAFJ0PYCLqujl7NASpGoX8NEiokU9iRny9BY1hKArf3miMCbLgkCqUCt2YvKENPNfJ0EVPRVoBS/bqCoSNbVNyHnLGN1/pp0YI9pSwwm6FxBhchbTbS/IQRk6GbJN148MzOQNA5sm0/d0AU+vM9JGOzpN4tjMz4irDVbkwikou0D+oeOZI5st+vfRZeulc6OV9FOme0ppIwBRZHJlKnfevkx7WBY3Laj1qX32pbtYu8Rnm60sGRhOnjzu1QprumiEhHoFjTTc8mrYeARKUSct6yXfpPbzvL+fl2CiTQgdkUpRQMq/wSVr4IKAQGQg0JAjsgBOAAAhiCGAJepmWoW5gP3dTvrVYFTzIoFo6Ax/IlDmU2pxneAAnhzrPzCxfLaysYIGEJKayZJCeZ8Ka+XbBMRLU3LZww7O8EppgOSNGFbm5Ne1lJT/volKQAQgOWkLs353zw+nrC0bQPznnLB8L47EkNp7V9PlF67WHUDJVZX/EQEksDU8F07Eu8/nNqWX3IXr8xUXjs3FTJ7U6rdjuKMAWNB0uKW2QtLqmfcoPSeFN+80/nJT+p772r4KLx8rjg+GpQLa1ISERHM5jop+jUVeEuisUu1L7Sdpm6BbtD9niACFhq8NsgKUiAGmhxdzkJc317fCAoIRS9SoGIGHb3lZUHQhfiP793+3j2Nkj2U9NevjL9w6QzINUhSROSM0s0ajBLArB/VhSZRSbmk6B4x1+kCJ+jUeK8BG7N6eK3G19hdrwFiyK1k7uTkhPbq5R971/bN2cUY7khO/5mH80d22C+cKp+Z8FxfIYPYedpw9xTFMpRsjd252XzP/uT+Laa59PV1dbb27RNXalLbvSPPGG+rJwWCjMiQkcGwZ/0AewMa1gql90REboVqleUfMU1TXMAaW9sgIph2U0lKbgWioL5UdGmiCGEiie0ksa0FFHHB6E3pU0rABhttZIpAFgFRyYZSUepNqWjMoLOCTorE+FjBBWiUpIhga2zNXTsINIRkM2+aIigE9c0gG6eKdqNUFDolSfNJfYvjXypLlwSt5d3SAAFpmq7Sg6+NTUTywo+9a+eCZgoAhoZHdth3brUuT/vHx9wz4961YlALKbzeexARBIOEwYdSYs8m6+7t9khOM5aZAJenK//fD0bLPt59YETXjTZTVjkHCgNbKPv2UkgBgJk2tu6djIjKrTVvYqKbTDfX2teGkGELSQpuBaKwVakoEbFEqqlboBswnlne7otAgYKuJw8QgRhqVB7mC5yAYOlZEfSmVDRmxdJ7UABNC0YRIGXyNXeEQdA5Oi2s+1m/XgmN0/IXrxgDdetKUtu2t2W9M3PRFU9r031EQIZhQXb4jbGJYu3Mv31w54GRTL1vVBe4e5O5e5MZSSq6cq4SFV3phYRAhmApm+cdkbS41iw2RwRvj8390/culEN+9NAdjp3oSOa/Dl7K5LbV3c7kvQcNE027das6pMBrWuaEusHi+M+adA1kYNpNawFUtbRCqSgiskSqtzrp0nXOOGd5kgVSVQBGEHs2u3FsBmygUSdVVVCVeBYeLt24N6WiMSvNagYggqZNTBAxZQgOJNe4WkzG7GYTRwhgzldLHEFLE+Y4Qsebk0IHh3cPOXyTVZuocWJteUthXpjabHDL+ZmJJ7/+zgfv3vrIwU3pZdVdgmPeEXlntT+hVAtfenv8X94c89F+16EdA5lU+40mGQMVRZoMbe32ijXF6AZaCWScpFxuuBEABH7TZs+o6WiaiIxArtalSATIULeadyFxKyuXivbSumciBagtjFdRpATaqT2fATSjyutB6ZWw+jZE00oFgAKAYye7AXDgy3RSVQZw41l4VDd7BJH30k86kFipYFQpNVNt5g8hSlqaxnFNgzWJwBBgN+sXTgAFXy4sokZJCihQZjpddA8dlKTZdHL3QDhWk5O+3qYkhdjM183s0Eh57trfvjx6bHTmA0dGDm7PWvp6TtgL5clLs19/4/Lp8aqezB24Y2RzPskQ2ldIGQcMq7mESCVv5aEU64RpBlg2MN40GoCIEAXKrYJSDXorajpL5QCRfA8YRyEQW1TREgEpkBEQQWoA7Oad8ZRbRiXV9akEMYuH4xydVKvC1o6D3EFmSqqb1UwEaOrOId25y970CRXNRpW3w8qrfulV6Z4DVVRKKRW24UUnAAkqBNRA5JdJ0gJID4BRfZtnIkCN96ToPiaf0JAktQiVEDVvYoIISZ0PJfVLZQIAkBJAtlJOCSBUKlIgGBu2hNnsDSUJSgHV66QqqpsqysDWeMrsvMXQscXHGNuS5puN2rTbAbUUYH4KaXpgk2c7p65NnH7m5P7NqUcObj68PZtOrJTkWE+xFpwYnX3p7YlTVwtK2MnBbQP5zJacZWsdqOhnDGQY2dJPaFo7TaRuXYTGbQeEBqHftGBUBT7Es5r1pdktjCc/8ZvWez/in/ief/z74YV3qDBDMkIh5r2ZpEApkhI1gw1sZTsP4t77+O67YWAEmqmW6FajKFrQtkgtlooSEROC2cnexe65jcxsGK6ACAtT5pnI6Zl365l3J4CkNxZUj0flH/jFl9f8uJEEkAAS0Ab9DtDvBftR0PY1RvTVHIAkoiWzc3oyn7meeFazJ6mFIIXZakjU2KYREXfmzef+j/tfvlj611NzL40Wz0zXQhAACq7LkChOZCLMmOzulP7wkPno5sS9A7rRzIPnRrIc0sK09fn5zAuHA0yaos0G/k3p5B7zmdTeoWDCDSdCrX1JCjA/n86yU/pIwivPvT05feLyyYGksW9r5s6R7M7hZM4xbUPUlz9JRW4QTZe80anKO5dnT18pTJV9rltObsRy0kLThpJ6PtGZX40ceFjJJ0Q6dRsqpACAmoamjaK575sAcGFWs96YJ8ictH74qH74aPLfKTkzEZ457r3x3fCd18IrF1BJTOTZyF6+917cey/fsgfs5Er5UkqSX1uI7xItsdeICLjGbKdl26pOg8xCHtcW37BgFLm5zTK3Qf7DjnIpVipvAAFEoCJgAsQm0A+B9TCYR0Hf19jaeQE5CxTF85mXzB1hFuvyfOZ64lnNniub66RKFrwokGQsc24yhnfk7Tvy9sfv3+QG6uR4+fkLxX89PfvqWHncUwRwh6M9MGQ+Omw+OGzdkdRWqNAhgmqkquH1lnoEJOtKRREYoqPzzs5njumkJOWcb8to22Yqs7Oaz9sK4tdDQJzxRGbASmZ9t1wtFV48PfP8WxOGho6pp23NNjVDcAIII1nxonLNL7uhL4lxYSVS+c1bdNthXCiilMk2pTRDdEIh5UBBYKggaWqiV1HjXhMH01vMakZEiiLyqirwud26TQZjfHALH9xiPvIh8t3oykXmV3BohGWHmofpl0FRAG41do7idSfpklJRw4z9uev6kWsGmcF4cq0rCJm1imnJRGiithesd4H5EFh3A+RunJMrZwEVKVFfQkGkkCegy/OZ63EMkTLFjNesiQkBIRVrQS1UK89GtnR2/470/TvSv/7YtulKdOJa1XaMO7NGanXlgwRUDsiV8z3DAGFZqSjP2Jre6VJR6KwkBYBcNnNgKJis1ka9ZHu5pUuIxycj45aTMZ1MOgoj3w081wvcajmICi4pAiSGnHGuaY6dN9OGrRkW54KQAShSpAkcTukZW7QfaIp/Gg9K+QSkU73oWnazQMNEzWgZVKWWE0Zb7M3Sdt255pMIfPKqFMkFjUupxcc1ns/MrEQPxuFdh0GXGiyRj6mfhex/hjUVy8sZIIqdpPX7YiKFrEd1XwBg6TxjCSg2r/skomqgyl6UXV2lJiIOJrX3Jdfm5yWCUkjB9fF3iKii+qmiyDlmLNGNtO9Ot+BnbCSf2FeYLc2EhchUUWebEs4rIoxrRkIzEmm4nsdHcYMcBAYMEGB+8LwigrilAgHkbDGcFIJh+wqpEABBJcmjbDJx+7QsaQYaFrOsVgWjoJTy3KZT7zsIBR6EfvxaxjhXpu4OKqU0KwFaT3uGci3d2DkMRRtjaRcgYPaaC6jkLGAcuK/fk2Ldn89cD5sf6dHifUbgRlRyQ8h2Me2aAIq+DKTSOYN5R1DDLDzMd6FUFNrv9Lwcx3H2DZnbzYpGYdcMrjh4q4jU9ZdPXGCEdP0joLoOFwSWhpvTetIUnbHro1B4lXyCJRK980PdFNCw0GhpIRIQlWZVcaYjbvGWzE1SrbzwLyXVksA9QC9LRecPWjermSFT5FUufb46/pdR9TjJ9qYErnU6uSqDnARqLBUFoF6m5ccMJFpPGAUKFJyfWa35sj4iBecrweIVJFTREr8t5yzfhWRS6LhOCgCIODSQPVwLC375cpiRtOYBzl04JRhM6gOOWPsw6Sa7QgB0C3lL5bK52zNkXweaKxWMIhfBW6/OffY3xe5D5t0P6fe9R9u8vWnwfa2QW4HJUXn2DXn6NXX5FJQLix81Ft0rtBzsbT4v8tR8mu38OVBY/n5QeKnCLM0cEc5dWvIB3TnCrR3dUFaAIohGwX2VvO+i/wZEVwCYUqyhVLSX7UtiViwYhVoQ/fx/f+ueLcnH9+Qe25M+MpLqSE8mIph0ozem/RcmvZcmamdLYb0btHGqKMOOz8KL6cpOdV3fuSlTcKfda+4U2Cq6KRXK8xBB0uSbUpqltVdfDwAAjAPzi0nmDWYzut47J9TNAg2LVp7VTEpOjUeTl90XnuaprLZjr3boAePwg/qeQyydX5PvkqKQZsbp4lvq9Kvy/AmYvSrdKkMGXNTvZ/l8ZpZM91gnZSK9TERqyDUgivzR0D3rTf8jsKRm79Kce0Xyft05zMRAu/6H6BqEJ6j2Eno/gPAsyCIiAIr4KZbLJqX3ssApZii54hNBNOdF37pQ+dbFKv7L+R0Z413b0+/fl3v3Hal9Qwl9xUjUciqBeqcYvjhRe2HCOzHrT8Qz1hG0Je2NFEVL3i8MqEvWfbfWXyKR2DtcK9VKQUUUwei0w3TVEHCGwyktt+pSqBUQGmBY04PiYNa87e36GDQtfsNgDufIOQIotxq89ap//HsV7UsiN6ztPmTc/aB28AGxbQ+zW1+u8mx06RScfV2eeUONn4daCZQixoFx1rQTVcNUUYBeFjjFMC3TfFYzIgCfd2qRH1VPBOXXYeKvkOeM5J2ac79w7tOcfchWHbCiKgRnwP0e+N8D7zioaVQhMAHEl0SlEKlxqmiP5jPXM+SsVDAKEPd7DgCAEC4Wwoulua8cnzUgunNT4j27su/fm3tgR3Ik09KRKhVdKEevTLnPj3s/mPJGK2EtUhxRMNAZW679kyJaUnbVlfnMMd2SpIiYz+UO+6F7ufhONVsV2k0RpgSQsfhwStN5u5lPQgOIfFGdGUqJbDZ729v1MfGsZkAGdOMhScgYMIagAYCcvRZdu+K+9Cxatti8Q7/zXv2uh4wD97DBLSg08ms0PqrOvylPv0qXT1FhCqIQkAHjwDXgK7kKVaNPtqdF9/OH5Elk+o0WFBIIjPvjqWJQfNGb+zagIcytWuKQljqqJY5w6w7EhulhHAAgugjua+C9BP4bEI4CeQA4r37GO1x2geKponXWA7sZ1r3esmd+AwRAEagIAHyGb4x7b1yb/C8vjedMvHdr8n17s4/tyR7e7KQtQQRTXnRsJnh+vPbSpHu6GBYCBYSCAUewV9RkScWT7hcPykh2o6UedE+SAoAQYnho4O5wPLgyd8Yb8ITosZlPBLpgw2k9vh/twAWADHh1esCGgXxOuy2r7JuBugGGjUJQuMYXIWNx4RNJGY2eCS+8XX36f/BUVuzcb2/bygrjNHVZuVUEBC6Qc9CW9YFvBi1TSIEx7jSfWdI9kCcRdQJgq830YwQMmQYAyr/iuhfc6a8hc4S9G4DFkVIAANDAfQ7clyE6A7IQd3MC4k1aOy87I6gvFQVAFKyHRfcxK89qbkk8mEQBAcy47Bvnyt84X8F/PrcrZz2wM8O35N6Y9a/WQqkYZyQQzFVng86Xii6AYApMd6HoHroqSQHAMIyRzcORHFfjM+f8fO+FaT4hhpJam5lPXABTIZSv5U05NDho3nbd81YANZ3FkfG1StKFPSCCEBj78qpldex72tWE7tjUyni/EfWSlIhQCLKS65ko1QZMOLDeWc0E7PpspTCqvQUEBHy+4wYKCE4CAii2OGJkFQchAllfKgoETGc9mc9cT87WBFIEbQR2lVow/8/NBeeqs6lQ1wReN97XeMHnS2jn/8WQJXSe7PRU0fmdd2On9ViWtX3L8L2baLc+ZbH2ZsqvBSKwdLYppSUN3o4YFRowFWB5Mq+Hm4YGbPvWm9DbTVBoaNrERUeqLJAx1HUSBjG+jq7Y819pcJIKjTvJVZZLdQpkFhPtO8oRQACKpZdCAIm1jMAigLgLQb0gJcYtFL2Yz1xP2hK2xjuTxEoAFAlQBoPVjchYCgIyJEmL+XnxfGZDs7szba0Xb/JEIrF9yzDCpJicOhcMVKAXPlOGMORoA8m2BLfQgCkfSpN5Q24aHvxhE6MAAIwzO8E0Q601z7FDLAwTVVKpSAY1P/TDRbWUCDUDrUTPiu6vn5aB7ObOaiYAAmBS8khy3xdyyUhKQmYj6/VyTZrCMXgp6GZy8YogQwAkqSIvCEtuUPKWlIoiS5nM7M4c9R7ZRI7jbN+KCFeNa9dOQb4EhowbqXUHIkhZfFNas9bb8wkRuAAMa1iayFmwaXjIcXr9hr8lQET9BrOau3HM+H9kJFUkpR8FXqBCKSNZ/ynEaflmT4vu54/LdKYluzapuRUUx/2UYlEkQinCgAchu25ZLh3Hwns0n7keW2NpU1wtS4DeCdN56amUCmVYccOqH5a9yAtIztc9LsAYZuzOz2eO6Z13KZFIbB/ZqosJa+ra2+X0NKQkqU51OVkCAec4nNKyCW19sppx4AzILYrqZC4hNm3a9MOojS5gmKibPRCjsYhUSqlIhm4YBaH0I6VUPGsknira8JV4PjPoZg+L7q+z+kymtljogMoiyaNI+D6PJJOSxY38YpW98TtxqWiX+va3RhcsawvAoOvvGAREBkAqlEHJD6tuWPajWnC9oimun2lYLcg5y3Yn3AS9lKQAYNv21q1bdX0qNVV8uxiORVkfdSk7fN0JIGvxoZSu87UHmhA0AUARlmessJDPJgYGBn6oQkzLYaYNmqY8lxkmcL6OKfYrUG+8R14YBaH0IinlgvSEpUroAqQUSkmBi7rJejWfuR4m0kABkQTQGPJOLuHrjhQClJJHEfcDEYZMKU4wLz3nBWiTC6NIhaRc7Hm4KSaf0EC3IARQcrUZUatmwXgPq35U84KSF1V9GcbWbSw9oVkjXQDkwATTjW7MHZk/CPW8lDOKorm5ufHJ6XMFPOPlitJSnVNOicDQcN+QtT1nLLY0Xx2MA2MAQY2Xxx0RDeZzmUzmhyfhqRWqWg7PHPdff94/8Up0+RxVCkoqFAIZX4eLEBGtnGM65oLrU/pR4AYyjOqlZ1OICKUkFRGgSOfE9r364aPmA49puw+j2eshWioY9wsvhuXvh5UTMpgg5bUzawSRctkqZ1Fc9xlJ7vs8jHgUzRvvC22km0FAklSITKDIa84hPXXUyDzGzZ3r/nXr5p2J6j8dn/7W2dnXxspTNQWcgZRALdvgrwSCMPTcwa3IOSkVeYGsBUHZC8ueDEJSjcZ7IwwBNUDkFO3IGA9uT33gQP5HDuRHMqvKt1vzyfZekgIAEZXL5ampqfE570zFvhLlXMWVjDrQCINgc0Y/sMly1hKyZyzOGA2xOqv7s0lLGxoachznhyT9fpVQ4EUTY+E7r3tvfjc6cywcv4yhpwCZpsXm1mp2gohGykIAGcrID6WUQCtJTwAApSgKgRSzEjg0Yt55r37XQ/rB+/jQ1h4n5DeFZDGsngrLPwhKPwirp0AViQhRI2Crz09ApGTSlxGGoQgiJMXioQAr7ABBEYVEhMwR9k7duU+kjurOXUwb7MwPawMiGC96r1wqf/P07PPnC+9cq3nEAWheqq4SBK5rztZs5AZB0Y28gBZmPbW6LIiAHBhHUFkdj2x1Ht+dfXxP9q6tTrZr2uj8kW+KJI3xfX9ubm5qeuZqGc656SmZCogrGa5bnhJBwmD7N1lb08YqfxVjIDQgKaFW4O6MzaNcNpvL5QyjKy+u2wZVKUYXTnlvfT84/v3o4juqMENRBEIwLlZz5eNVt4KgUUqhlEgSuGDZAXHHQevuh7S7jmrb94GVWEcGVS8gJf2xsHrML7wc8dfIjAAABSZJREFU1Y5L9zKAT8QW60dX/jZBneuz1TYKQRJFgLowNgv7oJ55UEvcy82dcdr/LUgo1TsTtRcuFL55evaV0dKlUgBcgFRAqzP/CRZdn61gHJADIlfhngHz8d359+/LvmtnakfW7NlSuZmSFACIqFKpzM7OzhRKE1V+wUtNyWREmlQRqWit/lME2JE39g5bBm8xf61uU8GBcSAZQa3M3GkLg6STyOfziUSir4quHopCNTMZnD7mH3s5eP2FcHIMQ5+QgRCs1RS8VrsiQqVIhggItqNt260fuE+/52Ft710iO9TrPKf2IFmV7jm/9EpQekV5p2UwTSQRBQFbs/lPBKhIhQDIREbYe/TUA5pzlNv7eznwriPMVsPXLpeeOzv33NnCiYlqMQBAmJeqa33aGQII4AyVGrTZ/SPJ9+/NPbYne3BTItGd3PuVucmSNEZKWSqV5ubmSpXqZJWN+c5VP+GjQchVFBLJ1VxkIsjY/MAmeyiptbTrETgDLkARKM/XohLWZgyMnISdzWaTyeRtO0ekJ1C5EFx4Jzjxff/Y9+Sl09HcNCiFQgBfKVt7PnakItQNlt9s7LtbO/KQefABvvWOxkF7GxMZTEbVt/zS96LyG5F3EWSFAAEF3iC2roAiUhKYJcwRkTxiJB/UnLu5OdLL/s1dggjOz7gvXyx+453p746Wz87UJOpA8gZxqrj3FeNAZGJ0cJPz3t3ZJ/bl7t+e3Jy6yUvllpCkMVEUlcvlQqFQLpeLHk0G1kToTPm6RBM4JymVjAiaTYmB+cynPYPmHYOmaAg0ITAEzoFxiCRRELGoKvwi+EVToOM46XQ6mUz2I0udRMlo6mr49hv+8ZfDd16Pro4qt0KAKARjnJbFjrQd+7TDR/XDDxp7DoGTxtvUJiAVSH80LL0WlL8fVk5QeE0pf2mcigAkyRD+//bup6eJIIzj+DOzM9PudnFBTeAgoAYSuagkysGTJr5tY/SGGA+CiYiYqBywMS1td7qdv4+HRmJiwoGVUurzeQV7+l5+m2e44OKGbG2ouceqeJQ011gy6UltYsqR/3CsXx10Xx523x0N2vqvner3dsSiXynU1sq15/dujm/xyYv5OfQcpqikYzFGrXWv19NaD6tR32DXp22bdpzSQQamEiEQGMQQMY5fS0eECLA4JzaW0vlWAgjAgXPgHBAgOAg+8GC409wNmCllgmmzmWVZURSt1ow/H3LpcKTD9y+j3Tdmb9sd7MVOG73laYsvLjfG29HG5pRsR5OE/sTqj37w1gx2wvAQwwkiAs9Vdkfkm+ralvwnJ02vFEQ47pudb/0XnzqvP3f3f1ZVTABjoeD+Uv50feHZ+vzDW8XCxZzFq2nqSnrKWluWZVmWo9HIGFMZpx3X0Og7NfCiirIKzKHwEZAxyfnaYnO5UIwhA4QYGDrmDYRREg3YYQJBSaGUStM0z/M8z6WUUzpczK7QabuD3djriNU1ubzOzniR9L+BGKM5cvo9BqPmHrDGKp/W7WiSXIj7P4bbX/tNwZ7cnb99fXLb0flMb0lPee+rqtJaG2Ostd77EIJzzjofkEdgERkwaIiEQQRAiJExTDhXSgkhkiSRUjabzSzLsixLkvPcziCEkDNcgZL+KcbonLPWWmudcyGEEML49C8ics4ZY5xzIYSUUil1GtPL/nBCyCy7YiUlhJApNJsjKSGETBKVlBBC6qKSEkJIXVRSQgipi0pKCCF1UUkJIaQuKikhhNRFJSWEkLqopIQQUtcv8uLAbUGT6YsAAAAASUVORK5CYII=;" parent="mZ2qIeFOlVFqwqRpEA1V-1" vertex="1">
          <mxGeometry x="157.25" y="-940" width="111" height="29.04" as="geometry" />
        </mxCell>
        <mxCell id="mZ2qIeFOlVFqwqRpEA1V-20" value="Dév" style="shape=umlActor;verticalLabelPosition=bottom;verticalAlign=top;html=1;outlineConnect=0;" parent="mZ2qIeFOlVFqwqRpEA1V-1" vertex="1">
          <mxGeometry x="63" y="-960" width="30" height="60" as="geometry" />
        </mxCell>
        <mxCell id="mZ2qIeFOlVFqwqRpEA1V-21" value="" style="endArrow=classic;html=1;rounded=0;" parent="mZ2qIeFOlVFqwqRpEA1V-1" source="mZ2qIeFOlVFqwqRpEA1V-20" edge="1">
          <mxGeometry width="50" height="50" relative="1" as="geometry">
            <mxPoint x="303" y="-879.04" as="sourcePoint" />
            <mxPoint x="153" y="-929.04" as="targetPoint" />
          </mxGeometry>
        </mxCell>
        <mxCell id="mZ2qIeFOlVFqwqRpEA1V-22" value="" style="endArrow=classic;html=1;rounded=0;exitX=0.5;exitY=1;exitDx=0;exitDy=0;edgeStyle=orthogonalEdgeStyle;" parent="mZ2qIeFOlVFqwqRpEA1V-1" source="mZ2qIeFOlVFqwqRpEA1V-17" edge="1">
          <mxGeometry width="50" height="50" relative="1" as="geometry">
            <mxPoint x="363" y="-610" as="sourcePoint" />
            <mxPoint x="110" y="-730" as="targetPoint" />
            <Array as="points">
              <mxPoint x="213" y="-860" />
              <mxPoint x="110" y="-860" />
            </Array>
          </mxGeometry>
        </mxCell>
        <mxCell id="mZ2qIeFOlVFqwqRpEA1V-23" value="" style="shape=mxgraph.networks2.icon;aspect=fixed;fillColor=#EDEDED;strokeColor=#000000;gradientColor=#5B6163;network2IconShadow=1;network2bgFillColor=none;labelPosition=center;verticalLabelPosition=bottom;align=center;verticalAlign=top;network2Icon=mxgraph.networks2.cloud;network2IconYOffset=-0.08;network2IconW=1.0004;network2IconH=0.7222;" parent="mZ2qIeFOlVFqwqRpEA1V-1" vertex="1">
          <mxGeometry x="144.75" y="-883" width="50" height="36.1" as="geometry" />
        </mxCell>
        <mxCell id="mZ2qIeFOlVFqwqRpEA1V-24" value="" style="fillColor=#C82128;aspect=fixed;sketch=0;pointerEvents=1;shadow=0;dashed=0;html=1;strokeColor=none;labelPosition=center;verticalLabelPosition=bottom;outlineConnect=0;verticalAlign=top;align=center;shape=mxgraph.openstack.neutron_securitygroup;" parent="mZ2qIeFOlVFqwqRpEA1V-1" vertex="1">
          <mxGeometry x="140" y="-773" width="30" height="30" as="geometry" />
        </mxCell>
        <mxCell id="mZ2qIeFOlVFqwqRpEA1V-25" value="ubuntu" style="rounded=1;whiteSpace=wrap;html=1;fillColor=#fff2cc;gradientColor=#ffd966;strokeColor=#d6b656;fontSize=10;" parent="mZ2qIeFOlVFqwqRpEA1V-1" vertex="1">
          <mxGeometry x="502" y="-910" width="80" height="20" as="geometry" />
        </mxCell>
        <mxCell id="mZ2qIeFOlVFqwqRpEA1V-26" value="python, pytorch" style="rounded=1;whiteSpace=wrap;html=1;fillColor=#ffcd28;gradientColor=#ffa500;strokeColor=#d79b00;fontSize=10;" parent="mZ2qIeFOlVFqwqRpEA1V-1" vertex="1">
          <mxGeometry x="502" y="-930" width="80" height="20" as="geometry" />
        </mxCell>
        <mxCell id="mZ2qIeFOlVFqwqRpEA1V-27" value="code-server" style="rounded=1;whiteSpace=wrap;html=1;fillColor=#d5e8d4;gradientColor=#97d077;strokeColor=#82b366;fontSize=10;" parent="mZ2qIeFOlVFqwqRpEA1V-1" vertex="1">
          <mxGeometry x="502" y="-950" width="80" height="20" as="geometry" />
        </mxCell>
        <mxCell id="mZ2qIeFOlVFqwqRpEA1V-28" value="pull registry" style="endArrow=none;html=1;rounded=0;exitX=0.25;exitY=1;exitDx=0;exitDy=0;entryX=0.75;entryY=0;entryDx=0;entryDy=0;endFill=0;startArrow=classic;startFill=1;" parent="mZ2qIeFOlVFqwqRpEA1V-1" source="mZ2qIeFOlVFqwqRpEA1V-25" target="mZ2qIeFOlVFqwqRpEA1V-6" edge="1">
          <mxGeometry x="-0.4591" y="-16" width="50" height="50" relative="1" as="geometry">
            <mxPoint x="313" y="-1070" as="sourcePoint" />
            <mxPoint x="363" y="-1120" as="targetPoint" />
            <mxPoint as="offset" />
          </mxGeometry>
        </mxCell>
        <mxCell id="mZ2qIeFOlVFqwqRpEA1V-29" value="gpu-util" style="rounded=0;whiteSpace=wrap;html=1;fillColor=#e1d5e7;strokeColor=#9673a6;" parent="mZ2qIeFOlVFqwqRpEA1V-1" vertex="1">
          <mxGeometry x="482.5" y="-763" width="78.5" height="20" as="geometry" />
        </mxCell>
        <mxCell id="aeKDadb0bYk0Npxwq79u-4" value="" style="rounded=1;whiteSpace=wrap;html=1;arcSize=3;fillColor=#f5f5f5;strokeColor=#666666;fontColor=#333333;verticalAlign=bottom;" parent="mZ2qIeFOlVFqwqRpEA1V-1" vertex="1">
          <mxGeometry x="610" y="-840" width="150" height="200" as="geometry" />
        </mxCell>
        <mxCell id="aeKDadb0bYk0Npxwq79u-5" value="control plane" style="rounded=1;whiteSpace=wrap;html=1;fillColor=#ffcd28;gradientColor=#ffa500;strokeColor=#d79b00;verticalAlign=middle;" parent="mZ2qIeFOlVFqwqRpEA1V-1" vertex="1">
          <mxGeometry x="630" y="-705" width="110" height="30" as="geometry" />
        </mxCell>
        <mxCell id="aeKDadb0bYk0Npxwq79u-18" value="k3s node" style="rounded=1;whiteSpace=wrap;html=1;verticalAlign=middle;fillColor=#f5f5f5;strokeColor=#666666;arcSize=3;spacing=0;gradientColor=#b3b3b3;" parent="mZ2qIeFOlVFqwqRpEA1V-1" vertex="1">
          <mxGeometry x="610" y="-640" width="150" height="60" as="geometry" />
        </mxCell>
        <mxCell id="aeKDadb0bYk0Npxwq79u-0" value="" style="endArrow=classic;startArrow=classic;html=1;rounded=0;entryX=0;entryY=0.5;entryDx=0;entryDy=0;exitX=1;exitY=0.5;exitDx=0;exitDy=0;" parent="mZ2qIeFOlVFqwqRpEA1V-1" source="mZ2qIeFOlVFqwqRpEA1V-4" target="aeKDadb0bYk0Npxwq79u-5" edge="1">
          <mxGeometry width="50" height="50" relative="1" as="geometry">
            <mxPoint x="600" y="-400" as="sourcePoint" />
            <mxPoint x="550" y="-688.1500000000001" as="targetPoint" />
          </mxGeometry>
        </mxCell>
        <mxCell id="5BTVs8S7McoyMMgpDBOM-0" value="gpu container run-time" style="rounded=1;whiteSpace=wrap;html=1;fillColor=#fff2cc;gradientColor=#ffd966;strokeColor=#d6b656;verticalAlign=middle;" parent="mZ2qIeFOlVFqwqRpEA1V-1" vertex="1">
          <mxGeometry x="320" y="-675" width="243" height="25" as="geometry" />
        </mxCell>
        <mxCell id="gRxfELDEn6U0M7UnTI_q-0" value="" style="endArrow=classic;html=1;rounded=0;exitX=0.75;exitY=1;exitDx=0;exitDy=0;entryX=0;entryY=0.25;entryDx=0;entryDy=0;dashed=1;" parent="mZ2qIeFOlVFqwqRpEA1V-1" source="mZ2qIeFOlVFqwqRpEA1V-6" target="zKR1n9wWKZ1pJaulzmO9-0" edge="1">
          <mxGeometry width="50" height="50" relative="1" as="geometry">
            <mxPoint x="653" y="-700" as="sourcePoint" />
            <mxPoint x="703" y="-750" as="targetPoint" />
          </mxGeometry>
        </mxCell>
        <mxCell id="gRxfELDEn6U0M7UnTI_q-1" value="/dev/gpu" style="edgeLabel;html=1;align=center;verticalAlign=middle;resizable=0;points=[];labelBackgroundColor=none;" parent="gRxfELDEn6U0M7UnTI_q-0" vertex="1" connectable="0">
          <mxGeometry x="0.3671" y="1" relative="1" as="geometry">
            <mxPoint x="35" y="4" as="offset" />
          </mxGeometry>
        </mxCell>
        <mxCell id="5BTVs8S7McoyMMgpDBOM-1" value="container run-time" style="rounded=1;whiteSpace=wrap;html=1;fillColor=#fff2cc;gradientColor=#ffd966;strokeColor=#d6b656;verticalAlign=middle;" parent="mZ2qIeFOlVFqwqRpEA1V-1" vertex="1">
          <mxGeometry x="630" y="-675" width="110" height="25" as="geometry" />
        </mxCell>
        <mxCell id="B44rQY_ocFhatQIn9BVE-0" value="&lt;font style=&quot;font-size: 12px;&quot;&gt;k8s cluster&lt;/font&gt;" style="endArrow=classic;startArrow=classic;html=1;rounded=0;dashed=1;" parent="mZ2qIeFOlVFqwqRpEA1V-1" edge="1">
          <mxGeometry width="50" height="50" relative="1" as="geometry">
            <mxPoint x="170" y="-560" as="sourcePoint" />
            <mxPoint x="760" y="-560" as="targetPoint" />
          </mxGeometry>
        </mxCell>
        <mxCell id="B44rQY_ocFhatQIn9BVE-1" value="" style="rounded=1;whiteSpace=wrap;html=1;arcSize=3;fillColor=#f5f5f5;strokeColor=#666666;fontColor=#333333;verticalAlign=bottom;" parent="mZ2qIeFOlVFqwqRpEA1V-1" vertex="1">
          <mxGeometry x="170" y="-840" width="124.75" height="200" as="geometry" />
        </mxCell>
        <mxCell id="B44rQY_ocFhatQIn9BVE-2" value="control plane" style="rounded=1;whiteSpace=wrap;html=1;fillColor=#ffcd28;gradientColor=#ffa500;strokeColor=#d79b00;verticalAlign=middle;" parent="mZ2qIeFOlVFqwqRpEA1V-1" vertex="1">
          <mxGeometry x="190" y="-705" width="84.75" height="30" as="geometry" />
        </mxCell>
        <mxCell id="B44rQY_ocFhatQIn9BVE-3" value="k3s node" style="rounded=1;whiteSpace=wrap;html=1;verticalAlign=middle;fillColor=#f5f5f5;strokeColor=#666666;arcSize=3;spacing=0;gradientColor=#b3b3b3;" parent="mZ2qIeFOlVFqwqRpEA1V-1" vertex="1">
          <mxGeometry x="170" y="-640" width="124.75" height="60" as="geometry" />
        </mxCell>
        <mxCell id="B44rQY_ocFhatQIn9BVE-5" value="container run-time" style="rounded=1;whiteSpace=wrap;html=1;fillColor=#fff2cc;gradientColor=#ffd966;strokeColor=#d6b656;verticalAlign=middle;" parent="mZ2qIeFOlVFqwqRpEA1V-1" vertex="1">
          <mxGeometry x="190" y="-675" width="84.75" height="25" as="geometry" />
        </mxCell>
        <mxCell id="B44rQY_ocFhatQIn9BVE-6" value="" style="endArrow=classic;startArrow=classic;html=1;rounded=0;exitX=1;exitY=0.5;exitDx=0;exitDy=0;" parent="mZ2qIeFOlVFqwqRpEA1V-1" source="B44rQY_ocFhatQIn9BVE-2" edge="1">
          <mxGeometry width="50" height="50" relative="1" as="geometry">
            <mxPoint x="610" y="-670" as="sourcePoint" />
            <mxPoint x="320" y="-690" as="targetPoint" />
          </mxGeometry>
        </mxCell>
        <mxCell id="mZ2qIeFOlVFqwqRpEA1V-15" value="ingress&lt;div&gt;HTTPS&lt;/div&gt;" style="endArrow=classic;html=1;rounded=0;entryX=0;entryY=0.5;entryDx=0;entryDy=0;startArrow=oval;startFill=1;" parent="mZ2qIeFOlVFqwqRpEA1V-1" target="mZ2qIeFOlVFqwqRpEA1V-14" edge="1">
          <mxGeometry width="50" height="50" relative="1" as="geometry">
            <mxPoint x="110" y="-725" as="sourcePoint" />
            <mxPoint x="683" y="-880" as="targetPoint" />
          </mxGeometry>
        </mxCell>
        <mxCell id="mZ2qIeFOlVFqwqRpEA1V-14" value="traefik proxy" style="rounded=1;whiteSpace=wrap;html=1;fillColor=#dae8fc;strokeColor=#6c8ebf;verticalAlign=top;" parent="mZ2qIeFOlVFqwqRpEA1V-1" vertex="1">
          <mxGeometry x="210" y="-750" width="50" height="50" as="geometry" />
        </mxCell>
        <mxCell id="mZ2qIeFOlVFqwqRpEA1V-16" value="" style="endArrow=classic;html=1;rounded=0;exitX=1;exitY=0.5;exitDx=0;exitDy=0;edgeStyle=orthogonalEdgeStyle;" parent="mZ2qIeFOlVFqwqRpEA1V-1" source="mZ2qIeFOlVFqwqRpEA1V-14" target="mZ2qIeFOlVFqwqRpEA1V-5" edge="1">
          <mxGeometry width="50" height="50" relative="1" as="geometry">
            <mxPoint x="446" y="-950" as="sourcePoint" />
            <mxPoint x="496" y="-1000" as="targetPoint" />
          </mxGeometry>
        </mxCell>
        <mxCell id="B44rQY_ocFhatQIn9BVE-7" value="pod" style="rounded=1;whiteSpace=wrap;html=1;fillColor=#dae8fc;strokeColor=#6c8ebf;" parent="mZ2qIeFOlVFqwqRpEA1V-1" vertex="1">
          <mxGeometry x="650" y="-755" width="50" height="50" as="geometry" />
        </mxCell>
        <mxCell id="ZCZmuvSn_6oXyUmgAnv7-2" value="pod" style="rounded=1;whiteSpace=wrap;html=1;fillColor=#dae8fc;strokeColor=#6c8ebf;" parent="mZ2qIeFOlVFqwqRpEA1V-1" vertex="1">
          <mxGeometry x="660" y="-750" width="50" height="50" as="geometry" />
        </mxCell>
      </root>
    </mxGraphModel>
  </diagram>
</mxfile>
